SplineFontDB: 3.2
FontName: pnzabi54notosans
FullName: pnzabi54notosans
FamilyName: pnzabi54notosans
Weight: Regular
Copyright: Copyright 2022 The Noto Project Authors (https://github.com/notofonts/gurmukhi)
Version: 2.003
ItalicAngle: 0
UnderlinePosition: -125
UnderlineWidth: 50
Ascent: 800
Descent: 200
InvalidEm: 0
sfntRevision: 0x000200c5
LayerCount: 2
Layer: 0 1 "Back" 1
Layer: 1 1 "Fore" 0
XUID: [1021 467 -1121320856 7114971]
StyleMap: 0x0040
FSType: 0
OS2Version: 4
OS2_WeightWidthSlopeOnly: 0
OS2_UseTypoMetrics: 1
CreationTime: 1550733484
ModificationTime: 1674119970
PfmFamily: 81
TTFWeight: 400
TTFWidth: 5
LineGap: 0
VLineGap: 0
Panose: 0 0 0 0 0 0 0 0 0 0
OS2TypoAscent: 896
OS2TypoAOffset: 0
OS2TypoDescent: -408
OS2TypoDOffset: 0
OS2TypoLinegap: 0
OS2WinAscent: 896
OS2WinAOffset: 0
OS2WinDescent: 408
OS2WinDOffset: 0
HheadAscent: 896
HheadAOffset: 0
HheadDescent: -408
HheadDOffset: 0
OS2SubXSize: 650
OS2SubYSize: 600
OS2SubXOff: 0
OS2SubYOff: 75
OS2SupXSize: 650
OS2SupYSize: 600
OS2SupXOff: 0
OS2SupYOff: 350
OS2StrikeYSize: 50
OS2StrikeYPos: 373
OS2CapHeight: 622
OS2XHeight: 622
OS2Vendor: 'GOOG'
OS2CodePages: 00000093.00000000
OS2UnicodeRanges: 80028003.00006042.00000000.00000000
Lookup: 2 0 0 "Multiple Substitution lookup 0" { "Multiple Substitution lookup 0 subtable"  } []
Lookup: 2 0 0 "Multiple Substitution lookup 1" { "Multiple Substitution lookup 1 subtable"  } []
Lookup: 4 0 0 "'nukt' Nukta Forms in Gurmukhi2 lookup 2" { "'nukt' Nukta Forms in Gurmukhi2 lookup 2 subtable"  } ['nukt' ('gur2' <'dflt' > ) ]
Lookup: 4 0 0 "'blwf' Below Base Forms in Gurmukhi2 lookup 3" { "'blwf' Below Base Forms in Gurmukhi2 lookup 3 subtable"  } ['blwf' ('gur2' <'dflt' > ) ]
Lookup: 4 0 0 "'pstf' Post Base Forms in Gurmukhi2 lookup 4" { "'pstf' Post Base Forms in Gurmukhi2 lookup 4 subtable"  } ['pstf' ('gur2' <'dflt' > ) ]

StartChar: exclam.guru
Encoding: 33 33 3
Width: 383
Flags: W
LayerCount: 2
Fore
SplineSet
181 201 m 1,0,-1
 156 714 l 1,1,-1
 263 714 l 1,2,-1
 238 201 l 1,3,-1
 181 201 l 1,0,-1
147 54 m 0,4,5
 147 91 147 91 165 106 c 128,-1,6
 183 121 183 121 209 121 c 0,7,8
 234 121 234 121 252.5 106 c 128,-1,9
 271 91 271 91 271 54 c 0,10,11
 271 18 271 18 252.5 2 c 128,-1,12
 234 -14 234 -14 209 -14 c 0,13,14
 183 -14 183 -14 165 2 c 128,-1,15
 147 18 147 18 147 54 c 0,4,5
EndSplineSet
EndChar

StartChar: quotedbl.guru
Encoding: 34 34 4
Width: 502
Flags: W
LayerCount: 2
Fore
SplineSet
133 471 m 1,0,-1
 108 729 l 1,1,-1
 219 729 l 1,2,-1
 194 471 l 1,3,-1
 133 471 l 1,0,-1
309 471 m 1,4,-1
 284 729 l 1,5,-1
 394 729 l 1,6,-1
 369 471 l 1,7,-1
 309 471 l 1,4,-1
EndSplineSet
EndChar

StartChar: numbersign.guru
Encoding: 35 35 5
Width: 653
Flags: W
LayerCount: 2
Fore
SplineSet
159 176 m 1,0,-1
 34 176 l 1,1,-1
 34 242 l 1,2,-1
 171 242 l 1,3,-1
 202 394 l 1,4,-1
 70 394 l 1,5,-1
 70 459 l 1,6,-1
 213 459 l 1,7,-1
 247 632 l 1,8,-1
 317 632 l 1,9,-1
 284 459 l 1,10,-1
 424 459 l 1,11,-1
 458 632 l 1,12,-1
 527 632 l 1,13,-1
 493 459 l 1,14,-1
 619 459 l 1,15,-1
 619 394 l 1,16,-1
 480 394 l 1,17,-1
 451 242 l 1,18,-1
 584 242 l 1,19,-1
 584 176 l 1,20,-1
 438 176 l 1,21,-1
 404 0 l 1,22,-1
 334 0 l 1,23,-1
 369 176 l 1,24,-1
 229 176 l 1,25,-1
 195 0 l 1,26,-1
 126 0 l 1,27,-1
 159 176 l 1,0,-1
381 242 m 1,28,-1
 411 394 l 1,29,-1
 271 394 l 1,30,-1
 242 242 l 1,31,-1
 381 242 l 1,28,-1
EndSplineSet
EndChar

StartChar: percent.guru
Encoding: 37 37 6
Width: 828
Flags: W
LayerCount: 2
Fore
SplineSet
569 622 m 1,0,-1
 646 622 l 1,1,-1
 261 0 l 1,2,-1
 183 0 l 1,3,-1
 569 622 l 1,0,-1
202 271 m 0,4,5
 131 271 131 271 94 319 c 128,-1,6
 57 367 57 367 57 452 c 0,7,8
 57 538 57 538 91.5 585 c 128,-1,9
 126 632 126 632 202 632 c 0,10,11
 274 632 274 632 311.5 585 c 128,-1,12
 349 538 349 538 349 452 c 0,13,14
 349 367 349 367 314 319 c 128,-1,15
 279 271 279 271 202 271 c 0,4,5
201 334 m 256,16,17
 239 334 239 334 257.5 364 c 128,-1,18
 276 394 276 394 276 452 c 0,19,20
 276 511 276 511 257.5 540 c 128,-1,21
 239 569 239 569 201 569 c 256,22,23
 163 569 163 569 146 540 c 128,-1,24
 129 511 129 511 129 452 c 0,25,26
 129 394 129 394 146 364 c 128,-1,27
 163 334 163 334 201 334 c 256,16,17
624 -10 m 0,28,29
 552 -10 552 -10 515.5 38.5 c 128,-1,30
 479 87 479 87 479 171 c 0,31,32
 479 257 479 257 513.5 304.5 c 128,-1,33
 548 352 548 352 624 352 c 0,34,35
 697 352 697 352 733.5 304.5 c 128,-1,36
 770 257 770 257 770 171 c 0,37,38
 770 87 770 87 735.5 38.5 c 128,-1,39
 701 -10 701 -10 624 -10 c 0,28,29
624 55 m 256,40,41
 662 55 662 55 680.5 84 c 128,-1,42
 699 113 699 113 699 171 c 0,43,44
 699 230 699 230 680.5 259.5 c 128,-1,45
 662 289 662 289 624 289 c 256,46,47
 586 289 586 289 569 259.5 c 128,-1,48
 552 230 552 230 552 171 c 0,49,50
 552 113 552 113 569 84 c 128,-1,51
 586 55 586 55 624 55 c 256,40,41
EndSplineSet
EndChar

StartChar: quotesingle.guru
Encoding: 39 39 7
Width: 326
Flags: W
LayerCount: 2
Fore
SplineSet
132 471 m 1,0,-1
 107 729 l 1,1,-1
 218 729 l 1,2,-1
 193 471 l 1,3,-1
 132 471 l 1,0,-1
EndSplineSet
EndChar

StartChar: parenleft.guru
Encoding: 40 40 8
Width: 354
Flags: W
LayerCount: 2
Fore
SplineSet
213 -165 m 1,0,1
 138 -62 138 -62 103 68.5 c 128,-1,2
 68 199 68 199 68 337 c 0,3,4
 68 477 68 477 102.5 603.5 c 128,-1,5
 137 730 137 730 213 832 c 1,6,-1
 294 832 l 1,7,8
 249 762 249 762 217.5 681.5 c 128,-1,9
 186 601 186 601 169.5 514 c 128,-1,10
 153 427 153 427 153 336 c 0,11,12
 153 248 153 248 169 160 c 128,-1,13
 185 72 185 72 216.5 -10 c 128,-1,14
 248 -92 248 -92 295 -165 c 1,15,-1
 213 -165 l 1,0,1
EndSplineSet
EndChar

StartChar: parenright.guru
Encoding: 41 41 9
Width: 354
Flags: W
LayerCount: 2
Fore
SplineSet
60 -165 m 1,0,1
 105 -94 105 -94 136.5 -13 c 128,-1,2
 168 68 168 68 184 155 c 128,-1,3
 200 242 200 242 200 330 c 0,4,5
 200 419 200 419 184 506.5 c 128,-1,6
 168 594 168 594 137 676.5 c 128,-1,7
 106 759 106 759 59 832 c 1,8,-1
 141 832 l 1,9,10
 216 729 216 729 251 598 c 128,-1,11
 286 467 286 467 286 329 c 0,12,13
 286 190 286 190 251 63 c 128,-1,14
 216 -64 216 -64 141 -165 c 1,15,-1
 60 -165 l 1,0,1
EndSplineSet
EndChar

StartChar: asterisk.guru
Encoding: 42 42 10
Width: 607
Flags: W
LayerCount: 2
Fore
SplineSet
134 340 m 1,0,-1
 252 499 l 1,1,-1
 69 513 l 1,2,-1
 83 607 l 1,3,-1
 274 553 l 1,4,-1
 253 745 l 1,5,-1
 353 745 l 1,6,-1
 332 553 l 1,7,-1
 526 607 l 1,8,-1
 539 513 l 1,9,-1
 354 499 l 1,10,-1
 474 340 l 1,11,-1
 387 293 l 1,12,-1
 301 468 l 1,13,-1
 224 293 l 1,14,-1
 134 340 l 1,0,-1
EndSplineSet
EndChar

StartChar: plus.guru
Encoding: 43 43 11
Width: 551
Flags: W
LayerCount: 2
Fore
SplineSet
239 286 m 1,0,-1
 50 286 l 1,1,-1
 50 359 l 1,2,-1
 239 359 l 1,3,-1
 239 548 l 1,4,-1
 312 548 l 1,5,-1
 312 359 l 1,6,-1
 501 359 l 1,7,-1
 501 286 l 1,8,-1
 312 286 l 1,9,-1
 312 97 l 1,10,-1
 239 97 l 1,11,-1
 239 286 l 1,0,-1
EndSplineSet
EndChar

StartChar: comma.guru
Encoding: 44 44 12
Width: 268
Flags: W
LayerCount: 2
Fore
SplineSet
46 -129 m 1,0,1
 56 -89 56 -89 65.5 -45.5 c 128,-1,2
 75 -2 75 -2 82.5 40 c 128,-1,3
 90 82 90 82 95 116 c 1,4,-1
 192 116 l 1,5,-1
 199 105 l 1,6,7
 190 70 190 70 176 29.5 c 128,-1,8
 162 -11 162 -11 146 -51.5 c 128,-1,9
 130 -92 130 -92 113 -129 c 1,10,-1
 46 -129 l 1,0,1
EndSplineSet
EndChar

StartChar: hyphen.guru
Encoding: 45 45 13
Width: 340
Flags: W
LayerCount: 2
Fore
SplineSet
49 338 m 1,0,-1
 291 338 l 1,1,-1
 291 256 l 1,2,-1
 49 256 l 1,3,-1
 49 338 l 1,0,-1
EndSplineSet
EndChar

StartChar: period.guru
Encoding: 46 46 14
Width: 268
Flags: W
LayerCount: 2
Fore
SplineSet
72 54 m 0,0,1
 72 91 72 91 90 106 c 128,-1,2
 108 121 108 121 133 121 c 0,3,4
 159 121 159 121 177.5 106 c 128,-1,5
 196 91 196 91 196 54 c 0,6,7
 196 18 196 18 177.5 2 c 128,-1,8
 159 -14 159 -14 133 -14 c 0,9,10
 108 -14 108 -14 90 2 c 128,-1,11
 72 18 72 18 72 54 c 0,0,1
EndSplineSet
EndChar

StartChar: slash.guru
Encoding: 47 47 15
Width: 429
Flags: W
LayerCount: 2
Fore
SplineSet
305 833 m 1,0,-1
 387 833 l 1,1,-1
 125 -166 l 1,2,-1
 42 -166 l 1,3,-1
 305 833 l 1,0,-1
EndSplineSet
EndChar

StartChar: zero.guru
Encoding: 48 48 16
Width: 551
Flags: W
LayerCount: 2
Fore
SplineSet
275 -10 m 0,0,1
 160 -10 160 -10 104 87.5 c 128,-1,2
 48 185 48 185 48 358 c 0,3,4
 48 474 48 474 70.5 556 c 128,-1,5
 93 638 93 638 143 681.5 c 128,-1,6
 193 725 193 725 275 725 c 0,7,8
 391 725 391 725 447.5 628.5 c 128,-1,9
 504 532 504 532 504 358 c 0,10,11
 504 271 504 271 491.5 203 c 128,-1,12
 479 135 479 135 452 87.5 c 128,-1,13
 425 40 425 40 381 15 c 128,-1,14
 337 -10 337 -10 275 -10 c 0,0,1
275 66 m 256,15,16
 350 66 350 66 382 138 c 128,-1,17
 414 210 414 210 414 358 c 0,18,19
 414 504 414 504 382 576.5 c 128,-1,20
 350 649 350 649 275 649 c 256,21,22
 200 649 200 649 169 576.5 c 128,-1,23
 138 504 138 504 138 358 c 256,24,25
 138 212 138 212 169 139 c 128,-1,26
 200 66 200 66 275 66 c 256,15,16
EndSplineSet
EndChar

StartChar: one.guru
Encoding: 49 49 17
Width: 551
Flags: W
LayerCount: 2
Fore
SplineSet
261 0 m 1,0,-1
 261 446 l 2,1,2
 261 474 261 474 262 506.5 c 128,-1,3
 263 539 263 539 264 569.5 c 128,-1,4
 265 600 265 600 265 622 c 1,5,6
 249 605 249 605 237.5 594.5 c 128,-1,7
 226 584 226 584 206 567 c 2,8,-1
 134 508 l 1,9,-1
 87 568 l 1,10,-1
 274 714 l 1,11,-1
 347 714 l 1,12,-1
 347 0 l 1,13,-1
 261 0 l 1,0,-1
EndSplineSet
EndChar

StartChar: two.guru
Encoding: 50 50 18
Width: 551
Flags: W
LayerCount: 2
Fore
SplineSet
47 76 m 1,0,-1
 218 262 l 2,1,2
 267 315 267 315 301.5 357 c 128,-1,3
 336 399 336 399 355 440 c 128,-1,4
 374 481 374 481 374 530 c 0,5,6
 374 587 374 587 342 618 c 128,-1,7
 310 649 310 649 259 649 c 0,8,9
 213 649 213 649 175.5 630 c 128,-1,10
 138 611 138 611 104 582 c 1,11,-1
 54 640 l 1,12,13
 80 664 80 664 111.5 683 c 128,-1,14
 143 702 143 702 180.5 713 c 128,-1,15
 218 724 218 724 260 724 c 0,16,17
 323 724 323 724 368.5 701 c 128,-1,18
 414 678 414 678 439 635.5 c 128,-1,19
 464 593 464 593 464 533 c 0,20,21
 464 478 464 478 442 429 c 128,-1,22
 420 380 420 380 381.5 332 c 128,-1,23
 343 284 343 284 293 231 c 2,24,-1
 156 85 l 1,25,-1
 156 81 l 1,26,-1
 492 81 l 1,27,-1
 492 0 l 1,28,-1
 47 0 l 1,29,-1
 47 76 l 1,0,-1
EndSplineSet
EndChar

StartChar: three.guru
Encoding: 51 51 19
Width: 551
Flags: W
LayerCount: 2
Fore
SplineSet
229 -10 m 0,0,1
 176 -10 176 -10 128.5 -1.5 c 128,-1,2
 81 7 81 7 40 29 c 1,3,-1
 40 112 l 1,4,5
 83 90 83 90 132 77.5 c 128,-1,6
 181 65 181 65 227 65 c 0,7,8
 317 65 317 65 358.5 102.5 c 128,-1,9
 400 140 400 140 400 206 c 0,10,11
 400 250 400 250 377.5 278 c 128,-1,12
 355 306 355 306 313.5 319 c 128,-1,13
 272 332 272 332 214 332 c 2,14,-1
 149 332 l 1,15,-1
 149 406 l 1,16,-1
 214 406 l 2,17,18
 267 406 267 406 303.5 423 c 128,-1,19
 340 440 340 440 359 470.5 c 128,-1,20
 378 501 378 501 378 541 c 0,21,22
 378 575 378 575 362.5 599 c 128,-1,23
 347 623 347 623 320 636 c 128,-1,24
 293 649 293 649 256 649 c 0,25,26
 204 649 204 649 164 632.5 c 128,-1,27
 124 616 124 616 88 590 c 1,28,-1
 43 651 l 1,29,30
 80 681 80 681 134 702.5 c 128,-1,31
 188 724 188 724 256 724 c 0,32,33
 326 724 326 724 373.5 701 c 128,-1,34
 421 678 421 678 445 638.5 c 128,-1,35
 469 599 469 599 469 547 c 0,36,37
 469 499 469 499 449.5 463.5 c 128,-1,38
 430 428 430 428 395.5 406 c 128,-1,39
 361 384 361 384 315 376 c 1,40,-1
 315 373 l 1,41,42
 401 363 401 363 446 318.5 c 128,-1,43
 491 274 491 274 491 203 c 0,44,45
 491 141 491 141 463 92.5 c 128,-1,46
 435 44 435 44 377 17 c 128,-1,47
 319 -10 319 -10 229 -10 c 0,0,1
EndSplineSet
EndChar

StartChar: four.guru
Encoding: 52 52 20
Width: 551
Flags: W
LayerCount: 2
Fore
SplineSet
341 160 m 1,0,-1
 11 160 l 1,1,-1
 11 238 l 1,2,-1
 335 718 l 1,3,-1
 427 718 l 1,4,-1
 427 241 l 1,5,-1
 531 241 l 1,6,-1
 531 160 l 1,7,-1
 427 160 l 1,8,-1
 427 0 l 1,9,-1
 341 0 l 1,10,-1
 341 160 l 1,0,-1
341 241 m 1,11,-1
 341 415 l 2,12,13
 341 452 341 452 342.5 492.5 c 128,-1,14
 344 533 344 533 345.5 568.5 c 128,-1,15
 347 604 347 604 347 626 c 1,16,-1
 343 626 l 1,17,18
 336 607 336 607 323 581 c 128,-1,19
 310 555 310 555 299 538 c 2,20,-1
 98 241 l 1,21,-1
 341 241 l 1,11,-1
EndSplineSet
EndChar

StartChar: five.guru
Encoding: 53 53 21
Width: 551
Flags: W
LayerCount: 2
Fore
SplineSet
238 -10 m 0,0,1
 188 -10 188 -10 142 -0.5 c 128,-1,2
 96 9 96 9 64 29 c 1,3,-1
 64 113 l 1,4,5
 86 98 86 98 116.5 87.5 c 128,-1,6
 147 77 147 77 180 71.5 c 128,-1,7
 213 66 213 66 240 66 c 0,8,9
 317 66 317 66 360.5 103 c 128,-1,10
 404 140 404 140 404 219 c 0,11,12
 404 290 404 290 361 326.5 c 128,-1,13
 318 363 318 363 236 363 c 0,14,15
 210 363 210 363 176.5 358.5 c 128,-1,16
 143 354 143 354 123 350 c 1,17,-1
 79 378 l 1,18,-1
 106 714 l 1,19,-1
 443 714 l 1,20,-1
 443 633 l 1,21,-1
 183 633 l 1,22,-1
 164 428 l 1,23,24
 180 432 180 432 207.5 435 c 128,-1,25
 235 438 235 438 266 438 c 0,26,27
 331 438 331 438 382.5 414.5 c 128,-1,28
 434 391 434 391 464.5 344.5 c 128,-1,29
 495 298 495 298 495 229 c 0,30,31
 495 117 495 117 429 53.5 c 128,-1,32
 363 -10 363 -10 238 -10 c 0,0,1
EndSplineSet
EndChar

StartChar: six.guru
Encoding: 54 54 22
Width: 551
Flags: W
LayerCount: 2
Fore
SplineSet
290 -10 m 0,0,1
 225 -10 225 -10 172 24 c 128,-1,2
 119 58 119 58 88 128 c 128,-1,3
 57 198 57 198 57 305 c 0,4,5
 57 367 57 367 64.5 427 c 128,-1,6
 72 487 72 487 92 540.5 c 128,-1,7
 112 594 112 594 147 635.5 c 128,-1,8
 182 677 182 677 236.5 700.5 c 128,-1,9
 291 724 291 724 369 724 c 0,10,11
 388 724 388 724 412.5 722 c 128,-1,12
 437 720 437 720 453 715 c 1,13,-1
 453 639 l 1,14,15
 436 645 436 645 414.5 648 c 128,-1,16
 393 651 393 651 372 651 c 0,17,18
 306 651 306 651 263.5 628 c 128,-1,19
 221 605 221 605 196.5 565.5 c 128,-1,20
 172 526 172 526 161 474 c 128,-1,21
 150 422 150 422 148 364 c 1,22,-1
 154 364 l 1,23,24
 174 399 174 399 210 423 c 128,-1,25
 246 447 246 447 304 447 c 0,26,27
 366 447 366 447 411.5 421.5 c 128,-1,28
 457 396 457 396 482 347.5 c 128,-1,29
 507 299 507 299 507 230 c 0,30,31
 507 156 507 156 480.5 102 c 128,-1,32
 454 48 454 48 405.5 19 c 128,-1,33
 357 -10 357 -10 290 -10 c 0,0,1
289 65 m 0,34,35
 348 65 348 65 384.5 105 c 128,-1,36
 421 145 421 145 421 230 c 0,37,38
 421 298 421 298 389 337.5 c 128,-1,39
 357 377 357 377 292 377 c 0,40,41
 248 377 248 377 215 357.5 c 128,-1,42
 182 338 182 338 164 308.5 c 128,-1,43
 146 279 146 279 146 247 c 0,44,45
 146 204 146 204 162 162 c 128,-1,46
 178 120 178 120 209.5 92.5 c 128,-1,47
 241 65 241 65 289 65 c 0,34,35
EndSplineSet
EndChar

StartChar: seven.guru
Encoding: 55 55 23
Width: 551
Flags: W
LayerCount: 2
Fore
SplineSet
412 633 m 1,0,-1
 44 633 l 1,1,-1
 44 714 l 1,2,-1
 503 714 l 1,3,-1
 503 643 l 1,4,-1
 232 0 l 1,5,-1
 137 0 l 1,6,-1
 412 633 l 1,0,-1
EndSplineSet
EndChar

StartChar: eight.guru
Encoding: 56 56 24
Width: 551
Flags: W
LayerCount: 2
Fore
SplineSet
276 -10 m 0,0,1
 169 -10 169 -10 110.5 41.5 c 128,-1,2
 52 93 52 93 52 182 c 0,3,4
 52 231 52 231 70.5 267 c 128,-1,5
 89 303 89 303 120.5 329.5 c 128,-1,6
 152 356 152 356 190 374 c 1,7,8
 158 395 158 395 132 420 c 128,-1,9
 106 445 106 445 90.5 478 c 128,-1,10
 75 511 75 511 75 554 c 0,11,12
 75 611 75 611 103 649 c 128,-1,13
 131 687 131 687 177 706 c 128,-1,14
 223 725 223 725 276 725 c 0,15,16
 331 725 331 725 376.5 706 c 128,-1,17
 422 687 422 687 449.5 649 c 128,-1,18
 477 611 477 611 477 553 c 0,19,20
 477 510 477 510 460 477.5 c 128,-1,21
 443 445 443 445 414.5 421 c 128,-1,22
 386 397 386 397 349 378 c 1,23,24
 387 358 387 358 421.5 331.5 c 128,-1,25
 456 305 456 305 478 269.5 c 128,-1,26
 500 234 500 234 500 186 c 0,27,28
 500 126 500 126 471.5 82 c 128,-1,29
 443 38 443 38 393 14 c 128,-1,30
 343 -10 343 -10 276 -10 c 0,0,1
274 64 m 0,31,32
 343 64 343 64 378 97 c 128,-1,33
 413 130 413 130 413 185 c 0,34,35
 413 233 413 233 376.5 268.5 c 128,-1,36
 340 304 340 304 263 340 c 1,37,38
 222 321 222 321 194.5 297.5 c 128,-1,39
 167 274 167 274 153 245.5 c 128,-1,40
 139 217 139 217 139 181 c 0,41,42
 139 129 139 129 171.5 96.5 c 128,-1,43
 204 64 204 64 274 64 c 0,31,32
277 414 m 1,44,45
 309 429 309 429 334.5 447 c 128,-1,46
 360 465 360 465 375 490 c 128,-1,47
 390 515 390 515 390 550 c 0,48,49
 390 600 390 600 359.5 625.5 c 128,-1,50
 329 651 329 651 275 651 c 0,51,52
 241 651 241 651 215.5 639.5 c 128,-1,53
 190 628 190 628 176 605.5 c 128,-1,54
 162 583 162 583 162 550 c 0,55,56
 162 514 162 514 177 489.5 c 128,-1,57
 192 465 192 465 218 447.5 c 128,-1,58
 244 430 244 430 277 414 c 1,44,45
EndSplineSet
EndChar

StartChar: nine.guru
Encoding: 57 57 25
Width: 551
Flags: W
LayerCount: 2
Fore
SplineSet
182 -10 m 0,0,1
 163 -10 163 -10 139 -7.5 c 128,-1,2
 115 -5 115 -5 98 -1 c 1,3,-1
 98 75 l 1,4,5
 115 69 115 69 136.5 66 c 128,-1,6
 158 63 158 63 179 63 c 0,7,8
 245 63 245 63 288 86 c 128,-1,9
 331 109 331 109 355 148.5 c 128,-1,10
 379 188 379 188 390 240 c 128,-1,11
 401 292 401 292 403 350 c 1,12,-1
 397 350 l 1,13,14
 384 327 384 327 363.5 308 c 128,-1,15
 343 289 343 289 314.5 278 c 128,-1,16
 286 267 286 267 247 267 c 0,17,18
 186 267 186 267 140 292.5 c 128,-1,19
 94 318 94 318 69 366.5 c 128,-1,20
 44 415 44 415 44 484 c 0,21,22
 44 559 44 559 70.5 612.5 c 128,-1,23
 97 666 97 666 146 695 c 128,-1,24
 195 724 195 724 261 724 c 256,25,26
 327 724 327 724 379.5 690 c 128,-1,27
 432 656 432 656 463 586 c 128,-1,28
 494 516 494 516 494 409 c 0,29,30
 494 348 494 348 486.5 287.5 c 128,-1,31
 479 227 479 227 459 173.5 c 128,-1,32
 439 120 439 120 404 78.5 c 128,-1,33
 369 37 369 37 314.5 13.5 c 128,-1,34
 260 -10 260 -10 182 -10 c 0,0,1
259 337 m 0,35,36
 303 337 303 337 336 356.5 c 128,-1,37
 369 376 369 376 387 406 c 128,-1,38
 405 436 405 436 405 467 c 0,39,40
 405 500 405 500 396 532 c 128,-1,41
 387 564 387 564 369 590.5 c 128,-1,42
 351 617 351 617 324.5 633 c 128,-1,43
 298 649 298 649 262 649 c 0,44,45
 204 649 204 649 167 609 c 128,-1,46
 130 569 130 569 130 484 c 0,47,48
 130 416 130 416 162.5 376.5 c 128,-1,49
 195 337 195 337 259 337 c 0,35,36
EndSplineSet
EndChar

StartChar: colon.guru
Encoding: 58 58 26
Width: 294
Flags: W
LayerCount: 2
Fore
SplineSet
147 414 m 256,0,1
 121 414 121 414 103 430 c 128,-1,2
 85 446 85 446 85 482 c 0,3,4
 85 520 85 520 103 535 c 128,-1,5
 121 550 121 550 147 550 c 256,6,7
 173 550 173 550 191 535 c 128,-1,8
 209 520 209 520 209 482 c 0,9,10
 209 446 209 446 191 430 c 128,-1,11
 173 414 173 414 147 414 c 256,0,1
147 -14 m 256,12,13
 121 -14 121 -14 103 2 c 128,-1,14
 85 18 85 18 85 54 c 0,15,16
 85 92 85 92 103 107 c 128,-1,17
 121 122 121 122 147 122 c 256,18,19
 173 122 173 122 191 107 c 128,-1,20
 209 92 209 92 209 54 c 0,21,22
 209 18 209 18 191 2 c 128,-1,23
 173 -14 173 -14 147 -14 c 256,12,13
EndSplineSet
EndChar

StartChar: semicolon.guru
Encoding: 59 59 27
Width: 294
Flags: W
LayerCount: 2
Fore
SplineSet
190 116 m 1,0,-1
 197 105 l 1,1,2
 188 70 188 70 174 29.5 c 128,-1,3
 160 -11 160 -11 144 -51.5 c 128,-1,4
 128 -92 128 -92 111 -129 c 1,5,-1
 44 -129 l 1,6,7
 54 -89 54 -89 63.5 -45.5 c 128,-1,8
 73 -2 73 -2 80.5 40 c 128,-1,9
 88 82 88 82 93 116 c 1,10,-1
 190 116 l 1,0,-1
147 414 m 256,11,12
 121 414 121 414 103 430 c 128,-1,13
 85 446 85 446 85 482 c 0,14,15
 85 520 85 520 103 535 c 128,-1,16
 121 550 121 550 147 550 c 256,17,18
 173 550 173 550 191 535 c 128,-1,19
 209 520 209 520 209 482 c 0,20,21
 209 446 209 446 191 430 c 128,-1,22
 173 414 173 414 147 414 c 256,11,12
EndSplineSet
EndChar

StartChar: less.guru
Encoding: 60 60 28
Width: 551
Flags: W
LayerCount: 2
Fore
SplineSet
50 284 m 1,0,-1
 50 333 l 1,1,-1
 501 568 l 1,2,-1
 501 490 l 1,3,-1
 142 313 l 1,4,-1
 501 155 l 1,5,-1
 501 77 l 1,6,-1
 50 284 l 1,0,-1
EndSplineSet
EndChar

StartChar: equal.guru
Encoding: 61 61 29
Width: 551
Flags: W
LayerCount: 2
Fore
SplineSet
50 459 m 1,0,-1
 501 459 l 1,1,-1
 501 386 l 1,2,-1
 50 386 l 1,3,-1
 50 459 l 1,0,-1
50 259 m 1,4,-1
 501 259 l 1,5,-1
 501 186 l 1,6,-1
 50 186 l 1,7,-1
 50 259 l 1,4,-1
EndSplineSet
EndChar

StartChar: greater.guru
Encoding: 62 62 30
Width: 551
Flags: W
LayerCount: 2
Fore
SplineSet
50 155 m 1,0,-1
 409 313 l 1,1,-1
 50 490 l 1,2,-1
 50 568 l 1,3,-1
 501 333 l 1,4,-1
 501 284 l 1,5,-1
 50 77 l 1,6,-1
 50 155 l 1,0,-1
EndSplineSet
EndChar

StartChar: question.guru
Encoding: 63 63 31
Width: 518
Flags: W
LayerCount: 2
Fore
SplineSet
190 202 m 1,0,-1
 190 220 l 2,1,2
 190 258 190 258 197 285.5 c 128,-1,3
 204 313 204 313 222.5 338 c 128,-1,4
 241 363 241 363 273 390 c 0,5,6
 304 417 304 417 323.5 438 c 128,-1,7
 343 459 343 459 352 483 c 128,-1,8
 361 507 361 507 361 541 c 0,9,10
 361 588 361 588 332.5 617 c 128,-1,11
 304 646 304 646 250 646 c 0,12,13
 210 646 210 646 173 633.5 c 128,-1,14
 136 621 136 621 102 604 c 1,15,-1
 71 675 l 1,16,17
 111 695 111 695 157 709.5 c 128,-1,18
 203 724 203 724 250 724 c 0,19,20
 341 724 341 724 393.5 676 c 128,-1,21
 446 628 446 628 446 542 c 0,22,23
 446 499 446 499 434.5 467 c 128,-1,24
 423 435 423 435 399.5 408 c 128,-1,25
 376 381 376 381 341 350 c 0,26,27
 308 321 308 321 290 300.5 c 128,-1,28
 272 280 272 280 265 260 c 128,-1,29
 258 240 258 240 258 211 c 2,30,-1
 258 202 l 1,31,-1
 190 202 l 1,0,-1
167 54 m 0,32,33
 167 92 167 92 185 107 c 128,-1,34
 203 122 203 122 229 122 c 256,35,36
 255 122 255 122 273 107 c 128,-1,37
 291 92 291 92 291 54 c 0,38,39
 291 18 291 18 273 2 c 128,-1,40
 255 -14 255 -14 229 -14 c 256,41,42
 203 -14 203 -14 185 2 c 128,-1,43
 167 18 167 18 167 54 c 0,32,33
EndSplineSet
EndChar

StartChar: bracketleft.guru
Encoding: 91 91 32
Width: 356
Flags: W
LayerCount: 2
Fore
SplineSet
108 832 m 1,0,-1
 302 832 l 1,1,-1
 302 762 l 1,2,-1
 188 762 l 1,3,-1
 188 -96 l 1,4,-1
 302 -96 l 1,5,-1
 302 -166 l 1,6,-1
 108 -166 l 1,7,-1
 108 832 l 1,0,-1
EndSplineSet
EndChar

StartChar: backslash.guru
Encoding: 92 92 33
Width: 429
Flags: W
LayerCount: 2
Fore
SplineSet
42 832 m 1,0,-1
 124 832 l 1,1,-1
 387 -166 l 1,2,-1
 305 -166 l 1,3,-1
 42 832 l 1,0,-1
EndSplineSet
EndChar

StartChar: bracketright.guru
Encoding: 93 93 34
Width: 356
Flags: W
LayerCount: 2
Fore
SplineSet
54 -96 m 1,0,-1
 167 -96 l 1,1,-1
 167 762 l 1,2,-1
 54 762 l 1,3,-1
 54 832 l 1,4,-1
 248 832 l 1,5,-1
 248 -166 l 1,6,-1
 54 -166 l 1,7,-1
 54 -96 l 1,0,-1
EndSplineSet
EndChar

StartChar: asciicircum.guru
Encoding: 94 94 35
Width: 551
Flags: W
LayerCount: 2
Fore
SplineSet
253 719 m 1,0,-1
 303 719 l 1,1,-1
 521 268 l 1,2,-1
 443 268 l 1,3,-1
 278 627 l 1,4,-1
 108 268 l 1,5,-1
 29 268 l 1,6,-1
 253 719 l 1,0,-1
EndSplineSet
EndChar

StartChar: underscore.guru
Encoding: 95 95 36
Width: 411
Flags: W
LayerCount: 2
Fore
SplineSet
-2 -90 m 1,0,-1
 413 -90 l 1,1,-1
 413 -158 l 1,2,-1
 -2 -158 l 1,3,-1
 -2 -90 l 1,0,-1
EndSplineSet
EndChar

StartChar: braceleft.guru
Encoding: 123 123 37
Width: 391
Flags: W
LayerCount: 2
Fore
SplineSet
44 370 m 1,0,1
 84 370 84 370 111.5 379 c 128,-1,2
 139 388 139 388 153 408 c 128,-1,3
 167 428 167 428 167 460 c 2,4,-1
 167 691 l 2,5,6
 167 741 167 741 189 771.5 c 128,-1,7
 211 802 211 802 249.5 816.5 c 128,-1,8
 288 831 288 831 337 832 c 1,9,-1
 337 760 l 1,10,11
 310 760 310 760 290 753.5 c 128,-1,12
 270 747 270 747 259 731.5 c 128,-1,13
 248 716 248 716 248 685 c 2,14,-1
 248 455 l 2,15,16
 248 405 248 405 221 375.5 c 128,-1,17
 194 346 194 346 142 335 c 1,18,-1
 142 330 l 1,19,20
 194 320 194 320 221 291 c 128,-1,21
 248 262 248 262 248 211 c 2,22,-1
 248 -18 l 2,23,24
 248 -49 248 -49 259 -65 c 128,-1,25
 270 -81 270 -81 290 -87 c 128,-1,26
 310 -93 310 -93 337 -94 c 1,27,-1
 337 -166 l 1,28,29
 288 -165 288 -165 249.5 -150.5 c 128,-1,30
 211 -136 211 -136 189 -105.5 c 128,-1,31
 167 -75 167 -75 167 -25 c 2,32,-1
 167 206 l 2,33,34
 167 239 167 239 153 258.5 c 128,-1,35
 139 278 139 278 111.5 287 c 128,-1,36
 84 296 84 296 44 296 c 1,37,-1
 44 370 l 1,0,1
EndSplineSet
EndChar

StartChar: bar.guru
Encoding: 124 124 38
Width: 540
Flags: W
LayerCount: 2
Fore
SplineSet
234 832 m 1,0,-1
 306 832 l 1,1,-1
 306 -166 l 1,2,-1
 234 -166 l 1,3,-1
 234 832 l 1,0,-1
EndSplineSet
EndChar

StartChar: braceright.guru
Encoding: 125 125 39
Width: 376
Flags: W
LayerCount: 2
Fore
SplineSet
347 296 m 1,0,1
 307 296 307 296 280 287 c 128,-1,2
 253 278 253 278 239 258.5 c 128,-1,3
 225 239 225 239 225 206 c 2,4,-1
 225 -25 l 2,5,6
 225 -75 225 -75 202.5 -105.5 c 128,-1,7
 180 -136 180 -136 141.5 -150.5 c 128,-1,8
 103 -165 103 -165 54 -166 c 1,9,-1
 54 -94 l 1,10,11
 82 -93 82 -93 102 -87 c 128,-1,12
 122 -81 122 -81 132.5 -65 c 128,-1,13
 143 -49 143 -49 143 -18 c 2,14,-1
 143 211 l 2,15,16
 143 262 143 262 170 291 c 128,-1,17
 197 320 197 320 249 330 c 1,18,-1
 249 335 l 1,19,20
 197 346 197 346 170 375.5 c 128,-1,21
 143 405 143 405 143 455 c 2,22,-1
 143 685 l 2,23,24
 143 716 143 716 132.5 731.5 c 128,-1,25
 122 747 122 747 102 753.5 c 128,-1,26
 82 760 82 760 54 760 c 1,27,-1
 54 832 l 1,28,29
 103 831 103 831 141.5 816.5 c 128,-1,30
 180 802 180 802 202.5 771.5 c 128,-1,31
 225 741 225 741 225 691 c 2,32,-1
 225 460 l 2,33,34
 225 428 225 428 239 408 c 128,-1,35
 253 388 253 388 280 379 c 128,-1,36
 307 370 307 370 347 370 c 1,37,-1
 347 296 l 1,0,1
EndSplineSet
EndChar

StartChar: asciitilde.guru
Encoding: 126 126 40
Width: 551
Flags: W
LayerCount: 2
Fore
SplineSet
50 335 m 1,0,1
 75 362 75 362 105 375 c 128,-1,2
 135 388 135 388 171 388 c 0,3,4
 190 388 190 388 206 385.5 c 128,-1,5
 222 383 222 383 242 376.5 c 128,-1,6
 262 370 262 370 292 357 c 0,7,8
 329 341 329 341 349 335.5 c 128,-1,9
 369 330 369 330 390 330 c 0,10,11
 418 330 418 330 448 347 c 128,-1,12
 478 364 478 364 501 389 c 1,13,-1
 501 310 l 1,14,15
 477 284 477 284 446.5 270.5 c 128,-1,16
 416 257 416 257 380 257 c 0,17,18
 361 257 361 257 345 259.5 c 128,-1,19
 329 262 329 262 309.5 268.5 c 128,-1,20
 290 275 290 275 259 288 c 0,21,22
 223 304 223 304 203.5 309.5 c 128,-1,23
 184 315 184 315 161 315 c 0,24,25
 134 315 134 315 104 298 c 128,-1,26
 74 281 74 281 50 256 c 1,27,-1
 50 335 l 1,0,1
EndSplineSet
EndChar

StartChar: uni00AD.guru
Encoding: 173 173 42
Width: 648
Flags: W
AnchorPoint: "Anchor-2" 454 0 basechar 0
AnchorPoint: "Anchor-1" 324 0 basechar 0
AnchorPoint: "Anchor-0" 364 622 basechar 0
LayerCount: 2
Fore
SplineSet
240 0 m 1,0,1
 181 0 181 0 142 19 c 128,-1,2
 103 38 103 38 80.5 68 c 128,-1,3
 58 98 58 98 48.5 131.5 c 128,-1,4
 39 165 39 165 39 194 c 0,5,6
 39 245 39 245 65 292.5 c 128,-1,7
 91 340 91 340 145.5 378 c 128,-1,8
 200 416 200 416 284 438 c 1,9,-1
 284 551 l 1,10,-1
 -7 551 l 1,11,-1
 -7 622 l 1,12,-1
 655 622 l 1,13,-1
 655 551 l 1,14,-1
 364 551 l 1,15,-1
 364 438 l 1,16,17
 449 416 449 416 503 378 c 128,-1,18
 557 340 557 340 583 292.5 c 128,-1,19
 609 245 609 245 609 194 c 0,20,21
 609 165 609 165 600 131.5 c 128,-1,22
 591 98 591 98 568.5 68 c 128,-1,23
 546 38 546 38 507 19 c 128,-1,24
 468 0 468 0 409 0 c 1,25,-1
 404 73 l 1,26,27
 471 73 471 73 500 107 c 128,-1,28
 529 141 529 141 529 195 c 0,29,30
 529 257 529 257 477 305 c 128,-1,31
 425 353 425 353 324 378 c 1,32,33
 223 353 223 353 171 305 c 128,-1,34
 119 257 119 257 119 195 c 0,35,36
 119 141 119 141 148.5 107 c 128,-1,37
 178 73 178 73 245 73 c 1,38,-1
 240 0 l 1,0,1
EndSplineSet
EndChar

StartChar: divide.guru
Encoding: 247 247 43
Width: 551
Flags: W
LayerCount: 2
Fore
SplineSet
50 359 m 1,0,-1
 501 359 l 1,1,-1
 501 286 l 1,2,-1
 50 286 l 1,3,-1
 50 359 l 1,0,-1
275 95 m 256,4,5
 252 95 252 95 235.5 109.5 c 128,-1,6
 219 124 219 124 219 156 c 0,7,8
 219 190 219 190 235.5 203.5 c 128,-1,9
 252 217 252 217 275 217 c 256,10,11
 298 217 298 217 314.5 203.5 c 128,-1,12
 331 190 331 190 331 156 c 0,13,14
 331 124 331 124 314.5 109.5 c 128,-1,15
 298 95 298 95 275 95 c 256,4,5
275 436 m 256,16,17
 252 436 252 436 235.5 450.5 c 128,-1,18
 219 465 219 465 219 497 c 0,19,20
 219 531 219 531 235.5 544.5 c 128,-1,21
 252 558 252 558 275 558 c 256,22,23
 298 558 298 558 314.5 544.5 c 128,-1,24
 331 531 331 531 331 497 c 0,25,26
 331 465 331 465 314.5 450.5 c 128,-1,27
 298 436 298 436 275 436 c 256,16,17
EndSplineSet
EndChar

StartChar: guillemotleft
Encoding: 171 171 44
Width: 542
Flags: W
AnchorPoint: "Anchor-2" 343 0 basechar 0
LayerCount: 2
Fore
SplineSet
250 0 m 0,0,1
 183 0 183 0 122.5 18 c 128,-1,2
 62 36 62 36 13 64 c 1,3,-1
 45 137 l 1,4,5
 93 106 93 106 143 89.5 c 128,-1,6
 193 73 193 73 248 73 c 0,7,8
 292 73 292 73 327.5 84.5 c 128,-1,9
 363 96 363 96 384.5 121.5 c 128,-1,10
 406 147 406 147 406 189 c 0,11,12
 406 222 406 222 392 247 c 128,-1,13
 378 272 378 272 353 291.5 c 128,-1,14
 328 311 328 311 294 324 c 1,15,16
 272 320 272 320 242 316 c 128,-1,17
 212 312 212 312 181 312 c 0,18,19
 135 312 135 312 111 320.5 c 128,-1,20
 87 329 87 329 78 342 c 128,-1,21
 69 355 69 355 69 369 c 0,22,23
 69 398 69 398 94.5 408.5 c 128,-1,24
 120 419 120 419 157 419 c 0,25,26
 197 419 197 419 232.5 412.5 c 128,-1,27
 268 406 268 406 302 393 c 1,28,29
 337 407 337 407 359.5 436 c 128,-1,30
 382 465 382 465 382 512 c 0,31,32
 382 526 382 526 379.5 542.5 c 128,-1,33
 377 559 377 559 370 578 c 1,34,-1
 414 551 l 1,35,-1
 -7 551 l 1,36,-1
 -7 622 l 1,37,-1
 549 622 l 1,38,-1
 549 551 l 1,39,-1
 424 551 l 1,40,-1
 455 576 l 1,41,42
 459 560 459 560 461 542.5 c 128,-1,43
 463 525 463 525 463 511 c 0,44,45
 463 449 463 449 438.5 416.5 c 128,-1,46
 414 384 414 384 377 362 c 1,47,48
 410 344 410 344 435 320 c 128,-1,49
 460 296 460 296 474 264 c 128,-1,50
 488 232 488 232 488 188 c 0,51,52
 488 127 488 127 457.5 85 c 128,-1,53
 427 43 427 43 373.5 21.5 c 128,-1,54
 320 0 320 0 250 0 c 0,0,1
EndSplineSet
EndChar

StartChar: A
Encoding: 65 65 45
Width: 742
Flags: W
AnchorPoint: "Anchor-1" 294 0 basechar 0
LayerCount: 2
Fore
SplineSet
572 0 m 1,0,-1
 572 373 l 1,1,-1
 584 356 l 1,2,3
 549 348 549 348 518 336 c 128,-1,4
 487 324 487 324 459.5 308 c 128,-1,5
 432 292 432 292 406 271 c 1,6,-1
 425 305 l 1,7,8
 425 248 425 248 416 203.5 c 128,-1,9
 407 159 407 159 388.5 133.5 c 128,-1,10
 370 108 370 108 341 108 c 0,11,12
 320 108 320 108 306 120.5 c 128,-1,13
 292 133 292 133 292 166 c 0,14,15
 292 204 292 204 310.5 246 c 128,-1,16
 329 288 329 288 356 317 c 1,17,18
 355 348 355 348 349.5 380 c 128,-1,19
 344 412 344 412 335.5 438.5 c 128,-1,20
 327 465 327 465 316 478 c 1,21,-1
 348 473 l 1,22,23
 315 463 315 463 281 447 c 128,-1,24
 247 431 247 431 219.5 413 c 128,-1,25
 192 395 192 395 175 379 c 1,26,-1
 189 422 l 1,27,28
 189 360 189 360 180.5 312.5 c 128,-1,29
 172 265 172 265 153.5 238.5 c 128,-1,30
 135 212 135 212 104 212 c 0,31,32
 83 212 83 212 69.5 224.5 c 128,-1,33
 56 237 56 237 56 271 c 0,34,35
 56 308 56 308 74 349.5 c 128,-1,36
 92 391 92 391 118 419 c 1,37,38
 115 482 115 482 101.5 516 c 128,-1,39
 88 550 88 550 77 558 c 1,40,-1
 120 551 l 1,41,-1
 -7 551 l 1,42,-1
 -7 622 l 1,43,-1
 144 622 l 1,44,45
 154 602 154 602 163.5 572 c 128,-1,46
 173 542 173 542 179.5 509 c 128,-1,47
 186 476 186 476 186 445 c 1,48,-1
 173 456 l 1,49,50
 185 471 185 471 216.5 490.5 c 128,-1,51
 248 510 248 510 290 527.5 c 128,-1,52
 332 545 332 545 374 554 c 1,53,54
 384 537 384 537 393 510.5 c 128,-1,55
 402 484 402 484 409 453.5 c 128,-1,56
 416 423 416 423 420 393 c 128,-1,57
 424 363 424 363 424 339 c 1,58,-1
 407 353 l 1,59,60
 425 368 425 368 452 383 c 128,-1,61
 479 398 479 398 513 411.5 c 128,-1,62
 547 425 547 425 584 433 c 1,63,-1
 572 405 l 1,64,-1
 572 622 l 1,65,-1
 749 622 l 1,66,-1
 749 551 l 1,67,-1
 653 551 l 1,68,-1
 653 0 l 1,69,-1
 572 0 l 1,0,-1
EndSplineSet
EndChar

StartChar: Aacute
Encoding: 193 193 46
Width: 564
Flags: W
LayerCount: 2
Fore
SplineSet
292 546 m 0,0,1
 361 546 361 546 410.5 516 c 128,-1,2
 460 486 460 486 486.5 431.5 c 128,-1,3
 513 377 513 377 513 304 c 2,4,-1
 513 251 l 1,5,-1
 146 251 l 1,6,7
 148 160 148 160 192.5 112.5 c 128,-1,8
 237 65 237 65 317 65 c 0,9,10
 368 65 368 65 407.5 74.5 c 128,-1,11
 447 84 447 84 489 102 c 1,12,-1
 489 25 l 1,13,14
 448 7 448 7 408 -1.5 c 128,-1,15
 368 -10 368 -10 313 -10 c 0,16,17
 237 -10 237 -10 178.5 21 c 128,-1,18
 120 52 120 52 87.5 113.5 c 128,-1,19
 55 175 55 175 55 264 c 0,20,21
 55 352 55 352 84.5 415 c 128,-1,22
 114 478 114 478 167.5 512 c 128,-1,23
 221 546 221 546 292 546 c 0,0,1
291 474 m 0,24,25
 228 474 228 474 191.5 433.5 c 128,-1,26
 155 393 155 393 148 321 c 1,27,-1
 421 321 l 1,28,29
 421 367 421 367 407 401 c 128,-1,30
 393 435 393 435 364.5 454.5 c 128,-1,31
 336 474 336 474 291 474 c 0,24,25
EndSplineSet
EndChar

StartChar: Acircumflex
Encoding: 194 194 48
Width: 344
Flags: W
LayerCount: 2
Fore
SplineSet
332 468 m 1,0,-1
 197 468 l 1,1,-1
 197 0 l 1,2,-1
 109 0 l 1,3,-1
 109 468 l 1,4,-1
 15 468 l 1,5,-1
 15 509 l 1,6,-1
 109 539 l 1,7,-1
 109 570 l 2,8,9
 109 639 109 639 129.5 682 c 128,-1,10
 150 725 150 725 189 745 c 128,-1,11
 228 765 228 765 283 765 c 0,12,13
 315 765 315 765 341.5 759.5 c 128,-1,14
 368 754 368 754 387 747 c 1,15,-1
 364 678 l 1,16,17
 348 683 348 683 327 688 c 128,-1,18
 306 693 306 693 284 693 c 0,19,20
 240 693 240 693 218.5 663.5 c 128,-1,21
 197 634 197 634 197 571 c 2,22,-1
 197 536 l 1,23,-1
 332 536 l 1,24,-1
 332 468 l 1,0,-1
EndSplineSet
EndChar

StartChar: Adieresis
Encoding: 196 196 49
Width: 618
Flags: W
LayerCount: 2
Fore
SplineSet
173 537 m 2,0,1
 173 518 173 518 171.5 498 c 128,-1,2
 170 478 170 478 168 462 c 1,3,-1
 174 462 l 1,4,5
 191 490 191 490 217 508 c 128,-1,6
 243 526 243 526 275 535.5 c 128,-1,7
 307 545 307 545 341 545 c 0,8,9
 406 545 406 545 449.5 524.5 c 128,-1,10
 493 504 493 504 515 461 c 128,-1,11
 537 418 537 418 537 349 c 2,12,-1
 537 0 l 1,13,-1
 450 0 l 1,14,-1
 450 343 l 2,15,16
 450 408 450 408 421 440 c 128,-1,17
 392 472 392 472 330 472 c 0,18,19
 270 472 270 472 236 449.5 c 128,-1,20
 202 427 202 427 187.5 383.5 c 128,-1,21
 173 340 173 340 173 277 c 2,22,-1
 173 0 l 1,23,-1
 85 0 l 1,24,-1
 85 760 l 1,25,-1
 173 760 l 1,26,-1
 173 537 l 2,0,1
EndSplineSet
EndChar

StartChar: Agrave
Encoding: 192 192 50
Width: 615
Flags: W
LayerCount: 2
Fore
SplineSet
275 -10 m 0,0,1
 175 -10 175 -10 115 59.5 c 128,-1,2
 55 129 55 129 55 267 c 256,3,4
 55 405 55 405 115.5 475.5 c 128,-1,5
 176 546 176 546 276 546 c 0,6,7
 318 546 318 546 349 535.5 c 128,-1,8
 380 525 380 525 403 507 c 128,-1,9
 426 489 426 489 442 467 c 1,10,-1
 448 467 l 1,11,12
 447 480 447 480 444.5 505.5 c 128,-1,13
 442 531 442 531 442 546 c 2,14,-1
 442 760 l 1,15,-1
 530 760 l 1,16,-1
 530 0 l 1,17,-1
 459 0 l 1,18,-1
 446 72 l 1,19,-1
 442 72 l 1,20,21
 426 49 426 49 403 30.5 c 128,-1,22
 380 12 380 12 348.5 1 c 128,-1,23
 317 -10 317 -10 275 -10 c 0,0,1
289 63 m 0,24,25
 374 63 374 63 408.5 109.5 c 128,-1,26
 443 156 443 156 443 250 c 2,27,-1
 443 266 l 2,28,29
 443 366 443 366 410 419.5 c 128,-1,30
 377 473 377 473 288 473 c 0,31,32
 217 473 217 473 181.5 416.5 c 128,-1,33
 146 360 146 360 146 265 c 0,34,35
 146 169 146 169 181.5 116 c 128,-1,36
 217 63 217 63 289 63 c 0,24,25
EndSplineSet
EndChar

StartChar: Aring
Encoding: 197 197 53
Width: 258
Flags: W
LayerCount: 2
Fore
SplineSet
173 536 m 1,0,-1
 173 0 l 1,1,-1
 85 0 l 1,2,-1
 85 536 l 1,3,-1
 173 536 l 1,0,-1
130 737 m 0,4,5
 150 737 150 737 165.5 723.5 c 128,-1,6
 181 710 181 710 181 681 c 0,7,8
 181 653 181 653 165.5 639 c 128,-1,9
 150 625 150 625 130 625 c 0,10,11
 108 625 108 625 93 639 c 128,-1,12
 78 653 78 653 78 681 c 0,13,14
 78 710 78 710 93 723.5 c 128,-1,15
 108 737 108 737 130 737 c 0,4,5
EndSplineSet
EndChar

StartChar: Atilde
Encoding: 195 195 54
Width: 615
Flags: W
LayerCount: 2
Fore
SplineSet
275 546 m 0,0,1
 328 546 328 546 370.5 526 c 128,-1,2
 413 506 413 506 443 465 c 1,3,-1
 448 465 l 1,4,-1
 460 536 l 1,5,-1
 530 536 l 1,6,-1
 530 -9 l 2,7,8
 530 -85 530 -85 504 -136.5 c 128,-1,9
 478 -188 478 -188 425 -214 c 128,-1,10
 372 -240 372 -240 290 -240 c 0,11,12
 232 -240 232 -240 183.5 -231.5 c 128,-1,13
 135 -223 135 -223 97 -206 c 1,14,-1
 97 -125 l 1,15,16
 135 -145 135 -145 186 -156 c 128,-1,17
 237 -167 237 -167 295 -167 c 0,18,19
 364 -167 364 -167 403.5 -126.5 c 128,-1,20
 443 -86 443 -86 443 -16 c 2,21,-1
 443 5 l 2,22,23
 443 17 443 17 444 39.5 c 128,-1,24
 445 62 445 62 446 71 c 1,25,-1
 442 71 l 1,26,27
 414 30 414 30 372.5 10 c 128,-1,28
 331 -10 331 -10 276 -10 c 0,29,30
 172 -10 172 -10 113.5 63 c 128,-1,31
 55 136 55 136 55 267 c 0,32,33
 55 395 55 395 113.5 470.5 c 128,-1,34
 172 546 172 546 275 546 c 0,0,1
287 472 m 0,35,36
 242 472 242 472 210.5 448 c 128,-1,37
 179 424 179 424 162.5 378 c 128,-1,38
 146 332 146 332 146 266 c 0,39,40
 146 167 146 167 182.5 114.5 c 128,-1,41
 219 62 219 62 289 62 c 0,42,43
 330 62 330 62 359 72.5 c 128,-1,44
 388 83 388 83 407 105.5 c 128,-1,45
 426 128 426 128 435 163 c 128,-1,46
 444 198 444 198 444 246 c 2,47,-1
 444 267 l 2,48,49
 444 340 444 340 427.5 385 c 128,-1,50
 411 430 411 430 376 451 c 128,-1,51
 341 472 341 472 287 472 c 0,35,36
EndSplineSet
EndChar

StartChar: AE
Encoding: 198 198 55
Width: 258
Flags: W
LayerCount: 2
Fore
SplineSet
22 -240 m 0,0,1
 -3 -240 -3 -240 -22 -236.5 c 128,-1,2
 -41 -233 -41 -233 -55 -228 c 1,3,-1
 -55 -157 l 1,4,5
 -40 -161 -40 -161 -24 -164 c 128,-1,6
 -8 -167 -8 -167 11 -167 c 0,7,8
 43 -167 43 -167 64 -149.5 c 128,-1,9
 85 -132 85 -132 85 -83 c 2,10,-1
 85 536 l 1,11,-1
 173 536 l 1,12,-1
 173 -80 l 2,13,14
 173 -130 173 -130 157 -166 c 128,-1,15
 141 -202 141 -202 108 -221 c 128,-1,16
 75 -240 75 -240 22 -240 c 0,0,1
78 681 m 0,17,18
 78 710 78 710 93 723.5 c 128,-1,19
 108 737 108 737 130 737 c 0,20,21
 150 737 150 737 165.5 723.5 c 128,-1,22
 181 710 181 710 181 681 c 0,23,24
 181 653 181 653 165.5 639 c 128,-1,25
 150 625 150 625 130 625 c 0,26,27
 108 625 108 625 93 639 c 128,-1,28
 78 653 78 653 78 681 c 0,17,18
EndSplineSet
EndChar

StartChar: B
Encoding: 66 66 56
Width: 650
Flags: W
LayerCount: 2
Fore
SplineSet
301 714 m 2,0,1
 435 714 435 714 503.5 674.5 c 128,-1,2
 572 635 572 635 572 537 c 0,3,4
 572 495 572 495 556.5 462.5 c 128,-1,5
 541 430 541 430 510.5 408.5 c 128,-1,6
 480 387 480 387 436 379 c 1,7,-1
 436 374 l 1,8,9
 481 367 481 367 517.5 348 c 128,-1,10
 554 329 554 329 575 294 c 128,-1,11
 596 259 596 259 596 203 c 0,12,13
 596 138 596 138 566 92.5 c 128,-1,14
 536 47 536 47 480.5 23.5 c 128,-1,15
 425 0 425 0 348 0 c 2,16,-1
 97 0 l 1,17,-1
 97 714 l 1,18,-1
 301 714 l 2,0,1
319 410 m 2,19,20
 411 410 411 410 445 439.5 c 128,-1,21
 479 469 479 469 479 527 c 0,22,23
 479 586 479 586 437.5 611.5 c 128,-1,24
 396 637 396 637 305 637 c 2,25,-1
 187 637 l 1,26,-1
 187 410 l 1,27,-1
 319 410 l 2,19,20
187 335 m 1,28,-1
 187 76 l 1,29,-1
 331 76 l 2,30,31
 426 76 426 76 463 113 c 128,-1,32
 500 150 500 150 500 210 c 0,33,34
 500 248 500 248 483.5 276 c 128,-1,35
 467 304 467 304 428.5 319.5 c 128,-1,36
 390 335 390 335 324 335 c 2,37,-1
 187 335 l 1,28,-1
EndSplineSet
EndChar

StartChar: C
Encoding: 67 67 57
Width: 632
Flags: W
LayerCount: 2
Fore
SplineSet
403 645 m 0,0,1
 346 645 346 645 300 625.5 c 128,-1,2
 254 606 254 606 222 568.5 c 128,-1,3
 190 531 190 531 173 477.5 c 128,-1,4
 156 424 156 424 156 357 c 0,5,6
 156 269 156 269 183.5 204 c 128,-1,7
 211 139 211 139 265.5 104 c 128,-1,8
 320 69 320 69 402 69 c 0,9,10
 449 69 449 69 491 77 c 128,-1,11
 533 85 533 85 573 97 c 1,12,-1
 573 19 l 1,13,14
 533 4 533 4 490.5 -3 c 128,-1,15
 448 -10 448 -10 389 -10 c 0,16,17
 280 -10 280 -10 207 35 c 128,-1,18
 134 80 134 80 97.5 163 c 128,-1,19
 61 246 61 246 61 358 c 0,20,21
 61 439 61 439 83.5 506 c 128,-1,22
 106 573 106 573 149.5 622 c 128,-1,23
 193 671 193 671 257 697.5 c 128,-1,24
 321 724 321 724 404 724 c 0,25,26
 459 724 459 724 510 713 c 128,-1,27
 561 702 561 702 601 682 c 1,28,-1
 565 606 l 1,29,30
 532 621 532 621 491.5 633 c 128,-1,31
 451 645 451 645 403 645 c 0,0,1
EndSplineSet
EndChar

StartChar: Ccedilla
Encoding: 199 199 60
Width: 534
Flags: W
LayerCount: 2
Fore
SplineSet
172 363 m 2,0,1
 172 347 172 347 170.5 321 c 128,-1,2
 169 295 169 295 168 276 c 1,3,-1
 172 276 l 1,4,5
 178 284 178 284 190 299 c 128,-1,6
 202 314 202 314 214.5 329.5 c 128,-1,7
 227 345 227 345 236 355 c 2,8,-1
 407 536 l 1,9,-1
 510 536 l 1,10,-1
 293 307 l 1,11,-1
 525 0 l 1,12,-1
 419 0 l 1,13,-1
 233 250 l 1,14,-1
 172 197 l 1,15,-1
 172 0 l 1,16,-1
 85 0 l 1,17,-1
 85 760 l 1,18,-1
 172 760 l 1,19,-1
 172 363 l 2,0,1
EndSplineSet
EndChar

StartChar: D
Encoding: 68 68 62
Width: 617
Flags: W
LayerCount: 2
Fore
SplineSet
368 0 m 0,0,1
 277 0 277 0 218 35.5 c 128,-1,2
 159 71 159 71 130 134 c 128,-1,3
 101 197 101 197 101 280 c 2,4,-1
 101 291 l 1,5,-1
 83 291 l 2,6,7
 55 291 55 291 43.5 302 c 128,-1,8
 32 313 32 313 32 329 c 0,9,10
 32 347 32 347 42.5 366.5 c 128,-1,11
 53 386 53 386 69.5 403.5 c 128,-1,12
 86 421 86 421 104.5 431.5 c 128,-1,13
 123 442 123 442 139 442 c 0,14,15
 163 442 163 442 172.5 425.5 c 128,-1,16
 182 409 182 409 182 387 c 2,17,-1
 182 362 l 1,18,-1
 447 362 l 1,19,-1
 447 551 l 1,20,-1
 -7 551 l 1,21,-1
 -7 622 l 1,22,-1
 624 622 l 1,23,-1
 624 551 l 1,24,-1
 527 551 l 1,25,-1
 527 320 l 1,26,-1
 498 291 l 1,27,-1
 182 291 l 1,28,29
 182 223 182 223 199 180 c 128,-1,30
 216 137 216 137 243 114 c 128,-1,31
 270 91 270 91 303 82 c 128,-1,32
 336 73 336 73 369 73 c 0,33,34
 416 73 416 73 456.5 84 c 128,-1,35
 497 95 497 95 542 117 c 1,36,-1
 570 46 l 1,37,38
 524 24 524 24 472.5 12 c 128,-1,39
 421 0 421 0 368 0 c 0,0,1
EndSplineSet
EndChar

StartChar: Eth
Encoding: 208 208 63
Width: 361
Flags: W
LayerCount: 2
Fore
SplineSet
264 62 m 0,0,1
 284 62 284 62 305 65.5 c 128,-1,2
 326 69 326 69 339 73 c 1,3,-1
 339 6 l 1,4,5
 325 -1 325 -1 299 -5.5 c 128,-1,6
 273 -10 273 -10 249 -10 c 0,7,8
 207 -10 207 -10 171.5 4.5 c 128,-1,9
 136 19 136 19 114 55 c 128,-1,10
 92 91 92 91 92 156 c 2,11,-1
 92 468 l 1,12,-1
 16 468 l 1,13,-1
 16 510 l 1,14,-1
 93 545 l 1,15,-1
 128 659 l 1,16,-1
 180 659 l 1,17,-1
 180 536 l 1,18,-1
 335 536 l 1,19,-1
 335 468 l 1,20,-1
 180 468 l 1,21,-1
 180 158 l 2,22,23
 180 109 180 109 203.5 85.5 c 128,-1,24
 227 62 227 62 264 62 c 0,0,1
EndSplineSet
EndChar

StartChar: E
Encoding: 69 69 64
Width: 556
Flags: W
LayerCount: 2
Fore
SplineSet
496 0 m 1,0,-1
 97 0 l 1,1,-1
 97 714 l 1,2,-1
 496 714 l 1,3,-1
 496 635 l 1,4,-1
 187 635 l 1,5,-1
 187 412 l 1,6,-1
 478 412 l 1,7,-1
 478 334 l 1,8,-1
 187 334 l 1,9,-1
 187 79 l 1,10,-1
 496 79 l 1,11,-1
 496 0 l 1,0,-1
EndSplineSet
EndChar

StartChar: Eacute
Encoding: 201 201 65
Width: 935
Flags: W
LayerCount: 2
Fore
SplineSet
673 546 m 0,0,1
 764 546 764 546 809 499.5 c 128,-1,2
 854 453 854 453 854 349 c 2,3,-1
 854 0 l 1,4,-1
 767 0 l 1,5,-1
 767 345 l 2,6,7
 767 408 767 408 740.5 440 c 128,-1,8
 714 472 714 472 658 472 c 0,9,10
 580 472 580 472 546.5 427 c 128,-1,11
 513 382 513 382 513 296 c 2,12,-1
 513 0 l 1,13,-1
 426 0 l 1,14,-1
 426 345 l 2,15,16
 426 387 426 387 414 415.5 c 128,-1,17
 402 444 402 444 378 458 c 128,-1,18
 354 472 354 472 316 472 c 0,19,20
 262 472 262 472 231 449.5 c 128,-1,21
 200 427 200 427 186.5 384 c 128,-1,22
 173 341 173 341 173 278 c 2,23,-1
 173 0 l 1,24,-1
 85 0 l 1,25,-1
 85 536 l 1,26,-1
 156 536 l 1,27,-1
 169 463 l 1,28,-1
 174 463 l 1,29,30
 191 491 191 491 215.5 509.5 c 128,-1,31
 240 528 240 528 270 537 c 128,-1,32
 300 546 300 546 332 546 c 0,33,34
 394 546 394 546 435.5 524 c 128,-1,35
 477 502 477 502 496 456 c 1,36,-1
 501 456 l 1,37,38
 528 502 528 502 574.5 524 c 128,-1,39
 621 546 621 546 673 546 c 0,0,1
EndSplineSet
EndChar

StartChar: Ecircumflex
Encoding: 202 202 66
Width: 618
Flags: W
LayerCount: 2
Fore
SplineSet
343 546 m 0,0,1
 439 546 439 546 488 499.5 c 128,-1,2
 537 453 537 453 537 349 c 2,3,-1
 537 0 l 1,4,-1
 450 0 l 1,5,-1
 450 343 l 2,6,7
 450 408 450 408 421 440 c 128,-1,8
 392 472 392 472 330 472 c 0,9,10
 241 472 241 472 207 422 c 128,-1,11
 173 372 173 372 173 278 c 2,12,-1
 173 0 l 1,13,-1
 85 0 l 1,14,-1
 85 536 l 1,15,-1
 156 536 l 1,16,-1
 169 463 l 1,17,-1
 174 463 l 1,18,19
 192 491 192 491 218.5 509.5 c 128,-1,20
 245 528 245 528 277 537 c 128,-1,21
 309 546 309 546 343 546 c 0,0,1
EndSplineSet
EndChar

StartChar: Edieresis
Encoding: 203 203 67
Width: 605
Flags: W
LayerCount: 2
Fore
SplineSet
551 269 m 0,0,1
 551 202 551 202 533.5 150.5 c 128,-1,2
 516 99 516 99 483.5 63 c 128,-1,3
 451 27 451 27 404.5 8.5 c 128,-1,4
 358 -10 358 -10 301 -10 c 0,5,6
 248 -10 248 -10 203 8.5 c 128,-1,7
 158 27 158 27 125 63 c 128,-1,8
 92 99 92 99 73.5 150.5 c 128,-1,9
 55 202 55 202 55 269 c 0,10,11
 55 358 55 358 85 419.5 c 128,-1,12
 115 481 115 481 171 513.5 c 128,-1,13
 227 546 227 546 304 546 c 0,14,15
 377 546 377 546 432.5 513.5 c 128,-1,16
 488 481 488 481 519.5 419.5 c 128,-1,17
 551 358 551 358 551 269 c 0,0,1
146 269 m 0,18,19
 146 206 146 206 162.5 159.5 c 128,-1,20
 179 113 179 113 214 88 c 128,-1,21
 249 63 249 63 303 63 c 256,22,23
 357 63 357 63 392 88 c 128,-1,24
 427 113 427 113 443.5 159.5 c 128,-1,25
 460 206 460 206 460 269 c 0,26,27
 460 333 460 333 443 378 c 128,-1,28
 426 423 426 423 391.5 447.5 c 128,-1,29
 357 472 357 472 302 472 c 0,30,31
 220 472 220 472 183 418 c 128,-1,32
 146 364 146 364 146 269 c 0,18,19
EndSplineSet
EndChar

StartChar: Egrave
Encoding: 200 200 68
Width: 258
Flags: W
LayerCount: 2
Fore
SplineSet
173 0 m 1,0,-1
 85 0 l 1,1,-1
 85 760 l 1,2,-1
 173 760 l 1,3,-1
 173 0 l 1,0,-1
EndSplineSet
EndChar

StartChar: F
Encoding: 70 70 69
Width: 519
Flags: W
LayerCount: 2
Fore
SplineSet
187 0 m 1,0,-1
 97 0 l 1,1,-1
 97 714 l 1,2,-1
 496 714 l 1,3,-1
 496 635 l 1,4,-1
 187 635 l 1,5,-1
 187 382 l 1,6,-1
 477 382 l 1,7,-1
 477 303 l 1,8,-1
 187 303 l 1,9,-1
 187 0 l 1,0,-1
EndSplineSet
EndChar

StartChar: G
Encoding: 71 71 70
Width: 728
Flags: W
LayerCount: 2
Fore
SplineSet
407 377 m 1,0,-1
 654 377 l 1,1,-1
 654 27 l 1,2,3
 596 8 596 8 537 -1 c 128,-1,4
 478 -10 478 -10 403 -10 c 0,5,6
 292 -10 292 -10 216 34.5 c 128,-1,7
 140 79 140 79 100.5 161.5 c 128,-1,8
 61 244 61 244 61 357 c 0,9,10
 61 469 61 469 105 551 c 128,-1,11
 149 633 149 633 231.5 678.5 c 128,-1,12
 314 724 314 724 431 724 c 0,13,14
 491 724 491 724 544.5 713 c 128,-1,15
 598 702 598 702 644 682 c 1,16,-1
 610 604 l 1,17,18
 572 621 572 621 524.5 633 c 128,-1,19
 477 645 477 645 426 645 c 0,20,21
 341 645 341 645 280 610 c 128,-1,22
 219 575 219 575 187 510.5 c 128,-1,23
 155 446 155 446 155 357 c 0,24,25
 155 272 155 272 182.5 206.5 c 128,-1,26
 210 141 210 141 269 104.5 c 128,-1,27
 328 68 328 68 424 68 c 0,28,29
 471 68 471 68 504 73 c 128,-1,30
 537 78 537 78 564 85 c 1,31,-1
 564 297 l 1,32,-1
 407 297 l 1,33,-1
 407 377 l 1,0,-1
EndSplineSet
EndChar

StartChar: H
Encoding: 72 72 71
Width: 576
Flags: W
AnchorPoint: "Anchor-2" 357 0 basechar 0
LayerCount: 2
Fore
SplineSet
309 0 m 0,0,1
 255 0 255 0 206.5 21.5 c 128,-1,2
 158 43 158 43 119.5 79.5 c 128,-1,3
 81 116 81 116 59 162.5 c 128,-1,4
 37 209 37 209 37 258 c 0,5,6
 37 310 37 310 60 343 c 128,-1,7
 83 376 83 376 125.5 392 c 128,-1,8
 168 408 168 408 228 408 c 0,9,10
 239 408 239 408 251 407.5 c 128,-1,11
 263 407 263 407 270 405 c 1,12,-1
 264 333 l 1,13,14
 256 335 256 335 245 335 c 128,-1,15
 234 335 234 335 226 335 c 0,16,17
 175 335 175 335 146.5 317.5 c 128,-1,18
 118 300 118 300 118 253 c 0,19,20
 118 220 118 220 135 188 c 128,-1,21
 152 156 152 156 180.5 130 c 128,-1,22
 209 104 209 104 244.5 88.5 c 128,-1,23
 280 73 280 73 317 73 c 0,24,25
 338 73 338 73 357 78 c 128,-1,26
 376 83 376 83 387 96 c 0,27,28
 396 107 396 107 401 124.5 c 128,-1,29
 406 142 406 142 406 183 c 2,30,-1
 406 551 l 1,31,-1
 -7 551 l 1,32,-1
 -7 622 l 1,33,-1
 583 622 l 1,34,-1
 583 551 l 1,35,-1
 487 551 l 1,36,-1
 487 172 l 2,37,38
 487 113 487 113 467.5 75 c 128,-1,39
 448 37 448 37 408.5 18.5 c 128,-1,40
 369 0 369 0 309 0 c 0,0,1
EndSplineSet
EndChar

StartChar: I
Encoding: 73 73 72
Width: 339
Flags: W
LayerCount: 2
Fore
SplineSet
298 0 m 1,0,-1
 40 0 l 1,1,-1
 40 52 l 1,2,-1
 124 71 l 1,3,-1
 124 642 l 1,4,-1
 40 662 l 1,5,-1
 40 714 l 1,6,-1
 298 714 l 1,7,-1
 298 662 l 1,8,-1
 214 642 l 1,9,-1
 214 71 l 1,10,-1
 298 52 l 1,11,-1
 298 0 l 1,0,-1
EndSplineSet
EndChar

StartChar: Iacute
Encoding: 205 205 73
Width: 615
Flags: W
LayerCount: 2
Fore
SplineSet
442 -11 m 2,0,1
 442 7 442 7 443 31 c 128,-1,2
 444 55 444 55 447 72 c 1,3,-1
 441 72 l 1,4,5
 418 38 418 38 377.5 14 c 128,-1,6
 337 -10 337 -10 273 -10 c 0,7,8
 176 -10 176 -10 115.5 59.5 c 128,-1,9
 55 129 55 129 55 267 c 0,10,11
 55 359 55 359 83 421 c 128,-1,12
 111 483 111 483 161 514.5 c 128,-1,13
 211 546 211 546 276 546 c 0,14,15
 339 546 339 546 379 522 c 128,-1,16
 419 498 419 498 443 463 c 1,17,-1
 447 463 l 1,18,-1
 460 536 l 1,19,-1
 530 536 l 1,20,-1
 530 -240 l 1,21,-1
 442 -240 l 1,22,-1
 442 -11 l 2,0,1
290 63 m 0,23,24
 345 63 345 63 378.5 83 c 128,-1,25
 412 103 412 103 427 144.5 c 128,-1,26
 442 186 442 186 443 248 c 2,27,-1
 443 266 l 2,28,29
 443 368 443 368 409 420.5 c 128,-1,30
 375 473 375 473 288 473 c 0,31,32
 216 473 216 473 181 416.5 c 128,-1,33
 146 360 146 360 146 265 c 256,34,35
 146 170 146 170 181.5 116.5 c 128,-1,36
 217 63 217 63 290 63 c 0,23,24
EndSplineSet
EndChar

StartChar: Icircumflex
Encoding: 206 206 74
Width: 413
Flags: W
LayerCount: 2
Fore
SplineSet
335 546 m 0,0,1
 350 546 350 546 367.5 544.5 c 128,-1,2
 385 543 385 543 398 540 c 1,3,-1
 387 459 l 1,4,5
 374 462 374 462 358.5 464 c 128,-1,6
 343 466 343 466 329 466 c 0,7,8
 298 466 298 466 270 453 c 128,-1,9
 242 440 242 440 220 416.5 c 128,-1,10
 198 393 198 393 185.5 360 c 128,-1,11
 173 327 173 327 173 286 c 2,12,-1
 173 0 l 1,13,-1
 85 0 l 1,14,-1
 85 536 l 1,15,-1
 157 536 l 1,16,-1
 167 438 l 1,17,-1
 171 438 l 1,18,19
 188 468 188 468 212 492.5 c 128,-1,20
 236 517 236 517 267 531.5 c 128,-1,21
 298 546 298 546 335 546 c 0,0,1
EndSplineSet
EndChar

StartChar: Idieresis
Encoding: 207 207 75
Width: 479
Flags: W
LayerCount: 2
Fore
SplineSet
434 148 m 0,0,1
 434 96 434 96 408 61 c 128,-1,2
 382 26 382 26 334 8 c 128,-1,3
 286 -10 286 -10 220 -10 c 0,4,5
 164 -10 164 -10 123.5 -1 c 128,-1,6
 83 8 83 8 52 24 c 1,7,-1
 52 104 l 1,8,9
 84 88 84 88 129.5 74.5 c 128,-1,10
 175 61 175 61 222 61 c 0,11,12
 289 61 289 61 319 82.5 c 128,-1,13
 349 104 349 104 349 140 c 0,14,15
 349 160 349 160 338 176 c 128,-1,16
 327 192 327 192 298.5 208 c 128,-1,17
 270 224 270 224 217 244 c 0,18,19
 165 264 165 264 128 284 c 128,-1,20
 91 304 91 304 71 332 c 128,-1,21
 51 360 51 360 51 404 c 0,22,23
 51 472 51 472 106.5 509 c 128,-1,24
 162 546 162 546 252 546 c 0,25,26
 301 546 301 546 343.5 536.5 c 128,-1,27
 386 527 386 527 423 510 c 1,28,-1
 393 440 l 1,29,30
 359 454 359 454 322 464 c 128,-1,31
 285 474 285 474 246 474 c 0,32,33
 192 474 192 474 163.5 456.5 c 128,-1,34
 135 439 135 439 135 409 c 0,35,36
 135 387 135 387 148 371.5 c 128,-1,37
 161 356 161 356 191.5 341.5 c 128,-1,38
 222 327 222 327 273 307 c 0,39,40
 324 288 324 288 360 268 c 128,-1,41
 396 248 396 248 415 219.5 c 128,-1,42
 434 191 434 191 434 148 c 0,0,1
EndSplineSet
EndChar

StartChar: Igrave
Encoding: 204 204 76
Width: 615
Flags: W
LayerCount: 2
Fore
SplineSet
340 546 m 0,0,1
 439 546 439 546 499.5 477 c 128,-1,2
 560 408 560 408 560 269 c 0,3,4
 560 178 560 178 532.5 115.5 c 128,-1,5
 505 53 505 53 455.5 21.5 c 128,-1,6
 406 -10 406 -10 339 -10 c 0,7,8
 298 -10 298 -10 266 1 c 128,-1,9
 234 12 234 12 211.5 29.5 c 128,-1,10
 189 47 189 47 173 68 c 1,11,-1
 167 68 l 1,12,13
 169 51 169 51 171 25 c 128,-1,14
 173 -1 173 -1 173 -20 c 2,15,-1
 173 -240 l 1,16,-1
 85 -240 l 1,17,-1
 85 536 l 1,18,-1
 157 536 l 1,19,-1
 169 463 l 1,20,-1
 173 463 l 1,21,22
 189 486 189 486 211.5 505 c 128,-1,23
 234 524 234 524 265.5 535 c 128,-1,24
 297 546 297 546 340 546 c 0,0,1
324 472 m 0,25,26
 270 472 270 472 237 451.5 c 128,-1,27
 204 431 204 431 189 390 c 128,-1,28
 174 349 174 349 173 286 c 2,29,-1
 173 269 l 2,30,31
 173 203 173 203 187 157 c 128,-1,32
 201 111 201 111 234.5 87 c 128,-1,33
 268 63 268 63 326 63 c 0,34,35
 375 63 375 63 406.5 90 c 128,-1,36
 438 117 438 117 453.5 163.5 c 128,-1,37
 469 210 469 210 469 270 c 0,38,39
 469 362 469 362 433.5 417 c 128,-1,40
 398 472 398 472 324 472 c 0,25,26
EndSplineSet
EndChar

StartChar: J
Encoding: 74 74 77
Width: 572
Flags: W
LayerCount: 2
Fore
SplineSet
235 -8 m 4,0,1
 180 -8 180 -8 136 4 c 132,-1,2
 92 16 92 16 58 33 c 5,3,-1
 89 103 l 5,4,5
 119 89 119 89 155.5 77 c 132,-1,6
 192 65 192 65 233 65 c 4,7,8
 290 65 290 65 320 94.5 c 132,-1,9
 350 124 350 124 350 190 c 6,10,-1
 350 329 l 5,11,-1
 146 329 l 5,12,-1
 146 395 l 5,13,-1
 350 395 l 5,14,-1
 350 499 l 6,15,16
 350 539 350 539 359.5 565.5 c 132,-1,17
 369 592 369 592 384.5 608 c 132,-1,18
 400 624 400 624 418 635 c 5,19,-1
 34 635 l 5,20,-1
 34 715 l 5,21,-1
 537 715 l 5,22,-1
 537 641 l 5,23,24
 508 634 508 634 486 617.5 c 132,-1,25
 464 601 464 601 451 572.5 c 132,-1,26
 438 544 438 544 438 500 c 6,27,-1
 438 395 l 5,28,-1
 534 395 l 5,29,-1
 534 329 l 5,30,-1
 438 329 l 5,31,-1
 438 181 l 6,32,33
 438 121 438 121 413 79 c 132,-1,34
 388 37 388 37 342 14.5 c 132,-1,35
 296 -8 296 -8 235 -8 c 4,0,1
EndSplineSet
EndChar

StartChar: K
Encoding: 75 75 78
Width: 619
Flags: W
LayerCount: 2
Fore
SplineSet
619 0 m 1,0,-1
 513 0 l 1,1,-1
 260 341 l 1,2,-1
 187 277 l 1,3,-1
 187 0 l 1,4,-1
 97 0 l 1,5,-1
 97 714 l 1,6,-1
 187 714 l 1,7,-1
 187 362 l 1,8,9
 217 396 217 396 248 430 c 128,-1,10
 279 464 279 464 310 498 c 2,11,-1
 503 714 l 1,12,-1
 608 714 l 1,13,-1
 325 403 l 1,14,-1
 619 0 l 1,0,-1
EndSplineSet
EndChar

StartChar: L
Encoding: 76 76 79
Width: 572
Flags: W
LayerCount: 2
Fore
SplineSet
334 723 m 0,0,1
 389 723 389 723 433 711 c 128,-1,2
 477 699 477 699 511 682 c 1,3,-1
 480 612 l 1,4,5
 450 626 450 626 413.5 638 c 128,-1,6
 377 650 377 650 336 650 c 0,7,8
 279 650 279 650 249 620.5 c 128,-1,9
 219 591 219 591 219 525 c 2,10,-1
 219 386 l 1,11,-1
 423 386 l 1,12,-1
 423 320 l 1,13,-1
 219 320 l 1,14,-1
 219 216 l 2,15,16
 219 176 219 176 209.5 149.5 c 128,-1,17
 200 123 200 123 184.5 107 c 128,-1,18
 169 91 169 91 151 80 c 1,19,-1
 535 80 l 1,20,-1
 535 0 l 1,21,-1
 32 0 l 1,22,-1
 32 74 l 1,23,24
 61 81 61 81 83 97.5 c 128,-1,25
 105 114 105 114 118 142.5 c 128,-1,26
 131 171 131 171 131 215 c 2,27,-1
 131 320 l 1,28,-1
 35 320 l 1,29,-1
 35 386 l 1,30,-1
 131 386 l 1,31,-1
 131 534 l 2,32,33
 131 594 131 594 156 636 c 128,-1,34
 181 678 181 678 227 700.5 c 128,-1,35
 273 723 273 723 334 723 c 0,0,1
EndSplineSet
EndChar

StartChar: M
Encoding: 77 77 80
Width: 907
Flags: W
LayerCount: 2
Fore
SplineSet
412 0 m 1,0,-1
 177 626 l 1,1,-1
 173 626 l 1,2,3
 175 606 175 606 176.5 575 c 128,-1,4
 178 544 178 544 179 507.5 c 128,-1,5
 180 471 180 471 180 433 c 2,6,-1
 180 0 l 1,7,-1
 97 0 l 1,8,-1
 97 714 l 1,9,-1
 230 714 l 1,10,-1
 450 129 l 1,11,-1
 454 129 l 1,12,-1
 678 714 l 1,13,-1
 810 714 l 1,14,-1
 810 0 l 1,15,-1
 721 0 l 1,16,-1
 721 439 l 2,17,18
 721 474 721 474 722 508.5 c 128,-1,19
 723 543 723 543 725 573.5 c 128,-1,20
 727 604 727 604 728 625 c 1,21,-1
 724 625 l 1,22,-1
 486 0 l 1,23,-1
 412 0 l 1,0,-1
EndSplineSet
EndChar

StartChar: N
Encoding: 78 78 81
Width: 760
Flags: W
LayerCount: 2
Fore
SplineSet
663 0 m 1,0,-1
 558 0 l 1,1,-1
 176 593 l 1,2,-1
 172 593 l 1,3,4
 174 570 174 570 175.5 538.5 c 128,-1,5
 177 507 177 507 178.5 471.5 c 128,-1,6
 180 436 180 436 180 399 c 2,7,-1
 180 0 l 1,8,-1
 97 0 l 1,9,-1
 97 714 l 1,10,-1
 201 714 l 1,11,-1
 582 123 l 1,12,-1
 586 123 l 1,13,14
 585 139 585 139 583.5 171 c 128,-1,15
 582 203 582 203 580.5 241 c 128,-1,16
 579 279 579 279 579 311 c 2,17,-1
 579 714 l 1,18,-1
 663 714 l 1,19,-1
 663 0 l 1,0,-1
EndSplineSet
EndChar

StartChar: Ntilde
Encoding: 209 209 82
Width: 618
Flags: W
LayerCount: 2
Fore
SplineSet
533 536 m 1,0,-1
 533 0 l 1,1,-1
 461 0 l 1,2,-1
 448 71 l 1,3,-1
 444 71 l 1,4,5
 427 43 427 43 400 25 c 128,-1,6
 373 7 373 7 341 -1.5 c 128,-1,7
 309 -10 309 -10 274 -10 c 0,8,9
 210 -10 210 -10 166.5 10.5 c 128,-1,10
 123 31 123 31 101 74 c 128,-1,11
 79 117 79 117 79 185 c 2,12,-1
 79 536 l 1,13,-1
 168 536 l 1,14,-1
 168 191 l 2,15,16
 168 127 168 127 197 95 c 128,-1,17
 226 63 226 63 287 63 c 0,18,19
 347 63 347 63 381.5 85.5 c 128,-1,20
 416 108 416 108 430.5 151.5 c 128,-1,21
 445 195 445 195 445 257 c 2,22,-1
 445 536 l 1,23,-1
 533 536 l 1,0,-1
EndSplineSet
EndChar

StartChar: O
Encoding: 79 79 83
Width: 781
Flags: W
LayerCount: 2
Fore
SplineSet
720 358 m 0,0,1
 720 275 720 275 699 207.5 c 128,-1,2
 678 140 678 140 636.5 91 c 128,-1,3
 595 42 595 42 533.5 16 c 128,-1,4
 472 -10 472 -10 391 -10 c 0,5,6
 307 -10 307 -10 245 16.5 c 128,-1,7
 183 43 183 43 142 91.5 c 128,-1,8
 101 140 101 140 81 208 c 128,-1,9
 61 276 61 276 61 359 c 0,10,11
 61 469 61 469 97 551 c 128,-1,12
 133 633 133 633 206.5 679 c 128,-1,13
 280 725 280 725 392 725 c 0,14,15
 499 725 499 725 572 679.5 c 128,-1,16
 645 634 645 634 682.5 551.5 c 128,-1,17
 720 469 720 469 720 358 c 0,0,1
156 358 m 256,18,19
 156 268 156 268 181 203 c 128,-1,20
 206 138 206 138 258.5 103 c 128,-1,21
 311 68 311 68 391 68 c 0,22,23
 472 68 472 68 523.5 103 c 128,-1,24
 575 138 575 138 600 203 c 128,-1,25
 625 268 625 268 625 358 c 0,26,27
 625 493 625 493 569 569.5 c 128,-1,28
 513 646 513 646 392 646 c 0,29,30
 311 646 311 646 258.5 611.5 c 128,-1,31
 206 577 206 577 181 512.5 c 128,-1,32
 156 448 156 448 156 358 c 256,18,19
EndSplineSet
EndChar

StartChar: Oacute
Encoding: 211 211 84
Width: 786
Flags: W
LayerCount: 2
Fore
SplineSet
431 303 m 2,0,1
 425 324 425 324 419 344.5 c 128,-1,2
 413 365 413 365 408.5 383.5 c 128,-1,3
 404 402 404 402 400 418 c 128,-1,4
 396 434 396 434 394 445 c 1,5,-1
 390 445 l 1,6,7
 388 434 388 434 384.5 418 c 128,-1,8
 381 402 381 402 376.5 383 c 128,-1,9
 372 364 372 364 366.5 343.5 c 128,-1,10
 361 323 361 323 354 302 c 2,11,-1
 258 1 l 1,12,-1
 158 1 l 1,13,-1
 11 537 l 1,14,-1
 102 537 l 1,15,-1
 176 251 l 2,16,17
 184 222 184 222 191 192.5 c 128,-1,18
 198 163 198 163 203.5 136.5 c 128,-1,19
 209 110 209 110 211 91 c 1,20,-1
 215 91 l 1,21,22
 218 103 218 103 222 121 c 128,-1,23
 226 139 226 139 230.5 159 c 128,-1,24
 235 179 235 179 240.5 199 c 128,-1,25
 246 219 246 219 251 235 c 2,26,-1
 346 537 l 1,27,-1
 442 537 l 1,28,-1
 534 235 l 2,29,30
 541 212 541 212 548.5 186 c 128,-1,31
 556 160 556 160 562 135.5 c 128,-1,32
 568 111 568 111 570 92 c 1,33,-1
 574 92 l 1,34,35
 576 109 576 109 581.5 134.5 c 128,-1,36
 587 160 587 160 594.5 190.5 c 128,-1,37
 602 221 602 221 610 251 c 2,38,-1
 685 537 l 1,39,-1
 775 537 l 1,40,-1
 626 1 l 1,41,-1
 523 1 l 1,42,-1
 431 303 l 2,0,1
EndSplineSet
EndChar

StartChar: Ocircumflex
Encoding: 212 212 85
Width: 529
Flags: W
LayerCount: 2
Fore
SplineSet
212 274 m 1,0,-1
 27 536 l 1,1,-1
 127 536 l 1,2,-1
 265 334 l 1,3,-1
 402 536 l 1,4,-1
 501 536 l 1,5,-1
 316 274 l 1,6,-1
 511 0 l 1,7,-1
 411 0 l 1,8,-1
 265 214 l 1,9,-1
 117 0 l 1,10,-1
 18 0 l 1,11,-1
 212 274 l 1,0,-1
EndSplineSet
EndChar

StartChar: Odieresis
Encoding: 214 214 86
Width: 470
Flags: W
LayerCount: 2
Fore
SplineSet
431 0 m 1,0,-1
 39 0 l 1,1,-1
 39 58 l 1,2,-1
 327 468 l 1,3,-1
 56 468 l 1,4,-1
 56 536 l 1,5,-1
 424 536 l 1,6,-1
 424 470 l 1,7,-1
 140 68 l 1,8,-1
 431 68 l 1,9,-1
 431 0 l 1,0,-1
EndSplineSet
EndChar

StartChar: Ograve
Encoding: 210 210 87
Width: 508
Flags: W
LayerCount: 2
Fore
SplineSet
203 0 m 1,0,-1
 0 536 l 1,1,-1
 94 536 l 1,2,-1
 208 220 l 2,3,4
 216 198 216 198 225 171 c 128,-1,5
 234 144 234 144 241 119.5 c 128,-1,6
 248 95 248 95 251 78 c 1,7,-1
 255 78 l 1,8,9
 259 95 259 95 266.5 120 c 128,-1,10
 274 145 274 145 283.5 172 c 128,-1,11
 293 199 293 199 300 220 c 2,12,-1
 414 536 l 1,13,-1
 508 536 l 1,14,-1
 304 0 l 1,15,-1
 203 0 l 1,0,-1
EndSplineSet
EndChar

StartChar: Oslash
Encoding: 216 216 88
Width: 639
Flags: W
LayerCount: 2
Fore
SplineSet
545 0 m 1,0,-1
 459 221 l 1,1,-1
 176 221 l 1,2,-1
 91 0 l 1,3,-1
 0 0 l 1,4,-1
 279 717 l 1,5,-1
 360 717 l 1,6,-1
 638 0 l 1,7,-1
 545 0 l 1,0,-1
352 517 m 2,8,9
 349 525 349 525 342 546 c 128,-1,10
 335 567 335 567 328.5 589.5 c 128,-1,11
 322 612 322 612 318 624 c 1,12,13
 313 604 313 604 307.5 583.5 c 128,-1,14
 302 563 302 563 296.5 546 c 128,-1,15
 291 529 291 529 287 517 c 2,16,-1
 206 301 l 1,17,-1
 432 301 l 1,18,-1
 352 517 l 2,8,9
EndSplineSet
EndChar

StartChar: Otilde
Encoding: 213 213 89
Width: 510
Flags: W
LayerCount: 2
Fore
SplineSet
1 536 m 1,0,-1
 95 536 l 1,1,-1
 211 231 l 2,2,3
 221 204 221 204 229.5 179 c 128,-1,4
 238 154 238 154 245 130.5 c 128,-1,5
 252 107 252 107 256 85 c 1,6,-1
 260 85 l 1,7,8
 266 110 266 110 279 150.5 c 128,-1,9
 292 191 292 191 306 232 c 2,10,-1
 415 536 l 1,11,-1
 510 536 l 1,12,-1
 279 -74 l 2,13,14
 260 -124 260 -124 234.5 -161.5 c 128,-1,15
 209 -199 209 -199 172.5 -219.5 c 128,-1,16
 136 -240 136 -240 84 -240 c 0,17,18
 60 -240 60 -240 42 -237.5 c 128,-1,19
 24 -235 24 -235 11 -232 c 1,20,-1
 11 -162 l 1,21,22
 22 -164 22 -164 37.5 -166 c 128,-1,23
 53 -168 53 -168 70 -168 c 0,24,25
 101 -168 101 -168 123.5 -156.5 c 128,-1,26
 146 -145 146 -145 162 -123.5 c 128,-1,27
 178 -102 178 -102 189 -73 c 2,28,-1
 217 -2 l 1,29,-1
 1 536 l 1,0,-1
EndSplineSet
EndChar

StartChar: P
Encoding: 80 80 90
Width: 605
Flags: W
LayerCount: 2
Fore
SplineSet
286 714 m 2,0,1
 426 714 426 714 490 659 c 128,-1,2
 554 604 554 604 554 504 c 0,3,4
 554 460 554 460 539.5 419.5 c 128,-1,5
 525 379 525 379 492 347 c 128,-1,6
 459 315 459 315 404 296.5 c 128,-1,7
 349 278 349 278 269 278 c 2,8,-1
 187 278 l 1,9,-1
 187 0 l 1,10,-1
 97 0 l 1,11,-1
 97 714 l 1,12,-1
 286 714 l 2,0,1
278 637 m 2,13,-1
 187 637 l 1,14,-1
 187 355 l 1,15,-1
 259 355 l 2,16,17
 327 355 327 355 372 369.5 c 128,-1,18
 417 384 417 384 439 416 c 128,-1,19
 461 448 461 448 461 500 c 0,20,21
 461 569 461 569 417 603 c 128,-1,22
 373 637 373 637 278 637 c 2,13,-1
EndSplineSet
EndChar

StartChar: Thorn
Encoding: 222 222 91
Width: 728
Flags: W
LayerCount: 2
Fore
SplineSet
407 377 m 1,0,-1
 654 377 l 1,1,-1
 654 27 l 1,2,3
 596 8 596 8 537 -1 c 128,-1,4
 478 -10 478 -10 403 -10 c 0,5,6
 292 -10 292 -10 216 34.5 c 128,-1,7
 140 79 140 79 100.5 161.5 c 128,-1,8
 61 244 61 244 61 357 c 0,9,10
 61 469 61 469 105 551 c 128,-1,11
 149 633 149 633 231.5 678.5 c 128,-1,12
 314 724 314 724 431 724 c 0,13,14
 491 724 491 724 544.5 713 c 128,-1,15
 598 702 598 702 644 682 c 1,16,-1
 610 604 l 1,17,18
 572 621 572 621 524.5 633 c 128,-1,19
 477 645 477 645 426 645 c 0,20,21
 341 645 341 645 280 610 c 128,-1,22
 219 575 219 575 187 510.5 c 128,-1,23
 155 446 155 446 155 357 c 0,24,25
 155 272 155 272 182.5 206.5 c 128,-1,26
 210 141 210 141 269 104.5 c 128,-1,27
 328 68 328 68 424 68 c 0,28,29
 471 68 471 68 504 73 c 128,-1,30
 537 78 537 78 564 85 c 1,31,-1
 564 297 l 1,32,-1
 407 297 l 1,33,-1
 407 377 l 1,0,-1
EndSplineSet
EndChar

StartChar: Q
Encoding: 81 81 92
Width: 680
Flags: W
LayerCount: 2
Fore
SplineSet
558 -5 m 1,0,1
 538 -5 538 -5 519 2 c 128,-1,2
 500 9 500 9 486 26 c 1,3,-1
 486 291 l 5,4,5
 458 266 458 266 421 250.5 c 132,-1,6
 384 235 384 235 334 235 c 4,7,8
 292 235 292 235 243 258 c 132,-1,9
 194 281 194 281 152 318 c 132,-1,10
 110 355 110 355 82 401 c 132,-1,11
 54 447 54 447 54 493 c 4,12,13
 54 541 54 541 71.5 578 c 132,-1,14
 89 615 89 615 119 640.5 c 132,-1,15
 149 666 149 666 189.5 679 c 132,-1,16
 230 692 230 692 276 692 c 4,17,18
 310 692 310 692 340 684 c 4,19,20
 389 671 389 671 396 662.5 c 4,21,22
 431 622 431 622 444.5 631.5 c 4,23,24
 448 634 448 634 486 718 c 5,25,-1
 484 717 l 5,26,-1
 560 717 l 6,27,-1
 558 -5 l 1,0,1
277 292 m 4,28,29
 315 292 315 292 351 304.5 c 132,-1,30
 387 317 387 317 417 340 c 5,31,-1
 184 580 l 5,32,33
 157 556 157 556 142 521.5 c 132,-1,34
 127 487 127 487 127 442 c 4,35,36
 127 406 127 406 138.5 378 c 132,-1,37
 150 350 150 350 170 331 c 132,-1,38
 190 312 190 312 217.5 302 c 132,-1,39
 245 292 245 292 277 292 c 4,28,29
486 571 m 5,40,41
 451 598 451 598 413.5 613.5 c 132,-1,42
 376 629 376 629 327 629 c 4,43,44
 255 629 255 629 204 596 c 5,45,-1
 435 356 l 5,46,47
 451 371 451 371 464 389 c 132,-1,48
 477 407 477 407 486 427 c 5,49,-1
 486 571 l 5,40,41
EndSplineSet
EndChar

StartChar: R
Encoding: 82 82 93
Width: 622
Flags: W
LayerCount: 2
Fore
SplineSet
294 714 m 2,0,1
 383 714 383 714 440.5 691.5 c 128,-1,2
 498 669 498 669 526 624 c 128,-1,3
 554 579 554 579 554 511 c 0,4,5
 554 454 554 454 533 416 c 128,-1,6
 512 378 512 378 479.5 355.5 c 128,-1,7
 447 333 447 333 411 320 c 1,8,-1
 607 0 l 1,9,-1
 502 0 l 1,10,-1
 329 295 l 1,11,-1
 187 295 l 1,12,-1
 187 0 l 1,13,-1
 97 0 l 1,14,-1
 97 714 l 1,15,-1
 294 714 l 2,0,1
289 636 m 2,16,-1
 187 636 l 1,17,-1
 187 371 l 1,18,-1
 294 371 l 2,19,20
 381 371 381 371 421 405.5 c 128,-1,21
 461 440 461 440 461 507 c 0,22,23
 461 554 461 554 442.5 582 c 128,-1,24
 424 610 424 610 386 623 c 128,-1,25
 348 636 348 636 289 636 c 2,16,-1
EndSplineSet
EndChar

StartChar: S
Encoding: 83 83 94
Width: 549
Flags: W
LayerCount: 2
Fore
SplineSet
502 191 m 0,0,1
 502 127 502 127 471 82.5 c 128,-1,2
 440 38 440 38 382.5 14 c 128,-1,3
 325 -10 325 -10 247 -10 c 0,4,5
 207 -10 207 -10 170.5 -6 c 128,-1,6
 134 -2 134 -2 104 5.5 c 128,-1,7
 74 13 74 13 51 24 c 1,8,-1
 51 110 l 1,9,10
 87 94 87 94 140.5 81 c 128,-1,11
 194 68 194 68 251 68 c 0,12,13
 304 68 304 68 340 82 c 128,-1,14
 376 96 376 96 394 122 c 128,-1,15
 412 148 412 148 412 183 c 256,16,17
 412 218 412 218 397 242 c 128,-1,18
 382 266 382 266 345.5 286.5 c 128,-1,19
 309 307 309 307 244 330 c 0,20,21
 198 347 198 347 163.5 366.5 c 128,-1,22
 129 386 129 386 106 411 c 128,-1,23
 83 436 83 436 71.5 468 c 128,-1,24
 60 500 60 500 60 542 c 0,25,26
 60 599 60 599 89 639.5 c 128,-1,27
 118 680 118 680 169.5 702 c 128,-1,28
 221 724 221 724 288 724 c 0,29,30
 347 724 347 724 396 713 c 128,-1,31
 445 702 445 702 485 684 c 1,32,-1
 457 607 l 1,33,34
 420 623 420 623 376.5 634 c 128,-1,35
 333 645 333 645 286 645 c 0,36,37
 241 645 241 645 211 632 c 128,-1,38
 181 619 181 619 166 595.5 c 128,-1,39
 151 572 151 572 151 541 c 0,40,41
 151 505 151 505 166 481 c 128,-1,42
 181 457 181 457 215 438 c 128,-1,43
 249 419 249 419 307 397 c 0,44,45
 370 374 370 374 413.5 347.5 c 128,-1,46
 457 321 457 321 479.5 284 c 128,-1,47
 502 247 502 247 502 191 c 0,0,1
EndSplineSet
EndChar

StartChar: T
Encoding: 84 84 95
Width: 542
Flags: W
AnchorPoint: "Anchor-2" 343 0 basechar 0
LayerCount: 2
Fore
SplineSet
250 0 m 0,0,1
 183 0 183 0 122.5 18 c 128,-1,2
 62 36 62 36 13 64 c 1,3,-1
 45 137 l 1,4,5
 93 106 93 106 143 89.5 c 128,-1,6
 193 73 193 73 248 73 c 0,7,8
 292 73 292 73 327.5 84.5 c 128,-1,9
 363 96 363 96 384.5 121.5 c 128,-1,10
 406 147 406 147 406 189 c 0,11,12
 406 222 406 222 392 247 c 128,-1,13
 378 272 378 272 353 291.5 c 128,-1,14
 328 311 328 311 294 324 c 1,15,16
 272 320 272 320 242 316 c 128,-1,17
 212 312 212 312 181 312 c 0,18,19
 135 312 135 312 111 320.5 c 128,-1,20
 87 329 87 329 78 342 c 128,-1,21
 69 355 69 355 69 369 c 0,22,23
 69 398 69 398 94.5 408.5 c 128,-1,24
 120 419 120 419 157 419 c 0,25,26
 197 419 197 419 232.5 412.5 c 128,-1,27
 268 406 268 406 302 393 c 1,28,29
 337 407 337 407 359.5 436 c 128,-1,30
 382 465 382 465 382 512 c 0,31,32
 382 526 382 526 379.5 542.5 c 128,-1,33
 377 559 377 559 370 578 c 1,34,-1
 414 551 l 1,35,-1
 -7 551 l 1,36,-1
 -7 622 l 1,37,-1
 549 622 l 1,38,-1
 549 551 l 1,39,-1
 424 551 l 1,40,-1
 455 576 l 1,41,42
 459 560 459 560 461 542.5 c 128,-1,43
 463 525 463 525 463 511 c 0,44,45
 463 449 463 449 438.5 416.5 c 128,-1,46
 414 384 414 384 377 362 c 1,47,48
 410 344 410 344 435 320 c 128,-1,49
 460 296 460 296 474 264 c 128,-1,50
 488 232 488 232 488 188 c 0,51,52
 488 127 488 127 457.5 85 c 128,-1,53
 427 43 427 43 373.5 21.5 c 128,-1,54
 320 0 320 0 250 0 c 0,0,1
EndSplineSet
EndChar

StartChar: U
Encoding: 85 85 96
Width: 731
Flags: W
LayerCount: 2
Fore
SplineSet
640 252 m 2,0,1
 640 178 640 178 610 118.5 c 128,-1,2
 580 59 580 59 518.5 24.5 c 128,-1,3
 457 -10 457 -10 362 -10 c 0,4,5
 229 -10 229 -10 159.5 62.5 c 128,-1,6
 90 135 90 135 90 254 c 2,7,-1
 90 714 l 1,8,-1
 180 714 l 1,9,-1
 180 251 l 2,10,11
 180 164 180 164 226.5 116 c 128,-1,12
 273 68 273 68 367 68 c 0,13,14
 432 68 432 68 472.5 91.5 c 128,-1,15
 513 115 513 115 532 156.5 c 128,-1,16
 551 198 551 198 551 252 c 2,17,-1
 551 714 l 1,18,-1
 640 714 l 1,19,-1
 640 252 l 2,0,1
EndSplineSet
EndChar

StartChar: Uacute
Encoding: 218 218 97
Width: 632
Flags: W
LayerCount: 2
Fore
SplineSet
403 645 m 0,0,1
 346 645 346 645 300 625.5 c 128,-1,2
 254 606 254 606 222 568.5 c 128,-1,3
 190 531 190 531 173 477.5 c 128,-1,4
 156 424 156 424 156 357 c 0,5,6
 156 269 156 269 183.5 204 c 128,-1,7
 211 139 211 139 265.5 104 c 128,-1,8
 320 69 320 69 402 69 c 0,9,10
 449 69 449 69 491 77 c 128,-1,11
 533 85 533 85 573 97 c 1,12,-1
 573 19 l 1,13,14
 533 4 533 4 490.5 -3 c 128,-1,15
 448 -10 448 -10 389 -10 c 0,16,17
 280 -10 280 -10 207 35 c 128,-1,18
 134 80 134 80 97.5 163 c 128,-1,19
 61 246 61 246 61 358 c 0,20,21
 61 439 61 439 83.5 506 c 128,-1,22
 106 573 106 573 149.5 622 c 128,-1,23
 193 671 193 671 257 697.5 c 128,-1,24
 321 724 321 724 404 724 c 0,25,26
 459 724 459 724 510 713 c 128,-1,27
 561 702 561 702 601 682 c 1,28,-1
 565 606 l 1,29,30
 532 621 532 621 491.5 633 c 128,-1,31
 451 645 451 645 403 645 c 0,0,1
EndSplineSet
EndChar

StartChar: Ucircumflex
Encoding: 219 219 98
Width: 730
Flags: W
LayerCount: 2
Fore
SplineSet
669 364 m 0,0,1
 669 244 669 244 624.5 163 c 128,-1,2
 580 82 580 82 497 41 c 128,-1,3
 414 0 414 0 296 0 c 2,4,-1
 97 0 l 1,5,-1
 97 714 l 1,6,-1
 317 714 l 2,7,8
 425 714 425 714 504 674 c 128,-1,9
 583 634 583 634 626 556.5 c 128,-1,10
 669 479 669 479 669 364 c 0,0,1
574 361 m 0,11,12
 574 456 574 456 542.5 517 c 128,-1,13
 511 578 511 578 450.5 607.5 c 128,-1,14
 390 637 390 637 304 637 c 2,15,-1
 187 637 l 1,16,-1
 187 77 l 1,17,-1
 284 77 l 2,18,19
 429 77 429 77 501.5 148.5 c 128,-1,20
 574 220 574 220 574 361 c 0,11,12
EndSplineSet
EndChar

StartChar: Udieresis
Encoding: 220 220 99
Width: 556
Flags: W
LayerCount: 2
Fore
SplineSet
496 0 m 1,0,-1
 97 0 l 1,1,-1
 97 714 l 1,2,-1
 496 714 l 1,3,-1
 496 635 l 1,4,-1
 187 635 l 1,5,-1
 187 412 l 1,6,-1
 478 412 l 1,7,-1
 478 334 l 1,8,-1
 187 334 l 1,9,-1
 187 79 l 1,10,-1
 496 79 l 1,11,-1
 496 0 l 1,0,-1
EndSplineSet
EndChar

StartChar: Ugrave
Encoding: 217 217 100
Width: 650
Flags: W
LayerCount: 2
Fore
SplineSet
301 714 m 2,0,1
 435 714 435 714 503.5 674.5 c 128,-1,2
 572 635 572 635 572 537 c 0,3,4
 572 495 572 495 556.5 462.5 c 128,-1,5
 541 430 541 430 510.5 408.5 c 128,-1,6
 480 387 480 387 436 379 c 1,7,-1
 436 374 l 1,8,9
 481 367 481 367 517.5 348 c 128,-1,10
 554 329 554 329 575 294 c 128,-1,11
 596 259 596 259 596 203 c 0,12,13
 596 138 596 138 566 92.5 c 128,-1,14
 536 47 536 47 480.5 23.5 c 128,-1,15
 425 0 425 0 348 0 c 2,16,-1
 97 0 l 1,17,-1
 97 714 l 1,18,-1
 301 714 l 2,0,1
319 410 m 2,19,20
 411 410 411 410 445 439.5 c 128,-1,21
 479 469 479 469 479 527 c 0,22,23
 479 586 479 586 437.5 611.5 c 128,-1,24
 396 637 396 637 305 637 c 2,25,-1
 187 637 l 1,26,-1
 187 410 l 1,27,-1
 319 410 l 2,19,20
187 335 m 1,28,-1
 187 76 l 1,29,-1
 331 76 l 2,30,31
 426 76 426 76 463 113 c 128,-1,32
 500 150 500 150 500 210 c 0,33,34
 500 248 500 248 483.5 276 c 128,-1,35
 467 304 467 304 428.5 319.5 c 128,-1,36
 390 335 390 335 324 335 c 2,37,-1
 187 335 l 1,28,-1
EndSplineSet
EndChar

StartChar: V
Encoding: 86 86 101
Width: 600
Flags: W
LayerCount: 2
Fore
SplineSet
600 714 m 1,0,-1
 345 0 l 1,1,-1
 255 0 l 1,2,-1
 0 714 l 1,3,-1
 94 714 l 1,4,-1
 255 256 l 2,5,6
 266 227 266 227 274 200 c 128,-1,7
 282 173 282 173 288.5 148.5 c 128,-1,8
 295 124 295 124 300 100 c 1,9,10
 305 124 305 124 311.5 149 c 128,-1,11
 318 174 318 174 326.5 201 c 128,-1,12
 335 228 335 228 345 258 c 2,13,-1
 505 714 l 1,14,-1
 600 714 l 1,0,-1
EndSplineSet
EndChar

StartChar: W
Encoding: 87 87 102
Width: 930
Flags: W
LayerCount: 2
Fore
SplineSet
917 714 m 1,0,-1
 727 0 l 1,1,-1
 636 0 l 1,2,-1
 497 468 l 2,3,4
 491 489 491 489 485 511 c 128,-1,5
 479 533 479 533 474 553 c 128,-1,6
 469 573 469 573 465.5 587.5 c 128,-1,7
 462 602 462 602 461 609 c 1,8,9
 460 602 460 602 457.5 587.5 c 128,-1,10
 455 573 455 573 450 553 c 128,-1,11
 445 533 445 533 439.5 510.5 c 128,-1,12
 434 488 434 488 427 465 c 2,13,-1
 292 0 l 1,14,-1
 201 0 l 1,15,-1
 12 714 l 1,16,-1
 106 714 l 1,17,-1
 217 278 l 2,18,19
 223 255 223 255 228 232.5 c 128,-1,20
 233 210 233 210 237.5 188.5 c 128,-1,21
 242 167 242 167 245 147 c 128,-1,22
 248 127 248 127 251 108 c 1,23,24
 254 128 254 128 257.5 149 c 128,-1,25
 261 170 261 170 266 192.5 c 128,-1,26
 271 215 271 215 277 238 c 128,-1,27
 283 261 283 261 289 283 c 2,28,-1
 415 714 l 1,29,-1
 508 714 l 1,30,-1
 639 280 l 2,31,32
 646 257 646 257 652 233.5 c 128,-1,33
 658 210 658 210 663 188 c 128,-1,34
 668 166 668 166 671.5 145.5 c 128,-1,35
 675 125 675 125 678 108 c 1,36,37
 681 133 681 133 686 160.5 c 128,-1,38
 691 188 691 188 698 218 c 128,-1,39
 705 248 705 248 713 279 c 2,40,-1
 823 714 l 1,41,-1
 917 714 l 1,0,-1
EndSplineSet
EndChar

StartChar: X
Encoding: 88 88 103
Width: 586
Flags: W
LayerCount: 2
Fore
SplineSet
582 0 m 1,0,-1
 480 0 l 1,1,-1
 291 310 l 1,2,-1
 99 0 l 1,3,-1
 4 0 l 1,4,-1
 241 372 l 1,5,-1
 19 714 l 1,6,-1
 119 714 l 1,7,-1
 294 434 l 1,8,-1
 470 714 l 1,9,-1
 565 714 l 1,10,-1
 344 374 l 1,11,-1
 582 0 l 1,0,-1
EndSplineSet
EndChar

StartChar: Y
Encoding: 89 89 104
Width: 566
Flags: W
LayerCount: 2
Fore
SplineSet
283 363 m 1,0,-1
 469 714 l 1,1,-1
 566 714 l 1,2,-1
 328 277 l 1,3,-1
 328 0 l 1,4,-1
 238 0 l 1,5,-1
 238 273 l 1,6,-1
 0 714 l 1,7,-1
 98 714 l 1,8,-1
 283 363 l 1,0,-1
EndSplineSet
EndChar

StartChar: Yacute
Encoding: 221 221 105
Width: 519
Flags: W
LayerCount: 2
Fore
SplineSet
187 0 m 1,0,-1
 97 0 l 1,1,-1
 97 714 l 1,2,-1
 496 714 l 1,3,-1
 496 635 l 1,4,-1
 187 635 l 1,5,-1
 187 382 l 1,6,-1
 477 382 l 1,7,-1
 477 303 l 1,8,-1
 187 303 l 1,9,-1
 187 0 l 1,0,-1
EndSplineSet
EndChar

StartChar: Z
Encoding: 90 90 106
Width: 572
Flags: W
LayerCount: 2
Fore
SplineSet
533 0 m 1,0,-1
 38 0 l 1,1,-1
 38 68 l 1,2,-1
 414 634 l 1,3,-1
 50 634 l 1,4,-1
 50 714 l 1,5,-1
 523 714 l 1,6,-1
 523 646 l 1,7,-1
 147 80 l 1,8,-1
 533 80 l 1,9,-1
 533 0 l 1,0,-1
EndSplineSet
EndChar

StartChar: a
Encoding: 97 97 107
Width: 561
Flags: W
LayerCount: 2
Fore
SplineSet
288 545 m 0,0,1
 386 545 386 545 433 502 c 128,-1,2
 480 459 480 459 480 365 c 2,3,-1
 480 0 l 1,4,-1
 416 0 l 1,5,-1
 399 76 l 1,6,-1
 395 76 l 1,7,8
 372 47 372 47 347.5 27.5 c 128,-1,9
 323 8 323 8 291.5 -1 c 128,-1,10
 260 -10 260 -10 215 -10 c 0,11,12
 167 -10 167 -10 128.5 7 c 128,-1,13
 90 24 90 24 68 59.5 c 128,-1,14
 46 95 46 95 46 149 c 0,15,16
 46 229 46 229 109 272.5 c 128,-1,17
 172 316 172 316 303 320 c 2,18,-1
 394 323 l 1,19,-1
 394 355 l 2,20,21
 394 422 394 422 365 448 c 128,-1,22
 336 474 336 474 283 474 c 0,23,24
 241 474 241 474 203 461.5 c 128,-1,25
 165 449 165 449 132 433 c 1,26,-1
 105 499 l 1,27,28
 140 518 140 518 188 531.5 c 128,-1,29
 236 545 236 545 288 545 c 0,0,1
314 259 m 2,30,31
 214 255 214 255 175.5 227 c 128,-1,32
 137 199 137 199 137 148 c 0,33,34
 137 103 137 103 164.5 82 c 128,-1,35
 192 61 192 61 235 61 c 0,36,37
 303 61 303 61 348 98.5 c 128,-1,38
 393 136 393 136 393 214 c 2,39,-1
 393 262 l 1,40,-1
 314 259 l 2,30,31
EndSplineSet
EndChar

StartChar: aacute
Encoding: 225 225 108
Width: 273
Flags: W
LayerCount: 2
Fore
SplineSet
-4 -190 m 0,0,1
 -28 -190 -28 -190 -46 -186.5 c 128,-1,2
 -64 -183 -64 -183 -78 -177 c 1,3,-1
 -78 -101 l 1,4,5
 -62 -105 -62 -105 -44 -108 c 128,-1,6
 -26 -111 -26 -111 -6 -111 c 0,7,8
 19 -111 19 -111 41.5 -101 c 128,-1,9
 64 -91 64 -91 78 -66 c 128,-1,10
 92 -41 92 -41 92 4 c 2,11,-1
 92 714 l 1,12,-1
 182 714 l 1,13,-1
 182 11 l 2,14,15
 182 -58 182 -58 159 -102.5 c 128,-1,16
 136 -147 136 -147 94 -168.5 c 128,-1,17
 52 -190 52 -190 -4 -190 c 0,0,1
EndSplineSet
EndChar

StartChar: acircumflex
Encoding: 226 226 110
Width: 619
Flags: W
LayerCount: 2
Fore
SplineSet
619 0 m 1,0,-1
 513 0 l 1,1,-1
 260 341 l 1,2,-1
 187 277 l 1,3,-1
 187 0 l 1,4,-1
 97 0 l 1,5,-1
 97 714 l 1,6,-1
 187 714 l 1,7,-1
 187 362 l 1,8,9
 217 396 217 396 248 430 c 128,-1,10
 279 464 279 464 310 498 c 2,11,-1
 503 714 l 1,12,-1
 608 714 l 1,13,-1
 325 403 l 1,14,-1
 619 0 l 1,0,-1
EndSplineSet
EndChar

StartChar: adieresis
Encoding: 228 228 111
Width: 907
Flags: W
LayerCount: 2
Fore
SplineSet
412 0 m 1,0,-1
 177 626 l 1,1,-1
 173 626 l 1,2,3
 175 606 175 606 176.5 575 c 128,-1,4
 178 544 178 544 179 507.5 c 128,-1,5
 180 471 180 471 180 433 c 2,6,-1
 180 0 l 1,7,-1
 97 0 l 1,8,-1
 97 714 l 1,9,-1
 230 714 l 1,10,-1
 450 129 l 1,11,-1
 454 129 l 1,12,-1
 678 714 l 1,13,-1
 810 714 l 1,14,-1
 810 0 l 1,15,-1
 721 0 l 1,16,-1
 721 439 l 2,17,18
 721 474 721 474 722 508.5 c 128,-1,19
 723 543 723 543 725 573.5 c 128,-1,20
 727 604 727 604 728 625 c 1,21,-1
 724 625 l 1,22,-1
 486 0 l 1,23,-1
 412 0 l 1,0,-1
EndSplineSet
EndChar

StartChar: agrave
Encoding: 224 224 112
Width: 339
Flags: W
LayerCount: 2
Fore
SplineSet
298 0 m 1,0,-1
 40 0 l 1,1,-1
 40 52 l 1,2,-1
 124 71 l 1,3,-1
 124 642 l 1,4,-1
 40 662 l 1,5,-1
 40 714 l 1,6,-1
 298 714 l 1,7,-1
 298 662 l 1,8,-1
 214 642 l 1,9,-1
 214 71 l 1,10,-1
 298 52 l 1,11,-1
 298 0 l 1,0,-1
EndSplineSet
EndChar

StartChar: aring
Encoding: 229 229 115
Width: 760
Flags: W
LayerCount: 2
Fore
SplineSet
663 0 m 1,0,-1
 558 0 l 1,1,-1
 176 593 l 1,2,-1
 172 593 l 1,3,4
 174 570 174 570 175.5 538.5 c 128,-1,5
 177 507 177 507 178.5 471.5 c 128,-1,6
 180 436 180 436 180 399 c 2,7,-1
 180 0 l 1,8,-1
 97 0 l 1,9,-1
 97 714 l 1,10,-1
 201 714 l 1,11,-1
 582 123 l 1,12,-1
 586 123 l 1,13,14
 585 139 585 139 583.5 171 c 128,-1,15
 582 203 582 203 580.5 241 c 128,-1,16
 579 279 579 279 579 311 c 2,17,-1
 579 714 l 1,18,-1
 663 714 l 1,19,-1
 663 0 l 1,0,-1
EndSplineSet
EndChar

StartChar: atilde
Encoding: 227 227 116
Width: 524
Flags: W
LayerCount: 2
Fore
SplineSet
97 0 m 1,0,-1
 97 714 l 1,1,-1
 187 714 l 1,2,-1
 187 80 l 1,3,-1
 499 80 l 1,4,-1
 499 0 l 1,5,-1
 97 0 l 1,0,-1
EndSplineSet
EndChar

StartChar: ae
Encoding: 230 230 117
Width: 781
Flags: W
LayerCount: 2
Fore
SplineSet
720 358 m 0,0,1
 720 275 720 275 699 207.5 c 128,-1,2
 678 140 678 140 636.5 91 c 128,-1,3
 595 42 595 42 533.5 16 c 128,-1,4
 472 -10 472 -10 391 -10 c 0,5,6
 307 -10 307 -10 245 16.5 c 128,-1,7
 183 43 183 43 142 91.5 c 128,-1,8
 101 140 101 140 81 208 c 128,-1,9
 61 276 61 276 61 359 c 0,10,11
 61 469 61 469 97 551 c 128,-1,12
 133 633 133 633 206.5 679 c 128,-1,13
 280 725 280 725 392 725 c 0,14,15
 499 725 499 725 572 679.5 c 128,-1,16
 645 634 645 634 682.5 551.5 c 128,-1,17
 720 469 720 469 720 358 c 0,0,1
156 358 m 256,18,19
 156 268 156 268 181 203 c 128,-1,20
 206 138 206 138 258.5 103 c 128,-1,21
 311 68 311 68 391 68 c 0,22,23
 472 68 472 68 523.5 103 c 128,-1,24
 575 138 575 138 600 203 c 128,-1,25
 625 268 625 268 625 358 c 0,26,27
 625 493 625 493 569 569.5 c 128,-1,28
 513 646 513 646 392 646 c 0,29,30
 311 646 311 646 258.5 611.5 c 128,-1,31
 206 577 206 577 181 512.5 c 128,-1,32
 156 448 156 448 156 358 c 256,18,19
EndSplineSet
EndChar

StartChar: b
Encoding: 98 98 118
Width: 615
Flags: W
LayerCount: 2
Fore
SplineSet
173 575 m 2,0,1
 173 541 173 541 171.5 511.5 c 128,-1,2
 170 482 170 482 168 465 c 1,3,-1
 173 465 l 1,4,5
 196 499 196 499 236 522 c 128,-1,6
 276 545 276 545 339 545 c 0,7,8
 439 545 439 545 499.5 475.5 c 128,-1,9
 560 406 560 406 560 268 c 0,10,11
 560 176 560 176 532.5 114 c 128,-1,12
 505 52 505 52 455 21 c 128,-1,13
 405 -10 405 -10 339 -10 c 0,14,15
 276 -10 276 -10 236 13 c 128,-1,16
 196 36 196 36 173 68 c 1,17,-1
 166 68 l 1,18,-1
 148 0 l 1,19,-1
 85 0 l 1,20,-1
 85 760 l 1,21,-1
 173 760 l 1,22,-1
 173 575 l 2,0,1
324 472 m 0,23,24
 267 472 267 472 234 450.5 c 128,-1,25
 201 429 201 429 187 384.5 c 128,-1,26
 173 340 173 340 173 271 c 2,27,-1
 173 267 l 2,28,29
 173 168 173 168 205.5 115.5 c 128,-1,30
 238 63 238 63 326 63 c 0,31,32
 398 63 398 63 433.5 116 c 128,-1,33
 469 169 469 169 469 269 c 0,34,35
 469 370 469 370 433.5 421 c 128,-1,36
 398 472 398 472 324 472 c 0,23,24
EndSplineSet
EndChar

StartChar: c
Encoding: 99 99 119
Width: 632
Flags: W
LayerCount: 2
Fore
SplineSet
350.422851562 419.932617188 m 6,0,1
 350.422851562 419.061523438 350.422851562 419.061523438 349.51953125 395.610351562 c 4,2,3
 349.045898438 383.329101562 349.045898438 383.329101562 347.409179688 373.157226562 c 5,4,-1
 351.026367188 373.157226562 l 5,5,6
 361.1015625 391.004882812 361.1015625 391.004882812 376.944335938 401.846679688 c 4,7,8
 392.961914062 413.073242188 392.961914062 413.073242188 411.905273438 418.998046875 c 4,9,10
 430.849609375 424.587890625 430.849609375 424.587890625 451.688476562 424.922851562 c 4,11,12
 491.127929688 424.587890625 491.127929688 424.587890625 517.088867188 412.13671875 c 4,13,14
 548.821289062 396.76171875 548.821289062 396.76171875 556.571289062 372.53515625 c 4,15,16
 569.831054688 328.454101562 569.831054688 328.454101562 569.831054688 302.682617188 c 6,17,-1
 569.831054688 174.158203125 l 5,18,-1
 517.390625 174.158203125 l 5,19,-1
 517.390625 264.014648438 l 6,20,21
 517.821289062 304.650390625 517.821289062 304.650390625 499.91015625 324.510742188 c 4,22,23
 481.655273438 344.94921875 481.655273438 344.94921875 445.057617188 344.46875 c 4,24,25
 407.599609375 343.989257812 407.599609375 343.989257812 388.3984375 330.436523438 c 4,26,27
 363.68359375 313.28515625 363.68359375 313.28515625 359.163085938 289.2734375 c 4,28,29
 350.422851562 236.357421875 350.422851562 236.357421875 350.422851562 222.852539062 c 6,30,-1
 350.422851562 174.158203125 l 5,31,-1
 297.379882812 174.158203125 l 5,32,-1
 297.379882812 543.565429688 l 5,33,-1
 350.422851562 543.565429688 l 5,34,-1
 350.422851562 419.932617188 l 6,0,1
403 645 m 0,35,36
 346 645 346 645 300 625.5 c 128,-1,37
 254 606 254 606 222 568.5 c 128,-1,38
 190 531 190 531 173 477.5 c 128,-1,39
 156 424 156 424 156 357 c 0,40,41
 156 269 156 269 183.5 204 c 128,-1,42
 211 139 211 139 265.5 104 c 128,-1,43
 320 69 320 69 402 69 c 0,44,45
 449 69 449 69 491 77 c 128,-1,46
 533 85 533 85 573 97 c 1,47,-1
 573 19 l 1,48,49
 533 4 533 4 490.5 -3 c 128,-1,50
 448 -10 448 -10 389 -10 c 0,51,52
 280 -10 280 -10 207 35 c 128,-1,53
 134 80 134 80 97.5 163 c 128,-1,54
 61 246 61 246 61 358 c 0,55,56
 61 439 61 439 83.5 506 c 128,-1,57
 106 573 106 573 149.5 622 c 128,-1,58
 193 671 193 671 257 697.5 c 128,-1,59
 321 724 321 724 404 724 c 0,60,61
 459 724 459 724 510 713 c 128,-1,62
 561 702 561 702 601 682 c 1,63,-1
 565 606 l 1,64,65
 532 621 532 621 491.5 633 c 128,-1,66
 451 645 451 645 403 645 c 0,35,36
EndSplineSet
EndChar

StartChar: ccedilla
Encoding: 231 231 121
Width: 605
Flags: W
LayerCount: 2
Fore
SplineSet
286 714 m 2,0,1
 426 714 426 714 490 659 c 128,-1,2
 554 604 554 604 554 504 c 0,3,4
 554 460 554 460 539.5 419.5 c 128,-1,5
 525 379 525 379 492 347 c 128,-1,6
 459 315 459 315 404 296.5 c 128,-1,7
 349 278 349 278 269 278 c 2,8,-1
 187 278 l 1,9,-1
 187 0 l 1,10,-1
 97 0 l 1,11,-1
 97 714 l 1,12,-1
 286 714 l 2,0,1
278 637 m 2,13,-1
 187 637 l 1,14,-1
 187 355 l 1,15,-1
 259 355 l 2,16,17
 327 355 327 355 372 369.5 c 128,-1,18
 417 384 417 384 439 416 c 128,-1,19
 461 448 461 448 461 500 c 0,20,21
 461 569 461 569 417 603 c 128,-1,22
 373 637 373 637 278 637 c 2,13,-1
EndSplineSet
EndChar

StartChar: d
Encoding: 100 100 123
Width: 615
Flags: W
LayerCount: 2
Fore
SplineSet
275 -10 m 0,0,1
 175 -10 175 -10 115 59.5 c 128,-1,2
 55 129 55 129 55 267 c 256,3,4
 55 405 55 405 115.5 475.5 c 128,-1,5
 176 546 176 546 276 546 c 0,6,7
 318 546 318 546 349 535.5 c 128,-1,8
 380 525 380 525 403 507 c 128,-1,9
 426 489 426 489 442 467 c 1,10,-1
 448 467 l 1,11,12
 447 480 447 480 444.5 505.5 c 128,-1,13
 442 531 442 531 442 546 c 2,14,-1
 442 760 l 1,15,-1
 530 760 l 1,16,-1
 530 0 l 1,17,-1
 459 0 l 1,18,-1
 446 72 l 1,19,-1
 442 72 l 1,20,21
 426 49 426 49 403 30.5 c 128,-1,22
 380 12 380 12 348.5 1 c 128,-1,23
 317 -10 317 -10 275 -10 c 0,0,1
289 63 m 0,24,25
 374 63 374 63 408.5 109.5 c 128,-1,26
 443 156 443 156 443 250 c 2,27,-1
 443 266 l 2,28,29
 443 366 443 366 410 419.5 c 128,-1,30
 377 473 377 473 288 473 c 0,31,32
 217 473 217 473 181.5 416.5 c 128,-1,33
 146 360 146 360 146 265 c 0,34,35
 146 169 146 169 181.5 116 c 128,-1,36
 217 63 217 63 289 63 c 0,24,25
EndSplineSet
EndChar

StartChar: eth
Encoding: 240 240 124
Width: 566
Flags: W
LayerCount: 2
Fore
SplineSet
283 363 m 1,0,-1
 469 714 l 1,1,-1
 566 714 l 1,2,-1
 328 277 l 1,3,-1
 328 0 l 1,4,-1
 238 0 l 1,5,-1
 238 273 l 1,6,-1
 0 714 l 1,7,-1
 98 714 l 1,8,-1
 283 363 l 1,0,-1
EndSplineSet
EndChar

StartChar: e
Encoding: 101 101 125
Width: 564
Flags: W
LayerCount: 2
Fore
SplineSet
292 546 m 0,0,1
 361 546 361 546 410.5 516 c 128,-1,2
 460 486 460 486 486.5 431.5 c 128,-1,3
 513 377 513 377 513 304 c 2,4,-1
 513 251 l 1,5,-1
 146 251 l 1,6,7
 148 160 148 160 192.5 112.5 c 128,-1,8
 237 65 237 65 317 65 c 0,9,10
 368 65 368 65 407.5 74.5 c 128,-1,11
 447 84 447 84 489 102 c 1,12,-1
 489 25 l 1,13,14
 448 7 448 7 408 -1.5 c 128,-1,15
 368 -10 368 -10 313 -10 c 0,16,17
 237 -10 237 -10 178.5 21 c 128,-1,18
 120 52 120 52 87.5 113.5 c 128,-1,19
 55 175 55 175 55 264 c 0,20,21
 55 352 55 352 84.5 415 c 128,-1,22
 114 478 114 478 167.5 512 c 128,-1,23
 221 546 221 546 292 546 c 0,0,1
291 474 m 0,24,25
 228 474 228 474 191.5 433.5 c 128,-1,26
 155 393 155 393 148 321 c 1,27,-1
 421 321 l 1,28,29
 421 367 421 367 407 401 c 128,-1,30
 393 435 393 435 364.5 454.5 c 128,-1,31
 336 474 336 474 291 474 c 0,24,25
EndSplineSet
EndChar

StartChar: eacute
Encoding: 233 233 126
Width: 622
Flags: W
LayerCount: 2
Fore
SplineSet
294 714 m 2,0,1
 383 714 383 714 440.5 691.5 c 128,-1,2
 498 669 498 669 526 624 c 128,-1,3
 554 579 554 579 554 511 c 0,4,5
 554 454 554 454 533 416 c 128,-1,6
 512 378 512 378 479.5 355.5 c 128,-1,7
 447 333 447 333 411 320 c 1,8,-1
 607 0 l 1,9,-1
 502 0 l 1,10,-1
 329 295 l 1,11,-1
 187 295 l 1,12,-1
 187 0 l 1,13,-1
 97 0 l 1,14,-1
 97 714 l 1,15,-1
 294 714 l 2,0,1
289 636 m 2,16,-1
 187 636 l 1,17,-1
 187 371 l 1,18,-1
 294 371 l 2,19,20
 381 371 381 371 421 405.5 c 128,-1,21
 461 440 461 440 461 507 c 0,22,23
 461 554 461 554 442.5 582 c 128,-1,24
 424 610 424 610 386 623 c 128,-1,25
 348 636 348 636 289 636 c 2,16,-1
EndSplineSet
EndChar

StartChar: ecircumflex
Encoding: 234 234 127
Width: 549
Flags: W
LayerCount: 2
Fore
SplineSet
502 191 m 0,0,1
 502 127 502 127 471 82.5 c 128,-1,2
 440 38 440 38 382.5 14 c 128,-1,3
 325 -10 325 -10 247 -10 c 0,4,5
 207 -10 207 -10 170.5 -6 c 128,-1,6
 134 -2 134 -2 104 5.5 c 128,-1,7
 74 13 74 13 51 24 c 1,8,-1
 51 110 l 1,9,10
 87 94 87 94 140.5 81 c 128,-1,11
 194 68 194 68 251 68 c 0,12,13
 304 68 304 68 340 82 c 128,-1,14
 376 96 376 96 394 122 c 128,-1,15
 412 148 412 148 412 183 c 256,16,17
 412 218 412 218 397 242 c 128,-1,18
 382 266 382 266 345.5 286.5 c 128,-1,19
 309 307 309 307 244 330 c 0,20,21
 198 347 198 347 163.5 366.5 c 128,-1,22
 129 386 129 386 106 411 c 128,-1,23
 83 436 83 436 71.5 468 c 128,-1,24
 60 500 60 500 60 542 c 0,25,26
 60 599 60 599 89 639.5 c 128,-1,27
 118 680 118 680 169.5 702 c 128,-1,28
 221 724 221 724 288 724 c 0,29,30
 347 724 347 724 396 713 c 128,-1,31
 445 702 445 702 485 684 c 1,32,-1
 457 607 l 1,33,34
 420 623 420 623 376.5 634 c 128,-1,35
 333 645 333 645 286 645 c 0,36,37
 241 645 241 645 211 632 c 128,-1,38
 181 619 181 619 166 595.5 c 128,-1,39
 151 572 151 572 151 541 c 0,40,41
 151 505 151 505 166 481 c 128,-1,42
 181 457 181 457 215 438 c 128,-1,43
 249 419 249 419 307 397 c 0,44,45
 370 374 370 374 413.5 347.5 c 128,-1,46
 457 321 457 321 479.5 284 c 128,-1,47
 502 247 502 247 502 191 c 0,0,1
EndSplineSet
EndChar

StartChar: edieresis
Encoding: 235 235 128
Width: 556
Flags: W
LayerCount: 2
Fore
SplineSet
323 0 m 1,0,-1
 233 0 l 1,1,-1
 233 635 l 1,2,-1
 10 635 l 1,3,-1
 10 714 l 1,4,-1
 545 714 l 1,5,-1
 545 635 l 1,6,-1
 323 635 l 1,7,-1
 323 0 l 1,0,-1
EndSplineSet
EndChar

StartChar: egrave
Encoding: 232 232 129
Width: 781
Flags: W
LayerCount: 2
Fore
SplineSet
720 358 m 0,0,1
 720 271 720 271 696.5 200 c 128,-1,2
 673 129 673 129 627 80 c 128,-1,3
 581 31 581 31 512 8 c 1,4,-1
 683 -170 l 1,5,-1
 554 -170 l 1,6,-1
 416 -9 l 1,7,8
 410 -9 410 -9 403.5 -9.5 c 128,-1,9
 397 -10 397 -10 391 -10 c 0,10,11
 307 -10 307 -10 245 16.5 c 128,-1,12
 183 43 183 43 142 91.5 c 128,-1,13
 101 140 101 140 81 208 c 128,-1,14
 61 276 61 276 61 359 c 0,15,16
 61 469 61 469 97 551 c 128,-1,17
 133 633 133 633 206.5 679 c 128,-1,18
 280 725 280 725 392 725 c 0,19,20
 499 725 499 725 572 679.5 c 128,-1,21
 645 634 645 634 682.5 551.5 c 128,-1,22
 720 469 720 469 720 358 c 0,0,1
156 358 m 256,23,24
 156 268 156 268 181 203 c 128,-1,25
 206 138 206 138 258.5 103 c 128,-1,26
 311 68 311 68 391 68 c 0,27,28
 472 68 472 68 523.5 103 c 128,-1,29
 575 138 575 138 600 203 c 128,-1,30
 625 268 625 268 625 358 c 0,31,32
 625 493 625 493 569 569.5 c 128,-1,33
 513 646 513 646 392 646 c 0,34,35
 311 646 311 646 258.5 611.5 c 128,-1,36
 206 577 206 577 181 512.5 c 128,-1,37
 156 448 156 448 156 358 c 256,23,24
EndSplineSet
EndChar

StartChar: f
Encoding: 102 102 130
Width: 344
Flags: W
LayerCount: 2
Fore
SplineSet
332 468 m 1,0,-1
 197 468 l 1,1,-1
 197 0 l 1,2,-1
 109 0 l 1,3,-1
 109 468 l 1,4,-1
 15 468 l 1,5,-1
 15 509 l 1,6,-1
 109 539 l 1,7,-1
 109 570 l 2,8,9
 109 639 109 639 129.5 682 c 128,-1,10
 150 725 150 725 189 745 c 128,-1,11
 228 765 228 765 283 765 c 0,12,13
 315 765 315 765 341.5 759.5 c 128,-1,14
 368 754 368 754 387 747 c 1,15,-1
 364 678 l 1,16,17
 348 683 348 683 327 688 c 128,-1,18
 306 693 306 693 284 693 c 0,19,20
 240 693 240 693 218.5 663.5 c 128,-1,21
 197 634 197 634 197 571 c 2,22,-1
 197 536 l 1,23,-1
 332 536 l 1,24,-1
 332 468 l 1,0,-1
EndSplineSet
EndChar

StartChar: g
Encoding: 103 103 131
Width: 615
Flags: W
LayerCount: 2
Fore
SplineSet
275 546 m 0,0,1
 328 546 328 546 370.5 526 c 128,-1,2
 413 506 413 506 443 465 c 1,3,-1
 448 465 l 1,4,-1
 460 536 l 1,5,-1
 530 536 l 1,6,-1
 530 -9 l 2,7,8
 530 -85 530 -85 504 -136.5 c 128,-1,9
 478 -188 478 -188 425 -214 c 128,-1,10
 372 -240 372 -240 290 -240 c 0,11,12
 232 -240 232 -240 183.5 -231.5 c 128,-1,13
 135 -223 135 -223 97 -206 c 1,14,-1
 97 -125 l 1,15,16
 135 -145 135 -145 186 -156 c 128,-1,17
 237 -167 237 -167 295 -167 c 0,18,19
 364 -167 364 -167 403.5 -126.5 c 128,-1,20
 443 -86 443 -86 443 -16 c 2,21,-1
 443 5 l 2,22,23
 443 17 443 17 444 39.5 c 128,-1,24
 445 62 445 62 446 71 c 1,25,-1
 442 71 l 1,26,27
 414 30 414 30 372.5 10 c 128,-1,28
 331 -10 331 -10 276 -10 c 0,29,30
 172 -10 172 -10 113.5 63 c 128,-1,31
 55 136 55 136 55 267 c 0,32,33
 55 395 55 395 113.5 470.5 c 128,-1,34
 172 546 172 546 275 546 c 0,0,1
287 472 m 0,35,36
 242 472 242 472 210.5 448 c 128,-1,37
 179 424 179 424 162.5 378 c 128,-1,38
 146 332 146 332 146 266 c 0,39,40
 146 167 146 167 182.5 114.5 c 128,-1,41
 219 62 219 62 289 62 c 0,42,43
 330 62 330 62 359 72.5 c 128,-1,44
 388 83 388 83 407 105.5 c 128,-1,45
 426 128 426 128 435 163 c 128,-1,46
 444 198 444 198 444 246 c 2,47,-1
 444 267 l 2,48,49
 444 340 444 340 427.5 385 c 128,-1,50
 411 430 411 430 376 451 c 128,-1,51
 341 472 341 472 287 472 c 0,35,36
EndSplineSet
EndChar

StartChar: h
Encoding: 104 104 132
Width: 618
Flags: W
LayerCount: 2
Fore
SplineSet
173 537 m 2,0,1
 173 518 173 518 171.5 498 c 128,-1,2
 170 478 170 478 168 462 c 1,3,-1
 174 462 l 1,4,5
 191 490 191 490 217 508 c 128,-1,6
 243 526 243 526 275 535.5 c 128,-1,7
 307 545 307 545 341 545 c 0,8,9
 406 545 406 545 449.5 524.5 c 128,-1,10
 493 504 493 504 515 461 c 128,-1,11
 537 418 537 418 537 349 c 2,12,-1
 537 0 l 1,13,-1
 450 0 l 1,14,-1
 450 343 l 2,15,16
 450 408 450 408 421 440 c 128,-1,17
 392 472 392 472 330 472 c 0,18,19
 270 472 270 472 236 449.5 c 128,-1,20
 202 427 202 427 187.5 383.5 c 128,-1,21
 173 340 173 340 173 277 c 2,22,-1
 173 0 l 1,23,-1
 85 0 l 1,24,-1
 85 760 l 1,25,-1
 173 760 l 1,26,-1
 173 537 l 2,0,1
EndSplineSet
EndChar

StartChar: i
Encoding: 105 105 133
Width: 258
Flags: W
LayerCount: 2
Fore
SplineSet
173 536 m 1,0,-1
 173 0 l 1,1,-1
 85 0 l 1,2,-1
 85 536 l 1,3,-1
 173 536 l 1,0,-1
130 737 m 0,4,5
 150 737 150 737 165.5 723.5 c 128,-1,6
 181 710 181 710 181 681 c 0,7,8
 181 653 181 653 165.5 639 c 128,-1,9
 150 625 150 625 130 625 c 0,10,11
 108 625 108 625 93 639 c 128,-1,12
 78 653 78 653 78 681 c 0,13,14
 78 710 78 710 93 723.5 c 128,-1,15
 108 737 108 737 130 737 c 0,4,5
EndSplineSet
Substitution2: "Single Substitution lookup 25 subtable" dotlessi
Substitution2: "Single Substitution lookup 24 subtable" dotlessi
EndChar

StartChar: iacute
Encoding: 237 237 134
Width: 600
Flags: W
LayerCount: 2
Fore
SplineSet
600 714 m 1,0,-1
 345 0 l 1,1,-1
 255 0 l 1,2,-1
 0 714 l 1,3,-1
 94 714 l 1,4,-1
 255 256 l 2,5,6
 266 227 266 227 274 200 c 128,-1,7
 282 173 282 173 288.5 148.5 c 128,-1,8
 295 124 295 124 300 100 c 1,9,10
 305 124 305 124 311.5 149 c 128,-1,11
 318 174 318 174 326.5 201 c 128,-1,12
 335 228 335 228 345 258 c 2,13,-1
 505 714 l 1,14,-1
 600 714 l 1,0,-1
EndSplineSet
EndChar

StartChar: icircumflex
Encoding: 238 238 135
Width: 930
Flags: W
LayerCount: 2
Fore
SplineSet
917 714 m 1,0,-1
 727 0 l 1,1,-1
 636 0 l 1,2,-1
 497 468 l 2,3,4
 491 489 491 489 485 511 c 128,-1,5
 479 533 479 533 474 553 c 128,-1,6
 469 573 469 573 465.5 587.5 c 128,-1,7
 462 602 462 602 461 609 c 1,8,9
 460 602 460 602 457.5 587.5 c 128,-1,10
 455 573 455 573 450 553 c 128,-1,11
 445 533 445 533 439.5 510.5 c 128,-1,12
 434 488 434 488 427 465 c 2,13,-1
 292 0 l 1,14,-1
 201 0 l 1,15,-1
 12 714 l 1,16,-1
 106 714 l 1,17,-1
 217 278 l 2,18,19
 223 255 223 255 228 232.5 c 128,-1,20
 233 210 233 210 237.5 188.5 c 128,-1,21
 242 167 242 167 245 147 c 128,-1,22
 248 127 248 127 251 108 c 1,23,24
 254 128 254 128 257.5 149 c 128,-1,25
 261 170 261 170 266 192.5 c 128,-1,26
 271 215 271 215 277 238 c 128,-1,27
 283 261 283 261 289 283 c 2,28,-1
 415 714 l 1,29,-1
 508 714 l 1,30,-1
 639 280 l 2,31,32
 646 257 646 257 652 233.5 c 128,-1,33
 658 210 658 210 663 188 c 128,-1,34
 668 166 668 166 671.5 145.5 c 128,-1,35
 675 125 675 125 678 108 c 1,36,37
 681 133 681 133 686 160.5 c 128,-1,38
 691 188 691 188 698 218 c 128,-1,39
 705 248 705 248 713 279 c 2,40,-1
 823 714 l 1,41,-1
 917 714 l 1,0,-1
EndSplineSet
EndChar

StartChar: idieresis
Encoding: 239 239 136
Width: 586
Flags: W
LayerCount: 2
Fore
SplineSet
582 0 m 1,0,-1
 480 0 l 1,1,-1
 291 310 l 1,2,-1
 99 0 l 1,3,-1
 4 0 l 1,4,-1
 241 372 l 1,5,-1
 19 714 l 1,6,-1
 119 714 l 1,7,-1
 294 434 l 1,8,-1
 470 714 l 1,9,-1
 565 714 l 1,10,-1
 344 374 l 1,11,-1
 582 0 l 1,0,-1
EndSplineSet
EndChar

StartChar: igrave
Encoding: 236 236 137
Width: 731
Flags: W
LayerCount: 2
Fore
SplineSet
640 252 m 2,0,1
 640 178 640 178 610 118.5 c 128,-1,2
 580 59 580 59 518.5 24.5 c 128,-1,3
 457 -10 457 -10 362 -10 c 0,4,5
 229 -10 229 -10 159.5 62.5 c 128,-1,6
 90 135 90 135 90 254 c 2,7,-1
 90 714 l 1,8,-1
 180 714 l 1,9,-1
 180 251 l 2,10,11
 180 164 180 164 226.5 116 c 128,-1,12
 273 68 273 68 367 68 c 0,13,14
 432 68 432 68 472.5 91.5 c 128,-1,15
 513 115 513 115 532 156.5 c 128,-1,16
 551 198 551 198 551 252 c 2,17,-1
 551 714 l 1,18,-1
 640 714 l 1,19,-1
 640 252 l 2,0,1
EndSplineSet
EndChar

StartChar: j
Encoding: 106 106 138
Width: 258
Flags: W
LayerCount: 2
Fore
SplineSet
22 -240 m 0,0,1
 -3 -240 -3 -240 -22 -236.5 c 128,-1,2
 -41 -233 -41 -233 -55 -228 c 1,3,-1
 -55 -157 l 1,4,5
 -40 -161 -40 -161 -24 -164 c 128,-1,6
 -8 -167 -8 -167 11 -167 c 0,7,8
 43 -167 43 -167 64 -149.5 c 128,-1,9
 85 -132 85 -132 85 -83 c 2,10,-1
 85 536 l 1,11,-1
 173 536 l 1,12,-1
 173 -80 l 2,13,14
 173 -130 173 -130 157 -166 c 128,-1,15
 141 -202 141 -202 108 -221 c 128,-1,16
 75 -240 75 -240 22 -240 c 0,0,1
78 681 m 0,17,18
 78 710 78 710 93 723.5 c 128,-1,19
 108 737 108 737 130 737 c 0,20,21
 150 737 150 737 165.5 723.5 c 128,-1,22
 181 710 181 710 181 681 c 0,23,24
 181 653 181 653 165.5 639 c 128,-1,25
 150 625 150 625 130 625 c 0,26,27
 108 625 108 625 93 639 c 128,-1,28
 78 653 78 653 78 681 c 0,17,18
EndSplineSet
Substitution2: "Single Substitution lookup 25 subtable" uni0237
Substitution2: "Single Substitution lookup 24 subtable" uni0237
EndChar

StartChar: k
Encoding: 107 107 139
Width: 534
Flags: W
LayerCount: 2
Fore
SplineSet
172 363 m 2,0,1
 172 347 172 347 170.5 321 c 128,-1,2
 169 295 169 295 168 276 c 1,3,-1
 172 276 l 1,4,5
 178 284 178 284 190 299 c 128,-1,6
 202 314 202 314 214.5 329.5 c 128,-1,7
 227 345 227 345 236 355 c 2,8,-1
 407 536 l 1,9,-1
 510 536 l 1,10,-1
 293 307 l 1,11,-1
 525 0 l 1,12,-1
 419 0 l 1,13,-1
 233 250 l 1,14,-1
 172 197 l 1,15,-1
 172 0 l 1,16,-1
 85 0 l 1,17,-1
 85 760 l 1,18,-1
 172 760 l 1,19,-1
 172 363 l 2,0,1
EndSplineSet
EndChar

StartChar: l
Encoding: 108 108 140
Width: 258
Flags: W
LayerCount: 2
Fore
SplineSet
173 0 m 1,0,-1
 85 0 l 1,1,-1
 85 760 l 1,2,-1
 173 760 l 1,3,-1
 173 0 l 1,0,-1
EndSplineSet
EndChar

StartChar: m
Encoding: 109 109 141
Width: 935
Flags: W
LayerCount: 2
Fore
SplineSet
673 546 m 0,0,1
 764 546 764 546 809 499.5 c 128,-1,2
 854 453 854 453 854 349 c 2,3,-1
 854 0 l 1,4,-1
 767 0 l 1,5,-1
 767 345 l 2,6,7
 767 408 767 408 740.5 440 c 128,-1,8
 714 472 714 472 658 472 c 0,9,10
 580 472 580 472 546.5 427 c 128,-1,11
 513 382 513 382 513 296 c 2,12,-1
 513 0 l 1,13,-1
 426 0 l 1,14,-1
 426 345 l 2,15,16
 426 387 426 387 414 415.5 c 128,-1,17
 402 444 402 444 378 458 c 128,-1,18
 354 472 354 472 316 472 c 0,19,20
 262 472 262 472 231 449.5 c 128,-1,21
 200 427 200 427 186.5 384 c 128,-1,22
 173 341 173 341 173 278 c 2,23,-1
 173 0 l 1,24,-1
 85 0 l 1,25,-1
 85 536 l 1,26,-1
 156 536 l 1,27,-1
 169 463 l 1,28,-1
 174 463 l 1,29,30
 191 491 191 491 215.5 509.5 c 128,-1,31
 240 528 240 528 270 537 c 128,-1,32
 300 546 300 546 332 546 c 0,33,34
 394 546 394 546 435.5 524 c 128,-1,35
 477 502 477 502 496 456 c 1,36,-1
 501 456 l 1,37,38
 528 502 528 502 574.5 524 c 128,-1,39
 621 546 621 546 673 546 c 0,0,1
EndSplineSet
EndChar

StartChar: n
Encoding: 110 110 142
Width: 618
Flags: W
LayerCount: 2
Fore
SplineSet
343 546 m 0,0,1
 439 546 439 546 488 499.5 c 128,-1,2
 537 453 537 453 537 349 c 2,3,-1
 537 0 l 1,4,-1
 450 0 l 1,5,-1
 450 343 l 2,6,7
 450 408 450 408 421 440 c 128,-1,8
 392 472 392 472 330 472 c 0,9,10
 241 472 241 472 207 422 c 128,-1,11
 173 372 173 372 173 278 c 2,12,-1
 173 0 l 1,13,-1
 85 0 l 1,14,-1
 85 536 l 1,15,-1
 156 536 l 1,16,-1
 169 463 l 1,17,-1
 174 463 l 1,18,19
 192 491 192 491 218.5 509.5 c 128,-1,20
 245 528 245 528 277 537 c 128,-1,21
 309 546 309 546 343 546 c 0,0,1
EndSplineSet
EndChar

StartChar: ntilde
Encoding: 241 241 143
Width: 572
Flags: W
LayerCount: 2
Fore
SplineSet
533 0 m 1,0,-1
 38 0 l 1,1,-1
 38 68 l 1,2,-1
 414 634 l 1,3,-1
 50 634 l 1,4,-1
 50 714 l 1,5,-1
 523 714 l 1,6,-1
 523 646 l 1,7,-1
 147 80 l 1,8,-1
 533 80 l 1,9,-1
 533 0 l 1,0,-1
EndSplineSet
EndChar

StartChar: o
Encoding: 111 111 144
Width: 605
Flags: W
LayerCount: 2
Fore
SplineSet
551 269 m 0,0,1
 551 202 551 202 533.5 150.5 c 128,-1,2
 516 99 516 99 483.5 63 c 128,-1,3
 451 27 451 27 404.5 8.5 c 128,-1,4
 358 -10 358 -10 301 -10 c 0,5,6
 248 -10 248 -10 203 8.5 c 128,-1,7
 158 27 158 27 125 63 c 128,-1,8
 92 99 92 99 73.5 150.5 c 128,-1,9
 55 202 55 202 55 269 c 0,10,11
 55 358 55 358 85 419.5 c 128,-1,12
 115 481 115 481 171 513.5 c 128,-1,13
 227 546 227 546 304 546 c 0,14,15
 377 546 377 546 432.5 513.5 c 128,-1,16
 488 481 488 481 519.5 419.5 c 128,-1,17
 551 358 551 358 551 269 c 0,0,1
146 269 m 0,18,19
 146 206 146 206 162.5 159.5 c 128,-1,20
 179 113 179 113 214 88 c 128,-1,21
 249 63 249 63 303 63 c 256,22,23
 357 63 357 63 392 88 c 128,-1,24
 427 113 427 113 443.5 159.5 c 128,-1,25
 460 206 460 206 460 269 c 0,26,27
 460 333 460 333 443 378 c 128,-1,28
 426 423 426 423 391.5 447.5 c 128,-1,29
 357 472 357 472 302 472 c 0,30,31
 220 472 220 472 183 418 c 128,-1,32
 146 364 146 364 146 269 c 0,18,19
EndSplineSet
EndChar

StartChar: oacute
Encoding: 243 243 145
Width: 551
Flags: W
LayerCount: 2
Fore
SplineSet
275 270 m 1,0,-1
 120 116 l 1,1,-1
 70 167 l 1,2,-1
 224 321 l 1,3,-1
 69 477 l 1,4,-1
 120 528 l 1,5,-1
 275 373 l 1,6,-1
 432 528 l 1,7,-1
 483 478 l 1,8,-1
 326 321 l 1,9,-1
 482 165 l 1,10,-1
 432 115 l 1,11,-1
 275 270 l 1,0,-1
EndSplineSet
EndChar

StartChar: ocircumflex
Encoding: 244 244 146
Width: 605
Flags: W
LayerCount: 2
Fore
SplineSet
554 382 m 0,0,1
 554 337 554 337 540 296 c 128,-1,2
 526 255 526 255 493 223.5 c 128,-1,3
 460 192 460 192 405 173.5 c 128,-1,4
 350 155 350 155 268 155 c 2,5,-1
 187 155 l 1,6,-1
 187 0 l 1,7,-1
 97 0 l 1,8,-1
 97 714 l 1,9,-1
 187 714 l 1,10,-1
 187 590 l 1,11,-1
 283 590 l 2,12,13
 428 590 428 590 491 535 c 128,-1,14
 554 480 554 480 554 382 c 0,0,1
259 231 m 2,15,16
 329 231 329 231 373.5 245.5 c 128,-1,17
 418 260 418 260 439.5 292.5 c 128,-1,18
 461 325 461 325 461 377 c 0,19,20
 461 446 461 446 417.5 479.5 c 128,-1,21
 374 513 374 513 276 513 c 2,22,-1
 187 513 l 1,23,-1
 187 231 l 1,24,-1
 259 231 l 2,15,16
EndSplineSet
EndChar

StartChar: odieresis
Encoding: 246 246 147
Width: 632
Flags: W
LayerCount: 2
Fore
SplineSet
382 -139 m 0
 382 -187 382 -187 345 -213.5 c 0
 308 -240 308 -240 234 -240 c 0
 219 -240 219 -240 205.5 -238.5 c 0
 192 -237 192 -237 184 -235 c 1
 184 -180 l 1
 193 -182 193 -182 208 -183.5 c 0
 223 -185 223 -185 237 -185 c 0
 273 -185 273 -185 292 -175.5 c 0
 311 -166 311 -166 311 -141 c 0
 311 -115 311 -115 284.5 -103 c 0
 258 -91 258 -91 220 -86 c 1
 263 0 l 1
 321 0 l 1
 295 -53 l 1
 319 -58 319 -58 339 -68.5 c 0
 359 -79 359 -79 370.5 -96 c 0
 382 -113 382 -113 382 -139 c 0
EndSplineSet
Refer: 119 99 N 1 0 0 1 0 0 3
EndChar

StartChar: otilde
Encoding: 245 245 148
Width: 561
Flags: W
LayerCount: 2
Fore
SplineSet
280 606 m 0
 231 606 231 606 201 634 c 0
 171 662 171 662 171 712 c 256
 171 762 171 762 201 789.5 c 0
 231 817 231 817 280 817 c 0
 327 817 327 817 359 789.5 c 0
 391 762 391 762 391 713 c 0
 391 662 391 662 359.5 634 c 0
 328 606 328 606 280 606 c 0
280 656 m 0
 305 656 305 656 320.5 671 c 0
 336 686 336 686 336 712 c 256
 336 738 336 738 320 753 c 0
 304 768 304 768 280 768 c 256
 256 768 256 768 240 753 c 0
 224 738 224 738 224 712 c 256
 224 686 224 686 238.5 671 c 0
 253 656 253 656 280 656 c 0
EndSplineSet
Refer: 107 97 N 1 0 0 1 0 0 3
EndChar

StartChar: p
Encoding: 112 112 149
Width: 615
Flags: W
LayerCount: 2
Fore
SplineSet
340 546 m 0,0,1
 439 546 439 546 499.5 477 c 128,-1,2
 560 408 560 408 560 269 c 0,3,4
 560 178 560 178 532.5 115.5 c 128,-1,5
 505 53 505 53 455.5 21.5 c 128,-1,6
 406 -10 406 -10 339 -10 c 0,7,8
 298 -10 298 -10 266 1 c 128,-1,9
 234 12 234 12 211.5 29.5 c 128,-1,10
 189 47 189 47 173 68 c 1,11,-1
 167 68 l 1,12,13
 169 51 169 51 171 25 c 128,-1,14
 173 -1 173 -1 173 -20 c 2,15,-1
 173 -240 l 1,16,-1
 85 -240 l 1,17,-1
 85 536 l 1,18,-1
 157 536 l 1,19,-1
 169 463 l 1,20,-1
 173 463 l 1,21,22
 189 486 189 486 211.5 505 c 128,-1,23
 234 524 234 524 265.5 535 c 128,-1,24
 297 546 297 546 340 546 c 0,0,1
324 472 m 0,25,26
 270 472 270 472 237 451.5 c 128,-1,27
 204 431 204 431 189 390 c 128,-1,28
 174 349 174 349 173 286 c 2,29,-1
 173 269 l 2,30,31
 173 203 173 203 187 157 c 128,-1,32
 201 111 201 111 234.5 87 c 128,-1,33
 268 63 268 63 326 63 c 0,34,35
 375 63 375 63 406.5 90 c 128,-1,36
 438 117 438 117 453.5 163.5 c 128,-1,37
 469 210 469 210 469 270 c 0,38,39
 469 362 469 362 433.5 417 c 128,-1,40
 398 472 398 472 324 472 c 0,25,26
EndSplineSet
EndChar

StartChar: q
Encoding: 113 113 151
Width: 615
Flags: W
LayerCount: 2
Fore
SplineSet
442 -11 m 2,0,1
 442 7 442 7 443 31 c 128,-1,2
 444 55 444 55 447 72 c 1,3,-1
 441 72 l 1,4,5
 418 38 418 38 377.5 14 c 128,-1,6
 337 -10 337 -10 273 -10 c 0,7,8
 176 -10 176 -10 115.5 59.5 c 128,-1,9
 55 129 55 129 55 267 c 0,10,11
 55 359 55 359 83 421 c 128,-1,12
 111 483 111 483 161 514.5 c 128,-1,13
 211 546 211 546 276 546 c 0,14,15
 339 546 339 546 379 522 c 128,-1,16
 419 498 419 498 443 463 c 1,17,-1
 447 463 l 1,18,-1
 460 536 l 1,19,-1
 530 536 l 1,20,-1
 530 -240 l 1,21,-1
 442 -240 l 1,22,-1
 442 -11 l 2,0,1
290 63 m 0,23,24
 345 63 345 63 378.5 83 c 128,-1,25
 412 103 412 103 427 144.5 c 128,-1,26
 442 186 442 186 443 248 c 2,27,-1
 443 266 l 2,28,29
 443 368 443 368 409 420.5 c 128,-1,30
 375 473 375 473 288 473 c 0,31,32
 216 473 216 473 181 416.5 c 128,-1,33
 146 360 146 360 146 265 c 256,34,35
 146 170 146 170 181.5 116.5 c 128,-1,36
 217 63 217 63 290 63 c 0,23,24
EndSplineSet
EndChar

StartChar: r
Encoding: 114 114 152
Width: 413
Flags: W
LayerCount: 2
Fore
SplineSet
335 546 m 0,0,1
 350 546 350 546 367.5 544.5 c 128,-1,2
 385 543 385 543 398 540 c 1,3,-1
 387 459 l 1,4,5
 374 462 374 462 358.5 464 c 128,-1,6
 343 466 343 466 329 466 c 0,7,8
 298 466 298 466 270 453 c 128,-1,9
 242 440 242 440 220 416.5 c 128,-1,10
 198 393 198 393 185.5 360 c 128,-1,11
 173 327 173 327 173 286 c 2,12,-1
 173 0 l 1,13,-1
 85 0 l 1,14,-1
 85 536 l 1,15,-1
 157 536 l 1,16,-1
 167 438 l 1,17,-1
 171 438 l 1,18,19
 188 468 188 468 212 492.5 c 128,-1,20
 236 517 236 517 267 531.5 c 128,-1,21
 298 546 298 546 335 546 c 0,0,1
EndSplineSet
EndChar

StartChar: s
Encoding: 115 115 153
Width: 479
Flags: W
LayerCount: 2
Fore
SplineSet
434 148 m 0,0,1
 434 96 434 96 408 61 c 128,-1,2
 382 26 382 26 334 8 c 128,-1,3
 286 -10 286 -10 220 -10 c 0,4,5
 164 -10 164 -10 123.5 -1 c 128,-1,6
 83 8 83 8 52 24 c 1,7,-1
 52 104 l 1,8,9
 84 88 84 88 129.5 74.5 c 128,-1,10
 175 61 175 61 222 61 c 0,11,12
 289 61 289 61 319 82.5 c 128,-1,13
 349 104 349 104 349 140 c 0,14,15
 349 160 349 160 338 176 c 128,-1,16
 327 192 327 192 298.5 208 c 128,-1,17
 270 224 270 224 217 244 c 0,18,19
 165 264 165 264 128 284 c 128,-1,20
 91 304 91 304 71 332 c 128,-1,21
 51 360 51 360 51 404 c 0,22,23
 51 472 51 472 106.5 509 c 128,-1,24
 162 546 162 546 252 546 c 0,25,26
 301 546 301 546 343.5 536.5 c 128,-1,27
 386 527 386 527 423 510 c 1,28,-1
 393 440 l 1,29,30
 359 454 359 454 322 464 c 128,-1,31
 285 474 285 474 246 474 c 0,32,33
 192 474 192 474 163.5 456.5 c 128,-1,34
 135 439 135 439 135 409 c 0,35,36
 135 387 135 387 148 371.5 c 128,-1,37
 161 356 161 356 191.5 341.5 c 128,-1,38
 222 327 222 327 273 307 c 0,39,40
 324 288 324 288 360 268 c 128,-1,41
 396 248 396 248 415 219.5 c 128,-1,42
 434 191 434 191 434 148 c 0,0,1
EndSplineSet
EndChar

StartChar: germandbls
Encoding: 223 223 154
Width: 741
Flags: W
LayerCount: 2
Fore
SplineSet
643 0 m 1,0,-1
 553 0 l 1,1,-1
 553 333 l 1,2,-1
 187 333 l 1,3,-1
 187 0 l 1,4,-1
 97 0 l 1,5,-1
 97 714 l 1,6,-1
 187 714 l 1,7,-1
 187 412 l 1,8,-1
 553 412 l 1,9,-1
 553 714 l 1,10,-1
 643 714 l 1,11,-1
 643 0 l 1,0,-1
EndSplineSet
EndChar

StartChar: t
Encoding: 116 116 155
Width: 361
Flags: W
LayerCount: 2
Fore
SplineSet
264 62 m 0,0,1
 284 62 284 62 305 65.5 c 128,-1,2
 326 69 326 69 339 73 c 1,3,-1
 339 6 l 1,4,5
 325 -1 325 -1 299 -5.5 c 128,-1,6
 273 -10 273 -10 249 -10 c 0,7,8
 207 -10 207 -10 171.5 4.5 c 128,-1,9
 136 19 136 19 114 55 c 128,-1,10
 92 91 92 91 92 156 c 2,11,-1
 92 468 l 1,12,-1
 16 468 l 1,13,-1
 16 510 l 1,14,-1
 93 545 l 1,15,-1
 128 659 l 1,16,-1
 180 659 l 1,17,-1
 180 536 l 1,18,-1
 335 536 l 1,19,-1
 335 468 l 1,20,-1
 180 468 l 1,21,-1
 180 158 l 2,22,23
 180 109 180 109 203.5 85.5 c 128,-1,24
 227 62 227 62 264 62 c 0,0,1
EndSplineSet
EndChar

StartChar: u
Encoding: 117 117 156
Width: 618
Flags: W
LayerCount: 2
Fore
SplineSet
533 536 m 1,0,-1
 533 0 l 1,1,-1
 461 0 l 1,2,-1
 448 71 l 1,3,-1
 444 71 l 1,4,5
 427 43 427 43 400 25 c 128,-1,6
 373 7 373 7 341 -1.5 c 128,-1,7
 309 -10 309 -10 274 -10 c 0,8,9
 210 -10 210 -10 166.5 10.5 c 128,-1,10
 123 31 123 31 101 74 c 128,-1,11
 79 117 79 117 79 185 c 2,12,-1
 79 536 l 1,13,-1
 168 536 l 1,14,-1
 168 191 l 2,15,16
 168 127 168 127 197 95 c 128,-1,17
 226 63 226 63 287 63 c 0,18,19
 347 63 347 63 381.5 85.5 c 128,-1,20
 416 108 416 108 430.5 151.5 c 128,-1,21
 445 195 445 195 445 257 c 2,22,-1
 445 536 l 1,23,-1
 533 536 l 1,0,-1
EndSplineSet
EndChar

StartChar: v
Encoding: 118 118 158
Width: 508
Flags: W
LayerCount: 2
Fore
SplineSet
203 0 m 1,0,-1
 0 536 l 1,1,-1
 94 536 l 1,2,-1
 208 220 l 2,3,4
 216 198 216 198 225 171 c 128,-1,5
 234 144 234 144 241 119.5 c 128,-1,6
 248 95 248 95 251 78 c 1,7,-1
 255 78 l 1,8,9
 259 95 259 95 266.5 120 c 128,-1,10
 274 145 274 145 283.5 172 c 128,-1,11
 293 199 293 199 300 220 c 2,12,-1
 414 536 l 1,13,-1
 508 536 l 1,14,-1
 304 0 l 1,15,-1
 203 0 l 1,0,-1
EndSplineSet
EndChar

StartChar: w
Encoding: 119 119 159
Width: 786
Flags: W
LayerCount: 2
Fore
SplineSet
431 303 m 2,0,1
 425 324 425 324 419 344.5 c 128,-1,2
 413 365 413 365 408.5 383.5 c 128,-1,3
 404 402 404 402 400 418 c 128,-1,4
 396 434 396 434 394 445 c 1,5,-1
 390 445 l 1,6,7
 388 434 388 434 384.5 418 c 128,-1,8
 381 402 381 402 376.5 383 c 128,-1,9
 372 364 372 364 366.5 343.5 c 128,-1,10
 361 323 361 323 354 302 c 2,11,-1
 258 1 l 1,12,-1
 158 1 l 1,13,-1
 11 537 l 1,14,-1
 102 537 l 1,15,-1
 176 251 l 2,16,17
 184 222 184 222 191 192.5 c 128,-1,18
 198 163 198 163 203.5 136.5 c 128,-1,19
 209 110 209 110 211 91 c 1,20,-1
 215 91 l 1,21,22
 218 103 218 103 222 121 c 128,-1,23
 226 139 226 139 230.5 159 c 128,-1,24
 235 179 235 179 240.5 199 c 128,-1,25
 246 219 246 219 251 235 c 2,26,-1
 346 537 l 1,27,-1
 442 537 l 1,28,-1
 534 235 l 2,29,30
 541 212 541 212 548.5 186 c 128,-1,31
 556 160 556 160 562 135.5 c 128,-1,32
 568 111 568 111 570 92 c 1,33,-1
 574 92 l 1,34,35
 576 109 576 109 581.5 134.5 c 128,-1,36
 587 160 587 160 594.5 190.5 c 128,-1,37
 602 221 602 221 610 251 c 2,38,-1
 685 537 l 1,39,-1
 775 537 l 1,40,-1
 626 1 l 1,41,-1
 523 1 l 1,42,-1
 431 303 l 2,0,1
EndSplineSet
EndChar

StartChar: x
Encoding: 120 120 160
Width: 529
Flags: W
LayerCount: 2
Fore
SplineSet
212 274 m 1,0,-1
 27 536 l 1,1,-1
 127 536 l 1,2,-1
 265 334 l 1,3,-1
 402 536 l 1,4,-1
 501 536 l 1,5,-1
 316 274 l 1,6,-1
 511 0 l 1,7,-1
 411 0 l 1,8,-1
 265 214 l 1,9,-1
 117 0 l 1,10,-1
 18 0 l 1,11,-1
 212 274 l 1,0,-1
EndSplineSet
EndChar

StartChar: y
Encoding: 121 121 161
Width: 510
Flags: W
LayerCount: 2
Fore
SplineSet
1 536 m 1,0,-1
 95 536 l 1,1,-1
 211 231 l 2,2,3
 221 204 221 204 229.5 179 c 128,-1,4
 238 154 238 154 245 130.5 c 128,-1,5
 252 107 252 107 256 85 c 1,6,-1
 260 85 l 1,7,8
 266 110 266 110 279 150.5 c 128,-1,9
 292 191 292 191 306 232 c 2,10,-1
 415 536 l 1,11,-1
 510 536 l 1,12,-1
 279 -74 l 2,13,14
 260 -124 260 -124 234.5 -161.5 c 128,-1,15
 209 -199 209 -199 172.5 -219.5 c 128,-1,16
 136 -240 136 -240 84 -240 c 0,17,18
 60 -240 60 -240 42 -237.5 c 128,-1,19
 24 -235 24 -235 11 -232 c 1,20,-1
 11 -162 l 1,21,22
 22 -164 22 -164 37.5 -166 c 128,-1,23
 53 -168 53 -168 70 -168 c 0,24,25
 101 -168 101 -168 123.5 -156.5 c 128,-1,26
 146 -145 146 -145 162 -123.5 c 128,-1,27
 178 -102 178 -102 189 -73 c 2,28,-1
 217 -2 l 1,29,-1
 1 536 l 1,0,-1
EndSplineSet
EndChar

StartChar: z
Encoding: 122 122 164
Width: 470
Flags: W
LayerCount: 2
Fore
SplineSet
431 0 m 1,0,-1
 39 0 l 1,1,-1
 39 58 l 1,2,-1
 327 468 l 1,3,-1
 56 468 l 1,4,-1
 56 536 l 1,5,-1
 424 536 l 1,6,-1
 424 470 l 1,7,-1
 140 68 l 1,8,-1
 431 68 l 1,9,-1
 431 0 l 1,0,-1
EndSplineSet
EndChar

StartChar: ordfeminine
Encoding: 170 170 165
Width: 597
Flags: W
AnchorPoint: "Anchor-2" 366 0 basechar 0
AnchorPoint: "Anchor-1" 281 0 basechar 0
AnchorPoint: "Anchor-0" 502 622 basechar 0
LayerCount: 2
Fore
SplineSet
249 0 m 0,0,1
 175 0 175 0 127.5 15.5 c 128,-1,2
 80 31 80 31 57.5 59.5 c 128,-1,3
 35 88 35 88 35 127 c 0,4,5
 35 157 35 157 51 182 c 128,-1,6
 67 207 67 207 98.5 222 c 128,-1,7
 130 237 130 237 178 237 c 0,8,9
 236 237 236 237 282.5 217 c 128,-1,10
 329 197 329 197 365 165.5 c 128,-1,11
 401 134 401 134 424 101 c 1,12,-1
 362 67 l 1,13,14
 330 104 330 104 284 135 c 128,-1,15
 238 166 238 166 182 166 c 0,16,17
 149 166 149 166 132.5 155 c 128,-1,18
 116 144 116 144 116 125 c 0,19,20
 116 97 116 97 149.5 83 c 128,-1,21
 183 69 183 69 248 69 c 0,22,23
 284 69 284 69 321.5 74 c 128,-1,24
 359 79 359 79 390.5 93 c 128,-1,25
 422 107 422 107 441.5 133 c 128,-1,26
 461 159 461 159 461 202 c 0,27,28
 461 243 461 243 430 276 c 128,-1,29
 399 309 399 309 349 324 c 1,30,31
 326 320 326 320 296.5 316 c 128,-1,32
 267 312 267 312 236 312 c 0,33,34
 191 312 191 312 167 320.5 c 128,-1,35
 143 329 143 329 134 342 c 128,-1,36
 125 355 125 355 125 369 c 0,37,38
 125 398 125 398 150.5 408.5 c 128,-1,39
 176 419 176 419 212 419 c 0,40,41
 252 419 252 419 287.5 412.5 c 128,-1,42
 323 406 323 406 357 393 c 1,43,44
 392 407 392 407 414.5 436 c 128,-1,45
 437 465 437 465 437 512 c 0,46,47
 437 526 437 526 434.5 542.5 c 128,-1,48
 432 559 432 559 425 578 c 1,49,-1
 458 551 l 1,50,-1
 -7 551 l 1,51,-1
 -7 622 l 1,52,-1
 604 622 l 1,53,-1
 604 551 l 1,54,-1
 487 551 l 1,55,-1
 510 576 l 1,56,57
 514 560 514 560 516 543 c 128,-1,58
 518 526 518 526 518 511 c 0,59,60
 518 449 518 449 493.5 416.5 c 128,-1,61
 469 384 469 384 432 362 c 1,62,63
 488 333 488 333 515.5 293 c 128,-1,64
 543 253 543 253 543 199 c 0,65,66
 543 149 543 149 521.5 111.5 c 128,-1,67
 500 74 500 74 461 49.5 c 128,-1,68
 422 25 422 25 368 12.5 c 128,-1,69
 314 0 314 0 249 0 c 0,0,1
EndSplineSet
EndChar

StartChar: questiondown
Encoding: 191 191 166
Width: 480
Flags: W
LayerCount: 2
Fore
SplineSet
300 -10 m 0,0,1
 229 -10 229 -10 173.5 19 c 128,-1,2
 118 48 118 48 86.5 109 c 128,-1,3
 55 170 55 170 55 265 c 0,4,5
 55 364 55 364 88 426 c 128,-1,6
 121 488 121 488 177.5 517 c 128,-1,7
 234 546 234 546 306 546 c 0,8,9
 347 546 347 546 385 537.5 c 128,-1,10
 423 529 423 529 447 517 c 1,11,-1
 420 444 l 1,12,13
 396 453 396 453 364 461 c 128,-1,14
 332 469 332 469 304 469 c 0,15,16
 250 469 250 469 215 446 c 128,-1,17
 180 423 180 423 163 378 c 128,-1,18
 146 333 146 333 146 266 c 0,19,20
 146 202 146 202 163 157 c 128,-1,21
 180 112 180 112 214 89 c 128,-1,22
 248 66 248 66 299 66 c 0,23,24
 343 66 343 66 376.5 75 c 128,-1,25
 410 84 410 84 438 97 c 1,26,-1
 438 19 l 1,27,28
 411 5 411 5 378.5 -2.5 c 128,-1,29
 346 -10 346 -10 300 -10 c 0,0,1
EndSplineSet
EndChar

StartChar: periodcentered
Encoding: 183 183 167
Width: 576
Flags: W
AnchorPoint: "Anchor-2" 357 0 basechar 0
LayerCount: 2
Fore
SplineSet
309 0 m 0,0,1
 255 0 255 0 206.5 21.5 c 128,-1,2
 158 43 158 43 119.5 79.5 c 128,-1,3
 81 116 81 116 59 162.5 c 128,-1,4
 37 209 37 209 37 258 c 0,5,6
 37 310 37 310 60 343 c 128,-1,7
 83 376 83 376 125.5 392 c 128,-1,8
 168 408 168 408 228 408 c 0,9,10
 239 408 239 408 251 407.5 c 128,-1,11
 263 407 263 407 270 405 c 1,12,-1
 264 333 l 1,13,14
 256 335 256 335 245 335 c 128,-1,15
 234 335 234 335 226 335 c 0,16,17
 175 335 175 335 146.5 317.5 c 128,-1,18
 118 300 118 300 118 253 c 0,19,20
 118 220 118 220 135 188 c 128,-1,21
 152 156 152 156 180.5 130 c 128,-1,22
 209 104 209 104 244.5 88.5 c 128,-1,23
 280 73 280 73 317 73 c 0,24,25
 338 73 338 73 357 78 c 128,-1,26
 376 83 376 83 387 96 c 0,27,28
 396 107 396 107 401 124.5 c 128,-1,29
 406 142 406 142 406 183 c 2,30,-1
 406 551 l 1,31,-1
 -7 551 l 1,32,-1
 -7 622 l 1,33,-1
 583 622 l 1,34,-1
 583 551 l 1,35,-1
 487 551 l 1,36,-1
 487 172 l 2,37,38
 487 113 487 113 467.5 75 c 128,-1,39
 448 37 448 37 408.5 18.5 c 128,-1,40
 369 0 369 0 309 0 c 0,0,1
EndSplineSet
EndChar

StartChar: at
Encoding: 64 64 168
Width: 899
Flags: W
LayerCount: 2
Fore
SplineSet
841 357 m 0,0,1
 841 311 841 311 830.5 267 c 128,-1,2
 820 223 820 223 798 187.5 c 128,-1,3
 776 152 776 152 744 130.5 c 128,-1,4
 712 109 712 109 668 109 c 0,5,6
 622 109 622 109 595.5 135.5 c 128,-1,7
 569 162 569 162 563 196 c 1,8,-1
 558 196 l 1,9,10
 540 159 540 159 505 134 c 128,-1,11
 470 109 470 109 417 109 c 0,12,13
 341 109 341 109 299.5 160 c 128,-1,14
 258 211 258 211 258 295 c 0,15,16
 258 361 258 361 284 411.5 c 128,-1,17
 310 462 310 462 357.5 491 c 128,-1,18
 405 520 405 520 470 520 c 0,19,20
 514 520 514 520 556.5 512.5 c 128,-1,21
 599 505 599 505 623 496 c 1,22,-1
 613 293 l 2,23,24
 612 275 612 275 612 267.5 c 128,-1,25
 612 260 612 260 612 257 c 0,26,27
 612 205 612 205 630.5 188 c 128,-1,28
 649 171 649 171 674 171 c 0,29,30
 705 171 705 171 726.5 196.5 c 128,-1,31
 748 222 748 222 759.5 264.5 c 128,-1,32
 771 307 771 307 771 358 c 0,33,34
 771 451 771 451 733.5 515.5 c 128,-1,35
 696 580 696 580 630.5 614 c 128,-1,36
 565 648 565 648 482 648 c 0,37,38
 397 648 397 648 331 621 c 128,-1,39
 265 594 265 594 220.5 545 c 128,-1,40
 176 496 176 496 153 429.5 c 128,-1,41
 130 363 130 363 130 283 c 0,42,43
 130 185 130 185 165 116.5 c 128,-1,44
 200 48 200 48 267.5 12.5 c 128,-1,45
 335 -23 335 -23 433 -23 c 0,46,47
 494 -23 494 -23 549.5 -9.5 c 128,-1,48
 605 4 605 4 648 20 c 1,49,-1
 648 -48 l 1,50,51
 605 -66 605 -66 551.5 -77.5 c 128,-1,52
 498 -89 498 -89 433 -89 c 0,53,54
 315 -89 315 -89 231 -45 c 128,-1,55
 147 -1 147 -1 102.5 81.5 c 128,-1,56
 58 164 58 164 58 280 c 0,57,58
 58 373 58 373 87 452.5 c 128,-1,59
 116 532 116 532 171 590.5 c 128,-1,60
 226 649 226 649 304.5 681.5 c 128,-1,61
 383 714 383 714 482 714 c 0,62,63
 560 714 560 714 625.5 689.5 c 128,-1,64
 691 665 691 665 739.5 618.5 c 128,-1,65
 788 572 788 572 814.5 506 c 128,-1,66
 841 440 841 440 841 357 c 0,0,1
336 293 m 0,67,68
 336 229 336 229 361.5 200 c 128,-1,69
 387 171 387 171 430 171 c 0,70,71
 486 171 486 171 510.5 213 c 128,-1,72
 535 255 535 255 539 322 c 2,73,-1
 545 447 l 1,74,75
 532 451 532 451 512 454 c 128,-1,76
 492 457 492 457 471 457 c 0,77,78
 422 457 422 457 392 433 c 128,-1,79
 362 409 362 409 349 371.5 c 128,-1,80
 336 334 336 334 336 293 c 0,67,68
EndSplineSet
EndChar

StartChar: ampersand
Encoding: 38 38 169
Width: 732
Flags: W
LayerCount: 2
Fore
SplineSet
304 725 m 0,0,1
 358 725 358 725 396.5 706.5 c 128,-1,2
 435 688 435 688 456 654 c 128,-1,3
 477 620 477 620 477 571 c 0,4,5
 477 508 477 508 436.5 464 c 128,-1,6
 396 420 396 420 334 384 c 1,7,-1
 527 198 l 1,8,9
 553 229 553 229 569.5 269.5 c 128,-1,10
 586 310 586 310 597 357 c 1,11,-1
 686 357 l 1,12,13
 670 293 670 293 646 238 c 128,-1,14
 622 183 622 183 584 142 c 1,15,-1
 730 0 l 1,16,-1
 611 0 l 1,17,-1
 524 84 l 1,18,19
 493 56 493 56 457 35 c 128,-1,20
 421 14 421 14 377.5 2 c 128,-1,21
 334 -10 334 -10 278 -10 c 0,22,23
 209 -10 209 -10 158.5 12.5 c 128,-1,24
 108 35 108 35 80.5 79 c 128,-1,25
 53 123 53 123 53 186 c 0,26,27
 53 237 53 237 71.5 274 c 128,-1,28
 90 311 90 311 125 340 c 128,-1,29
 160 369 160 369 207 396 c 1,30,31
 186 420 186 420 166 446 c 128,-1,32
 146 472 146 472 133 502.5 c 128,-1,33
 120 533 120 533 120 569 c 0,34,35
 120 618 120 618 142 653 c 128,-1,36
 164 688 164 688 205.5 706.5 c 128,-1,37
 247 725 247 725 304 725 c 0,0,1
260 341 m 1,38,39
 224 320 224 320 198.5 298.5 c 128,-1,40
 173 277 173 277 159 251 c 128,-1,41
 145 225 145 225 145 189 c 0,42,43
 145 134 145 134 182 101 c 128,-1,44
 219 68 219 68 281 68 c 0,45,46
 345 68 345 68 391 89 c 128,-1,47
 437 110 437 110 468 139 c 1,48,-1
 260 341 l 1,38,39
301 653 m 0,49,50
 259 653 259 653 232.5 631 c 128,-1,51
 206 609 206 609 206 570 c 0,52,53
 206 534 206 534 225 503.5 c 128,-1,54
 244 473 244 473 280 436 c 1,55,56
 339 470 339 470 364.5 500.5 c 128,-1,57
 390 531 390 531 390 571 c 0,58,59
 390 607 390 607 366 630 c 128,-1,60
 342 653 342 653 301 653 c 0,49,50
EndSplineSet
EndChar

StartChar: paragraph
Encoding: 182 182 170
Width: 596
Flags: W
LayerCount: 2
Fore
SplineSet
426 0 m 1,0,-1
 426 261 l 1,1,-1
 192 261 l 1,2,3
 190 206 190 206 179.5 165.5 c 128,-1,4
 169 125 169 125 150.5 103 c 128,-1,5
 132 81 132 81 105 81 c 0,6,7
 85 81 85 81 71.5 93 c 128,-1,8
 58 105 58 105 58 139 c 0,9,10
 58 154 58 154 63 178.5 c 128,-1,11
 68 203 68 203 81.5 232 c 128,-1,12
 95 261 95 261 119 288 c 1,13,14
 117 331 117 331 110.5 376.5 c 128,-1,15
 104 422 104 422 93 466.5 c 128,-1,16
 82 511 82 511 67 551 c 1,17,-1
 -7 551 l 1,18,-1
 -7 622 l 1,19,-1
 603 622 l 1,20,-1
 603 551 l 1,21,-1
 507 551 l 1,22,-1
 507 0 l 1,23,-1
 426 0 l 1,0,-1
193 332 m 1,24,-1
 426 332 l 1,25,-1
 426 551 l 1,26,-1
 153 551 l 1,27,28
 166 511 166 511 174.5 472.5 c 128,-1,29
 183 434 183 434 188 399 c 128,-1,30
 193 364 193 364 193 332 c 1,24,-1
EndSplineSet
EndChar

StartChar: section
Encoding: 167 167 171
Width: 622
Flags: W
AnchorPoint: "Anchor-2" 488 0 basechar 0
AnchorPoint: "Anchor-0" 513 622 basechar 0
LayerCount: 2
Fore
SplineSet
488 0 m 1,0,1
 483 68 483 68 470 126 c 128,-1,2
 457 184 457 184 435 230 c 2,3,-1
 425 254 l 1,4,5
 391 309 391 309 344 339.5 c 128,-1,6
 297 370 297 370 237 370 c 0,7,8
 185 370 185 370 151 344.5 c 128,-1,9
 117 319 117 319 117 267 c 0,10,11
 117 217 117 217 149 191.5 c 128,-1,12
 181 166 181 166 230 166 c 0,13,14
 304 166 304 166 350.5 202 c 128,-1,15
 397 238 397 238 423 286 c 1,16,-1
 430 312 l 1,17,18
 445 347 445 347 450 386 c 128,-1,19
 455 425 455 425 455 458 c 0,20,21
 455 478 455 478 452 505 c 128,-1,22
 449 532 449 532 445 551 c 1,23,-1
 -7 551 l 1,24,-1
 -7 622 l 1,25,-1
 629 622 l 1,26,-1
 629 551 l 1,27,-1
 526 551 l 1,28,29
 529 536 529 536 532 507.5 c 128,-1,30
 535 479 535 479 535 458 c 0,31,32
 535 403 535 403 521.5 347 c 128,-1,33
 508 291 508 291 475 243 c 2,34,-1
 462 221 l 2,35,36
 425 165 425 165 367 129.5 c 128,-1,37
 309 94 309 94 229 94 c 0,38,39
 170 94 170 94 126 115 c 128,-1,40
 82 136 82 136 58.5 175 c 128,-1,41
 35 214 35 214 35 268 c 0,42,43
 35 324 35 324 61.5 362.5 c 128,-1,44
 88 401 88 401 132 421 c 128,-1,45
 176 441 176 441 230 441 c 0,46,47
 307 441 307 441 362 411.5 c 128,-1,48
 417 382 417 382 458 326 c 2,49,-1
 471 309 l 2,50,51
 503 266 503 266 522.5 213.5 c 128,-1,52
 542 161 542 161 553 106 c 128,-1,53
 564 51 564 51 569 0 c 1,54,-1
 488 0 l 1,0,1
EndSplineSet
EndChar

StartChar: copyright
Encoding: 169 169 172
Width: 575
Flags: W
AnchorPoint: "Anchor-1" 292 0 basechar 0
LayerCount: 2
Fore
SplineSet
322 0 m 0,0,1
 265 0 265 0 221.5 17.5 c 128,-1,2
 178 35 178 35 144 66 c 128,-1,3
 110 97 110 97 83.5 140 c 128,-1,4
 57 183 57 183 34 234 c 1,5,6
 66 275 66 275 95 306.5 c 128,-1,7
 124 338 124 338 155 361 c 0,8,9
 183 381 183 381 211 394 c 128,-1,10
 239 407 239 407 277 413.5 c 128,-1,11
 315 420 315 420 370 420 c 2,12,-1
 405 420 l 1,13,-1
 405 551 l 1,14,-1
 -7 551 l 1,15,-1
 -7 622 l 1,16,-1
 583 622 l 1,17,-1
 583 551 l 1,18,-1
 485 551 l 1,19,-1
 485 378 l 1,20,-1
 456 349 l 1,21,-1
 419 349 l 2,22,23
 361 349 361 349 326 347 c 128,-1,24
 291 345 291 345 268 337.5 c 128,-1,25
 245 330 245 330 221 315 c 0,26,27
 189 296 189 296 163.5 269.5 c 128,-1,28
 138 243 138 243 107 204 c 1,29,-1
 114 253 l 1,30,31
 140 200 140 200 168 159.5 c 128,-1,32
 196 119 196 119 233 96 c 128,-1,33
 270 73 270 73 322 73 c 0,34,35
 359 73 359 73 387 78 c 128,-1,36
 415 83 415 83 444 93.5 c 128,-1,37
 473 104 473 104 510 122 c 1,38,-1
 538 51 l 1,39,40
 484 25 484 25 433 12.5 c 128,-1,41
 382 0 382 0 322 0 c 0,0,1
EndSplineSet
EndChar

StartChar: registered
Encoding: 174 174 173
Width: 593
Flags: W
LayerCount: 2
Fore
SplineSet
423 0 m 1,0,-1
 423 180 l 1,1,-1
 429 165 l 1,2,3
 395 149 395 149 361 140.5 c 128,-1,4
 327 132 327 132 284 132 c 0,5,6
 196 132 196 132 136 186.5 c 128,-1,7
 76 241 76 241 38 333 c 1,8,9
 68 359 68 359 88 389 c 128,-1,10
 108 419 108 419 108 459 c 0,11,12
 108 481 108 481 101.5 506.5 c 128,-1,13
 95 532 95 532 84 551 c 1,14,-1
 -7 551 l 1,15,-1
 -7 622 l 1,16,-1
 142 622 l 1,17,18
 164 582 164 582 176 539.5 c 128,-1,19
 188 497 188 497 188 460 c 0,20,21
 188 407 188 407 167.5 371.5 c 128,-1,22
 147 336 147 336 114 313 c 1,23,-1
 118 357 l 1,24,25
 150 282 150 282 188 244 c 128,-1,26
 226 206 226 206 284 206 c 0,27,28
 325 206 325 206 359 217.5 c 128,-1,29
 393 229 393 229 429 251 c 1,30,-1
 423 240 l 1,31,-1
 423 622 l 1,32,-1
 600 622 l 1,33,-1
 600 551 l 1,34,-1
 504 551 l 1,35,-1
 504 0 l 1,36,-1
 423 0 l 1,0,-1
EndSplineSet
EndChar

StartChar: degree
Encoding: 176 176 174
Width: 608
Flags: W
LayerCount: 2
Fore
SplineSet
41 248 m 1,0,1
 56 271 56 271 78 292.5 c 128,-1,2
 100 314 100 314 128 332 c 128,-1,3
 156 350 156 350 189 361 c 1,4,-1
 196 343 l 1,5,6
 153 358 153 358 122 384 c 128,-1,7
 91 410 91 410 75 452 c 128,-1,8
 59 494 59 494 59 555 c 1,9,-1
 95 551 l 1,10,-1
 -7 551 l 1,11,-1
 -7 622 l 1,12,-1
 569 622 l 1,13,-1
 569 551 l 1,14,-1
 105 551 l 1,15,-1
 141 554 l 1,16,17
 141 511 141 511 150.5 477.5 c 128,-1,18
 160 444 160 444 182 423 c 0,19,20
 200 407 200 407 224.5 399.5 c 128,-1,21
 249 392 249 392 296 392 c 2,22,-1
 456 392 l 1,23,-1
 454 322 l 1,24,-1
 313 322 l 2,25,26
 272 322 272 322 238 312 c 128,-1,27
 204 302 204 302 175 281 c 128,-1,28
 146 260 146 260 120 225 c 1,29,-1
 122 268 l 1,30,31
 142 226 142 226 168 198 c 128,-1,32
 194 170 194 170 228.5 156.5 c 128,-1,33
 263 143 263 143 307 143 c 0,34,35
 345 143 345 143 380 151 c 128,-1,36
 415 159 415 159 446 176 c 1,37,-1
 452 100 l 1,38,39
 420 85 420 85 384 77 c 128,-1,40
 348 69 348 69 307 69 c 0,41,42
 240 69 240 69 189 92.5 c 128,-1,43
 138 116 138 116 101.5 156.5 c 128,-1,44
 65 197 65 197 41 248 c 1,0,1
438 0 m 1,45,-1
 438 551 l 1,46,-1
 342 551 l 1,47,-1
 342 622 l 1,48,-1
 616 622 l 1,49,-1
 616 551 l 1,50,-1
 519 551 l 1,51,-1
 519 0 l 1,52,-1
 438 0 l 1,45,-1
EndSplineSet
EndChar

StartChar: cent
Encoding: 162 162 175
Width: 572
Flags: W
LayerCount: 2
Fore
SplineSet
353 644 m 1,0,1
 391 643 391 643 425.5 634.5 c 128,-1,2
 460 626 460 626 485 615 c 1,3,-1
 459 542 l 1,4,5
 433 552 433 552 400 560 c 128,-1,6
 367 568 367 568 340 568 c 0,7,8
 286 568 286 568 250.5 545.5 c 128,-1,9
 215 523 215 523 198 477.5 c 128,-1,10
 181 432 181 432 181 363 c 256,11,12
 181 294 181 294 198.5 250 c 128,-1,13
 216 206 216 206 250.5 185 c 128,-1,14
 285 164 285 164 336 164 c 0,15,16
 380 164 380 164 412.5 172.5 c 128,-1,17
 445 181 445 181 476 194 c 1,18,-1
 476 117 l 1,19,20
 449 104 449 104 420 96.5 c 128,-1,21
 391 89 391 89 352 87 c 1,22,-1
 352 -10 l 1,23,-1
 285 -10 l 1,24,-1
 285 90 l 1,25,26
 226 99 226 99 182.5 129 c 128,-1,27
 139 159 139 159 115 216 c 128,-1,28
 91 273 91 273 91 362 c 0,29,30
 91 453 91 453 115 511 c 128,-1,31
 139 569 139 569 183 600 c 128,-1,32
 227 631 227 631 285 640 c 1,33,-1
 285 724 l 1,34,-1
 353 724 l 1,35,-1
 353 644 l 1,0,1
EndSplineSet
EndChar

StartChar: dollar
Encoding: 36 36 176
Width: 572
Flags: W
LayerCount: 2
Fore
SplineSet
253 49 m 1,0,1
 198 50 198 50 146 58.5 c 128,-1,2
 94 67 94 67 62 82 c 1,3,-1
 62 167 l 1,4,5
 96 151 96 151 149 139 c 128,-1,6
 202 127 202 127 253 126 c 1,7,-1
 253 328 l 1,8,9
 187 346 187 346 145 369.5 c 128,-1,10
 103 393 103 393 82.5 427 c 128,-1,11
 62 461 62 461 62 508 c 0,12,13
 62 557 62 557 85.5 592 c 128,-1,14
 109 627 109 627 152 647.5 c 128,-1,15
 195 668 195 668 253 671 c 1,16,-1
 253 759 l 1,17,-1
 317 759 l 1,18,-1
 317 672 l 1,19,20
 370 671 370 671 413.5 660.5 c 128,-1,21
 457 650 457 650 493 635 c 1,22,-1
 466 561 l 1,23,24
 434 574 434 574 395.5 583.5 c 128,-1,25
 357 593 357 593 317 596 c 1,26,-1
 317 395 l 1,27,28
 383 376 383 376 427 354.5 c 128,-1,29
 471 333 471 333 493.5 301.5 c 128,-1,30
 516 270 516 270 516 220 c 0,31,32
 516 150 516 150 464 106.5 c 128,-1,33
 412 63 412 63 317 53 c 1,34,-1
 317 -58 l 1,35,-1
 253 -58 l 1,36,-1
 253 49 l 1,0,1
317 131 m 1,37,38
 376 137 376 137 403 158.5 c 128,-1,39
 430 180 430 180 430 214 c 0,40,41
 430 239 430 239 420 255.5 c 128,-1,42
 410 272 410 272 385.5 284 c 128,-1,43
 361 296 361 296 317 307 c 1,44,-1
 317 131 l 1,37,38
253 594 m 1,45,46
 217 592 217 592 194 581.5 c 128,-1,47
 171 571 171 571 159.5 554 c 128,-1,48
 148 537 148 537 148 515 c 0,49,50
 148 489 148 489 157.5 470.5 c 128,-1,51
 167 452 167 452 190 439.5 c 128,-1,52
 213 427 213 427 253 417 c 1,53,-1
 253 594 l 1,45,46
EndSplineSet
EndChar

StartChar: sterling
Encoding: 163 163 177
Width: 572
Flags: W
LayerCount: 2
Fore
SplineSet
334 723 m 0,0,1
 389 723 389 723 433 711 c 128,-1,2
 477 699 477 699 511 682 c 1,3,-1
 480 612 l 1,4,5
 450 626 450 626 413.5 638 c 128,-1,6
 377 650 377 650 336 650 c 0,7,8
 279 650 279 650 249 620.5 c 128,-1,9
 219 591 219 591 219 525 c 2,10,-1
 219 386 l 1,11,-1
 423 386 l 1,12,-1
 423 320 l 1,13,-1
 219 320 l 1,14,-1
 219 216 l 2,15,16
 219 176 219 176 209.5 149.5 c 128,-1,17
 200 123 200 123 184.5 107 c 128,-1,18
 169 91 169 91 151 80 c 1,19,-1
 535 80 l 1,20,-1
 535 0 l 1,21,-1
 32 0 l 1,22,-1
 32 74 l 1,23,24
 61 81 61 81 83 97.5 c 128,-1,25
 105 114 105 114 118 142.5 c 128,-1,26
 131 171 131 171 131 215 c 2,27,-1
 131 320 l 1,28,-1
 35 320 l 1,29,-1
 35 386 l 1,30,-1
 131 386 l 1,31,-1
 131 534 l 2,32,33
 131 594 131 594 156 636 c 128,-1,34
 181 678 181 678 227 700.5 c 128,-1,35
 273 723 273 723 334 723 c 0,0,1
EndSplineSet
EndChar

StartChar: yen
Encoding: 165 165 178
Width: 632
Flags: W
LayerCount: 2
Fore
SplineSet
350.422851562 419.932617188 m 6,0,1
 350.422851562 419.061523438 350.422851562 419.061523438 349.51953125 395.610351562 c 4,2,3
 349.045898438 383.329101562 349.045898438 383.329101562 347.409179688 373.157226562 c 5,4,-1
 351.026367188 373.157226562 l 5,5,6
 361.1015625 391.004882812 361.1015625 391.004882812 376.944335938 401.846679688 c 4,7,8
 392.961914062 413.073242188 392.961914062 413.073242188 411.905273438 418.998046875 c 4,9,10
 430.849609375 424.587890625 430.849609375 424.587890625 451.688476562 424.922851562 c 4,11,12
 491.127929688 424.587890625 491.127929688 424.587890625 517.088867188 412.13671875 c 4,13,14
 548.821289062 396.76171875 548.821289062 396.76171875 556.571289062 372.53515625 c 4,15,16
 569.831054688 328.454101562 569.831054688 328.454101562 569.831054688 302.682617188 c 6,17,-1
 569.831054688 174.158203125 l 5,18,-1
 517.390625 174.158203125 l 5,19,-1
 517.390625 264.014648438 l 6,20,21
 517.821289062 304.650390625 517.821289062 304.650390625 499.91015625 324.510742188 c 4,22,23
 481.655273438 344.94921875 481.655273438 344.94921875 445.057617188 344.46875 c 4,24,25
 407.599609375 343.989257812 407.599609375 343.989257812 388.3984375 330.436523438 c 4,26,27
 363.68359375 313.28515625 363.68359375 313.28515625 359.163085938 289.2734375 c 4,28,29
 350.422851562 236.357421875 350.422851562 236.357421875 350.422851562 222.852539062 c 6,30,-1
 350.422851562 174.158203125 l 5,31,-1
 297.379882812 174.158203125 l 5,32,-1
 297.379882812 543.565429688 l 5,33,-1
 350.422851562 543.565429688 l 5,34,-1
 350.422851562 419.932617188 l 6,0,1
403 645 m 0,35,36
 346 645 346 645 300 625.5 c 128,-1,37
 254 606 254 606 222 568.5 c 128,-1,38
 190 531 190 531 173 477.5 c 128,-1,39
 156 424 156 424 156 357 c 0,40,41
 156 269 156 269 183.5 204 c 128,-1,42
 211 139 211 139 265.5 104 c 128,-1,43
 320 69 320 69 402 69 c 0,44,45
 449 69 449 69 491 77 c 128,-1,46
 533 85 533 85 573 97 c 1,47,-1
 573 19 l 1,48,49
 533 4 533 4 490.5 -3 c 128,-1,50
 448 -10 448 -10 389 -10 c 0,51,52
 280 -10 280 -10 207 35 c 128,-1,53
 134 80 134 80 97.5 163 c 128,-1,54
 61 246 61 246 61 358 c 0,55,56
 61 439 61 439 83.5 506 c 128,-1,57
 106 573 106 573 149.5 622 c 128,-1,58
 193 671 193 671 257 697.5 c 128,-1,59
 321 724 321 724 404 724 c 0,60,61
 459 724 459 724 510 713 c 128,-1,62
 561 702 561 702 601 682 c 1,63,-1
 565 606 l 1,64,65
 532 621 532 621 491.5 633 c 128,-1,66
 451 645 451 645 403 645 c 0,35,36
EndSplineSet
EndChar

StartChar: dieresis
Encoding: 168 168 179
Width: 612
Flags: W
LayerCount: 2
Fore
SplineSet
106 0 m 1,0,-1
 106 291 l 1,1,-1
 88 291 l 2,2,3
 60 291 60 291 48.5 302 c 128,-1,4
 37 313 37 313 37 329 c 0,5,6
 37 347 37 347 47.5 366.5 c 128,-1,7
 58 386 58 386 74.5 403.5 c 128,-1,8
 91 421 91 421 109.5 431.5 c 128,-1,9
 128 442 128 442 144 442 c 0,10,11
 168 442 168 442 177.5 425.5 c 128,-1,12
 187 409 187 409 187 387 c 2,13,-1
 187 362 l 1,14,-1
 442 362 l 1,15,-1
 442 551 l 1,16,-1
 -7 551 l 1,17,-1
 -7 622 l 1,18,-1
 619 622 l 1,19,-1
 619 551 l 1,20,-1
 523 551 l 1,21,-1
 523 0 l 1,22,-1
 442 0 l 1,23,-1
 442 291 l 1,24,-1
 187 291 l 1,25,-1
 187 0 l 1,26,-1
 106 0 l 1,0,-1
EndSplineSet
EndChar

StartChar: grave
Encoding: 96 96 180
Width: 281
Flags: W
LayerCount: 2
Fore
SplineSet
145 766 m 1,0,1
 156 744 156 744 172.5 716.5 c 128,-1,2
 189 689 189 689 207.5 663 c 128,-1,3
 226 637 226 637 241 618 c 1,4,-1
 241 606 l 1,5,-1
 182 606 l 1,6,7
 165 620 165 620 144 639.5 c 128,-1,8
 123 659 123 659 102.5 680.5 c 128,-1,9
 82 702 82 702 65.5 722 c 128,-1,10
 49 742 49 742 40 756 c 1,11,-1
 40 766 l 1,12,-1
 145 766 l 1,0,1
EndSplineSet
EndChar

StartChar: acute
Encoding: 180 180 181
Width: 674
Flags: W
AnchorPoint: "Anchor-2" 479 0 basechar 0
AnchorPoint: "Anchor-1" 337 0 basechar 0
AnchorPoint: "Anchor-0" 557 622 basechar 0
LayerCount: 2
Fore
SplineSet
337 250 m 1,0,1
 282 281 282 281 236 328.5 c 128,-1,2
 190 376 190 376 159 433.5 c 128,-1,3
 128 491 128 491 117 551 c 1,4,-1
 -7 551 l 1,5,-1
 -7 622 l 1,6,-1
 681 622 l 1,7,-1
 681 551 l 1,8,-1
 557 551 l 1,9,10
 549 504 549 504 529.5 460.5 c 128,-1,11
 510 417 510 417 481.5 378 c 128,-1,12
 453 339 453 339 416.5 306.5 c 128,-1,13
 380 274 380 274 337 250 c 1,0,1
475 551 m 1,14,-1
 199 551 l 1,15,16
 207 498 207 498 229.5 455 c 128,-1,17
 252 412 252 412 285 379 c 128,-1,18
 318 346 318 346 356 322 c 1,19,-1
 318 323 l 1,20,21
 357 345 357 345 389.5 378 c 128,-1,22
 422 411 422 411 444.5 454.5 c 128,-1,23
 467 498 467 498 475 551 c 1,14,-1
39 193 m 0,24,25
 39 261 39 261 83 317.5 c 128,-1,26
 127 374 127 374 206 408 c 1,27,-1
 246 353 l 1,28,29
 194 329 194 329 156.5 289.5 c 128,-1,30
 119 250 119 250 119 195 c 0,31,32
 119 141 119 141 151 107 c 128,-1,33
 183 73 183 73 254 73 c 2,34,-1
 259 73 l 1,35,-1
 254 0 l 1,36,-1
 248 0 l 2,37,38
 186 0 186 0 145.5 19 c 128,-1,39
 105 38 105 38 81.5 67.5 c 128,-1,40
 58 97 58 97 48.5 130.5 c 128,-1,41
 39 164 39 164 39 193 c 0,24,25
635 194 m 0,42,43
 635 165 635 165 625 131.5 c 128,-1,44
 615 98 615 98 592 68 c 128,-1,45
 569 38 569 38 528.5 19 c 128,-1,46
 488 0 488 0 426 0 c 2,47,-1
 420 0 l 1,48,-1
 415 73 l 1,49,-1
 426 73 l 2,50,51
 493 73 493 73 524 106.5 c 128,-1,52
 555 140 555 140 555 191 c 0,53,54
 555 241 555 241 522.5 283 c 128,-1,55
 490 325 490 325 421 353 c 1,56,-1
 464 412 l 1,57,58
 556 370 556 370 595.5 312.5 c 128,-1,59
 635 255 635 255 635 194 c 0,42,43
EndSplineSet
EndChar

StartChar: overscore
Encoding: 175 175 182
Width: 579
Flags: W
AnchorPoint: "Anchor-0" 489 622 basechar 0
LayerCount: 2
Fore
SplineSet
336 0 m 0,0,1
 271 0 271 0 216 20 c 128,-1,2
 161 40 161 40 121 76.5 c 128,-1,3
 81 113 81 113 59 161 c 128,-1,4
 37 209 37 209 37 264 c 0,5,6
 37 299 37 299 49 327.5 c 128,-1,7
 61 356 61 356 82 374 c 0,8,9
 101 390 101 390 123.5 400 c 128,-1,10
 146 410 146 410 180.5 415 c 128,-1,11
 215 420 215 420 268 420 c 2,12,-1
 408 420 l 1,13,-1
 408 551 l 1,14,-1
 -7 551 l 1,15,-1
 -7 622 l 1,16,-1
 586 622 l 1,17,-1
 586 551 l 1,18,-1
 489 551 l 1,19,-1
 489 378 l 1,20,-1
 460 349 l 1,21,-1
 279 349 l 2,22,23
 239 349 239 349 213 346 c 128,-1,24
 187 343 187 343 170.5 337 c 128,-1,25
 154 331 154 331 141 320 c 0,26,27
 128 310 128 310 123 294 c 128,-1,28
 118 278 118 278 118 259 c 0,29,30
 118 219 118 219 134.5 184 c 128,-1,31
 151 149 151 149 181 123.5 c 128,-1,32
 211 98 211 98 252 83.5 c 128,-1,33
 293 69 293 69 341 69 c 0,34,35
 400 69 400 69 428.5 82.5 c 128,-1,36
 457 96 457 96 457 124 c 0,37,38
 457 143 457 143 440 154.5 c 128,-1,39
 423 166 423 166 388 166 c 0,40,41
 350 166 350 166 316 151.5 c 128,-1,42
 282 137 282 137 254 114.5 c 128,-1,43
 226 92 226 92 204 67 c 1,44,-1
 144 100 l 1,45,46
 169 133 169 133 204.5 164.5 c 128,-1,47
 240 196 240 196 287.5 216.5 c 128,-1,48
 335 237 335 237 396 237 c 0,49,50
 445 237 445 237 476 222 c 128,-1,51
 507 207 507 207 522 182 c 128,-1,52
 537 157 537 157 537 127 c 0,53,54
 537 98 537 98 526 74.5 c 128,-1,55
 515 51 515 51 491 34.5 c 128,-1,56
 467 18 467 18 429 9 c 128,-1,57
 391 0 391 0 336 0 c 0,0,1
EndSplineSet
EndChar

StartChar: uni00B3
Encoding: 179 179 183
Width: 579
Flags: W
AnchorPoint: "Anchor-2" 360 0 basechar 0
LayerCount: 2
Fore
SplineSet
310 0 m 0,0,1
 256 0 256 0 207 21.5 c 128,-1,2
 158 43 158 43 119.5 79.5 c 128,-1,3
 81 116 81 116 59 162.5 c 128,-1,4
 37 209 37 209 37 258 c 0,5,6
 37 294 37 294 49.5 319.5 c 128,-1,7
 62 345 62 345 82 363 c 0,8,9
 109 386 109 386 150.5 397 c 128,-1,10
 192 408 192 408 272 408 c 2,11,-1
 409 408 l 1,12,-1
 409 551 l 1,13,-1
 -7 551 l 1,14,-1
 -7 622 l 1,15,-1
 586 622 l 1,16,-1
 586 551 l 1,17,-1
 490 551 l 1,18,-1
 490 172 l 2,19,20
 490 114 490 114 470.5 76 c 128,-1,21
 451 38 451 38 411.5 19 c 128,-1,22
 372 0 372 0 310 0 c 0,0,1
317 73 m 0,23,24
 340 73 340 73 359 78 c 128,-1,25
 378 83 378 83 390 96 c 0,26,27
 399 107 399 107 404 124.5 c 128,-1,28
 409 142 409 142 409 183 c 2,29,-1
 409 337 l 1,30,-1
 282 337 l 2,31,32
 220 337 220 337 189 331.5 c 128,-1,33
 158 326 158 326 141 311 c 0,34,35
 128 300 128 300 123 285 c 128,-1,36
 118 270 118 270 118 252 c 0,37,38
 118 220 118 220 135 188 c 128,-1,39
 152 156 152 156 180.5 130 c 128,-1,40
 209 104 209 104 244.5 88.5 c 128,-1,41
 280 73 280 73 317 73 c 0,23,24
EndSplineSet
EndChar

StartChar: currency
Encoding: 164 164 184
Width: 572
Flags: W
LayerCount: 2
Fore
SplineSet
235 -8 m 4,0,1
 180 -8 180 -8 136 4 c 132,-1,2
 92 16 92 16 58 33 c 5,3,-1
 89 103 l 5,4,5
 119 89 119 89 155.5 77 c 132,-1,6
 192 65 192 65 233 65 c 4,7,8
 290 65 290 65 320 94.5 c 132,-1,9
 350 124 350 124 350 190 c 6,10,-1
 350 329 l 5,11,-1
 146 329 l 5,12,-1
 146 395 l 5,13,-1
 350 395 l 5,14,-1
 350 499 l 6,15,16
 350 539 350 539 359.5 565.5 c 132,-1,17
 369 592 369 592 384.5 608 c 132,-1,18
 400 624 400 624 418 635 c 5,19,-1
 34 635 l 5,20,-1
 34 715 l 5,21,-1
 537 715 l 5,22,-1
 537 641 l 5,23,24
 508 634 508 634 486 617.5 c 132,-1,25
 464 601 464 601 451 572.5 c 132,-1,26
 438 544 438 544 438 500 c 6,27,-1
 438 395 l 5,28,-1
 534 395 l 5,29,-1
 534 329 l 5,30,-1
 438 329 l 5,31,-1
 438 181 l 6,32,33
 438 121 438 121 413 79 c 132,-1,34
 388 37 388 37 342 14.5 c 132,-1,35
 296 -8 296 -8 235 -8 c 4,0,1
EndSplineSet
EndChar

StartChar: brokenbar
Encoding: 166 166 185
Width: 742
Flags: W
AnchorPoint: "Anchor-1" 294 0 basechar 0
LayerCount: 2
Fore
SplineSet
572 0 m 1,0,-1
 572 373 l 1,1,-1
 584 356 l 1,2,3
 549 348 549 348 518 336 c 128,-1,4
 487 324 487 324 459.5 308 c 128,-1,5
 432 292 432 292 406 271 c 1,6,-1
 425 305 l 1,7,8
 425 248 425 248 416 203.5 c 128,-1,9
 407 159 407 159 388.5 133.5 c 128,-1,10
 370 108 370 108 341 108 c 0,11,12
 320 108 320 108 306 120.5 c 128,-1,13
 292 133 292 133 292 166 c 0,14,15
 292 204 292 204 310.5 246 c 128,-1,16
 329 288 329 288 356 317 c 1,17,18
 355 348 355 348 349.5 380 c 128,-1,19
 344 412 344 412 335.5 438.5 c 128,-1,20
 327 465 327 465 316 478 c 1,21,-1
 348 473 l 1,22,23
 315 463 315 463 281 447 c 128,-1,24
 247 431 247 431 219.5 413 c 128,-1,25
 192 395 192 395 175 379 c 1,26,-1
 189 422 l 1,27,28
 189 360 189 360 180.5 312.5 c 128,-1,29
 172 265 172 265 153.5 238.5 c 128,-1,30
 135 212 135 212 104 212 c 0,31,32
 83 212 83 212 69.5 224.5 c 128,-1,33
 56 237 56 237 56 271 c 0,34,35
 56 308 56 308 74 349.5 c 128,-1,36
 92 391 92 391 118 419 c 1,37,38
 115 482 115 482 101.5 516 c 128,-1,39
 88 550 88 550 77 558 c 1,40,-1
 120 551 l 1,41,-1
 -7 551 l 1,42,-1
 -7 622 l 1,43,-1
 144 622 l 1,44,45
 154 602 154 602 163.5 572 c 128,-1,46
 173 542 173 542 179.5 509 c 128,-1,47
 186 476 186 476 186 445 c 1,48,-1
 173 456 l 1,49,50
 185 471 185 471 216.5 490.5 c 128,-1,51
 248 510 248 510 290 527.5 c 128,-1,52
 332 545 332 545 374 554 c 1,53,54
 384 537 384 537 393 510.5 c 128,-1,55
 402 484 402 484 409 453.5 c 128,-1,56
 416 423 416 423 420 393 c 128,-1,57
 424 363 424 363 424 339 c 1,58,-1
 407 353 l 1,59,60
 425 368 425 368 452 383 c 128,-1,61
 479 398 479 398 513 411.5 c 128,-1,62
 547 425 547 425 584 433 c 1,63,-1
 572 405 l 1,64,-1
 572 622 l 1,65,-1
 749 622 l 1,66,-1
 749 551 l 1,67,-1
 653 551 l 1,68,-1
 653 0 l 1,69,-1
 572 0 l 1,0,-1
EndSplineSet
EndChar

StartChar: uni0080
Encoding: 128 128 186
Width: 480
Flags: W
LayerCount: 2
Fore
SplineSet
40 85 m 0,0,1
 40 103 40 103 55.5 118 c 128,-1,2
 71 133 71 133 99 144.5 c 128,-1,3
 127 156 127 156 164.5 162.5 c 128,-1,4
 202 169 202 169 245 169 c 0,5,6
 289 169 289 169 326.5 162.5 c 128,-1,7
 364 156 364 156 391.5 144.5 c 128,-1,8
 419 133 419 133 435 118 c 128,-1,9
 451 103 451 103 451 85 c 0,10,11
 451 68 451 68 435 53 c 128,-1,12
 419 38 419 38 391.5 27 c 128,-1,13
 364 16 364 16 326.5 9.5 c 128,-1,14
 289 3 289 3 245 3 c 0,15,16
 202 3 202 3 164.5 9.5 c 128,-1,17
 127 16 127 16 99 27 c 128,-1,18
 71 38 71 38 55.5 53 c 128,-1,19
 40 68 40 68 40 85 c 0,0,1
120 85 m 256,20,21
 120 74 120 74 129.5 64.5 c 128,-1,22
 139 55 139 55 156 48.5 c 128,-1,23
 173 42 173 42 196 38 c 128,-1,24
 219 34 219 34 245 34 c 0,25,26
 272 34 272 34 294.5 38 c 128,-1,27
 317 42 317 42 334 48.5 c 128,-1,28
 351 55 351 55 360.5 64.5 c 128,-1,29
 370 74 370 74 370 85 c 256,30,31
 370 96 370 96 360.5 105.5 c 128,-1,32
 351 115 351 115 334 122 c 128,-1,33
 317 129 317 129 294.5 133 c 128,-1,34
 272 137 272 137 245 137 c 0,35,36
 219 137 219 137 196 133 c 128,-1,37
 173 129 173 129 156 122 c 128,-1,38
 139 115 139 115 129.5 105.5 c 128,-1,39
 120 96 120 96 120 85 c 256,20,21
40 272 m 0,40,41
 40 290 40 290 55.5 305 c 128,-1,42
 71 320 71 320 99 331.5 c 128,-1,43
 127 343 127 343 164.5 349 c 128,-1,44
 202 355 202 355 245 355 c 0,45,46
 289 355 289 355 326.5 349 c 128,-1,47
 364 343 364 343 391.5 331.5 c 128,-1,48
 419 320 419 320 435 305 c 128,-1,49
 451 290 451 290 451 272 c 0,50,51
 451 255 451 255 435 240 c 128,-1,52
 419 225 419 225 391.5 214 c 128,-1,53
 364 203 364 203 326.5 196 c 128,-1,54
 289 189 289 189 245 189 c 0,55,56
 202 189 202 189 164.5 196 c 128,-1,57
 127 203 127 203 99 214 c 128,-1,58
 71 225 71 225 55.5 240 c 128,-1,59
 40 255 40 255 40 272 c 0,40,41
120 272 m 256,60,61
 120 261 120 261 129.5 251.5 c 128,-1,62
 139 242 139 242 156 235 c 128,-1,63
 173 228 173 228 196 224 c 128,-1,64
 219 220 219 220 245 220 c 0,65,66
 272 220 272 220 294.5 224 c 128,-1,67
 317 228 317 228 334 235 c 128,-1,68
 351 242 351 242 360.5 251.5 c 128,-1,69
 370 261 370 261 370 272 c 256,70,71
 370 283 370 283 360.5 292.5 c 128,-1,72
 351 302 351 302 334 309 c 128,-1,73
 317 316 317 316 294.5 320 c 128,-1,74
 272 324 272 324 245 324 c 0,75,76
 219 324 219 324 196 320 c 128,-1,77
 173 316 173 316 156 309 c 128,-1,78
 139 302 139 302 129.5 292.5 c 128,-1,79
 120 283 120 283 120 272 c 256,60,61
40 461 m 256,80,81
 40 478 40 478 55.5 493.5 c 128,-1,82
 71 509 71 509 99 520 c 128,-1,83
 127 531 127 531 164.5 537.5 c 128,-1,84
 202 544 202 544 245 544 c 0,85,86
 289 544 289 544 326.5 537.5 c 128,-1,87
 364 531 364 531 391.5 520 c 128,-1,88
 419 509 419 509 435 493.5 c 128,-1,89
 451 478 451 478 451 461 c 256,90,91
 451 444 451 444 435 429 c 128,-1,92
 419 414 419 414 391.5 402.5 c 128,-1,93
 364 391 364 391 326.5 384.5 c 128,-1,94
 289 378 289 378 245 378 c 0,95,96
 202 378 202 378 164.5 384.5 c 128,-1,97
 127 391 127 391 99 402.5 c 128,-1,98
 71 414 71 414 55.5 429 c 128,-1,99
 40 444 40 444 40 461 c 256,80,81
120 461 m 256,100,101
 120 450 120 450 129.5 440.5 c 128,-1,102
 139 431 139 431 156 424 c 128,-1,103
 173 417 173 417 196 413 c 128,-1,104
 219 409 219 409 245 409 c 0,105,106
 272 409 272 409 294.5 413 c 128,-1,107
 317 417 317 417 334 424 c 128,-1,108
 351 431 351 431 360.5 440.5 c 128,-1,109
 370 450 370 450 370 461 c 256,110,111
 370 472 370 472 360.5 481.5 c 128,-1,112
 351 491 351 491 334 498 c 128,-1,113
 317 505 317 505 294.5 509 c 128,-1,114
 272 513 272 513 245 513 c 0,115,116
 219 513 219 513 196 509 c 128,-1,117
 173 505 173 505 156 498 c 128,-1,118
 139 491 139 491 129.5 481.5 c 128,-1,119
 120 472 120 472 120 461 c 256,100,101
40 648 m 256,120,121
 40 665 40 665 55.5 680.5 c 128,-1,122
 71 696 71 696 99 707 c 128,-1,123
 127 718 127 718 164.5 724.5 c 128,-1,124
 202 731 202 731 245 731 c 0,125,126
 289 731 289 731 326.5 724.5 c 128,-1,127
 364 718 364 718 391.5 707 c 128,-1,128
 419 696 419 696 435 680.5 c 128,-1,129
 451 665 451 665 451 648 c 256,130,131
 451 631 451 631 435 616 c 128,-1,132
 419 601 419 601 391.5 589.5 c 128,-1,133
 364 578 364 578 326.5 571.5 c 128,-1,134
 289 565 289 565 245 565 c 0,135,136
 202 565 202 565 164.5 571.5 c 128,-1,137
 127 578 127 578 99 589.5 c 128,-1,138
 71 601 71 601 55.5 616 c 128,-1,139
 40 631 40 631 40 648 c 256,120,121
120 648 m 0,140,141
 120 637 120 637 129.5 627.5 c 128,-1,142
 139 618 139 618 156 611 c 128,-1,143
 173 604 173 604 196 600 c 128,-1,144
 219 596 219 596 245 596 c 0,145,146
 272 596 272 596 294.5 600 c 128,-1,147
 317 604 317 604 334 611 c 128,-1,148
 351 618 351 618 360.5 627.5 c 128,-1,149
 370 637 370 637 370 648 c 0,150,151
 370 658 370 658 360.5 668 c 128,-1,152
 351 678 351 678 334 685 c 128,-1,153
 317 692 317 692 294.5 696 c 128,-1,154
 272 700 272 700 245 700 c 0,155,156
 219 700 219 700 196 696 c 128,-1,157
 173 692 173 692 156 685 c 128,-1,158
 139 678 139 678 129.5 668 c 128,-1,159
 120 658 120 658 120 648 c 0,140,141
EndSplineSet
EndChar

StartChar: uni0081
Encoding: 129 129 187
Width: 480
Flags: W
LayerCount: 2
Fore
SplineSet
40 85 m 0,0,1
 40 103 40 103 55.5 118 c 128,-1,2
 71 133 71 133 99 144.5 c 128,-1,3
 127 156 127 156 164.5 162.5 c 128,-1,4
 202 169 202 169 245 169 c 0,5,6
 289 169 289 169 326.5 162.5 c 128,-1,7
 364 156 364 156 391.5 144.5 c 128,-1,8
 419 133 419 133 435 118 c 128,-1,9
 451 103 451 103 451 85 c 0,10,11
 451 68 451 68 435 53 c 128,-1,12
 419 38 419 38 391.5 27 c 128,-1,13
 364 16 364 16 326.5 9.5 c 128,-1,14
 289 3 289 3 245 3 c 0,15,16
 202 3 202 3 164.5 9.5 c 128,-1,17
 127 16 127 16 99 27 c 128,-1,18
 71 38 71 38 55.5 53 c 128,-1,19
 40 68 40 68 40 85 c 0,0,1
40 272 m 0,20,21
 40 290 40 290 55.5 305 c 128,-1,22
 71 320 71 320 99 331.5 c 128,-1,23
 127 343 127 343 164.5 349 c 128,-1,24
 202 355 202 355 245 355 c 0,25,26
 289 355 289 355 326.5 349 c 128,-1,27
 364 343 364 343 391.5 331.5 c 128,-1,28
 419 320 419 320 435 305 c 128,-1,29
 451 290 451 290 451 272 c 0,30,31
 451 255 451 255 435 240 c 128,-1,32
 419 225 419 225 391.5 214 c 128,-1,33
 364 203 364 203 326.5 196 c 128,-1,34
 289 189 289 189 245 189 c 0,35,36
 202 189 202 189 164.5 196 c 128,-1,37
 127 203 127 203 99 214 c 128,-1,38
 71 225 71 225 55.5 240 c 128,-1,39
 40 255 40 255 40 272 c 0,20,21
120 272 m 256,40,41
 120 261 120 261 129.5 251.5 c 128,-1,42
 139 242 139 242 156 235 c 128,-1,43
 173 228 173 228 196 224 c 128,-1,44
 219 220 219 220 245 220 c 0,45,46
 272 220 272 220 294.5 224 c 128,-1,47
 317 228 317 228 334 235 c 128,-1,48
 351 242 351 242 360.5 251.5 c 128,-1,49
 370 261 370 261 370 272 c 256,50,51
 370 283 370 283 360.5 292.5 c 128,-1,52
 351 302 351 302 334 309 c 128,-1,53
 317 316 317 316 294.5 320 c 128,-1,54
 272 324 272 324 245 324 c 0,55,56
 219 324 219 324 196 320 c 128,-1,57
 173 316 173 316 156 309 c 128,-1,58
 139 302 139 302 129.5 292.5 c 128,-1,59
 120 283 120 283 120 272 c 256,40,41
40 461 m 256,60,61
 40 478 40 478 55.5 493.5 c 128,-1,62
 71 509 71 509 99 520 c 128,-1,63
 127 531 127 531 164.5 537.5 c 128,-1,64
 202 544 202 544 245 544 c 0,65,66
 289 544 289 544 326.5 537.5 c 128,-1,67
 364 531 364 531 391.5 520 c 128,-1,68
 419 509 419 509 435 493.5 c 128,-1,69
 451 478 451 478 451 461 c 256,70,71
 451 444 451 444 435 429 c 128,-1,72
 419 414 419 414 391.5 402.5 c 128,-1,73
 364 391 364 391 326.5 384.5 c 128,-1,74
 289 378 289 378 245 378 c 0,75,76
 202 378 202 378 164.5 384.5 c 128,-1,77
 127 391 127 391 99 402.5 c 128,-1,78
 71 414 71 414 55.5 429 c 128,-1,79
 40 444 40 444 40 461 c 256,60,61
120 461 m 256,80,81
 120 450 120 450 129.5 440.5 c 128,-1,82
 139 431 139 431 156 424 c 128,-1,83
 173 417 173 417 196 413 c 128,-1,84
 219 409 219 409 245 409 c 0,85,86
 272 409 272 409 294.5 413 c 128,-1,87
 317 417 317 417 334 424 c 128,-1,88
 351 431 351 431 360.5 440.5 c 128,-1,89
 370 450 370 450 370 461 c 256,90,91
 370 472 370 472 360.5 481.5 c 128,-1,92
 351 491 351 491 334 498 c 128,-1,93
 317 505 317 505 294.5 509 c 128,-1,94
 272 513 272 513 245 513 c 0,95,96
 219 513 219 513 196 509 c 128,-1,97
 173 505 173 505 156 498 c 128,-1,98
 139 491 139 491 129.5 481.5 c 128,-1,99
 120 472 120 472 120 461 c 256,80,81
40 648 m 256,100,101
 40 665 40 665 55.5 680.5 c 128,-1,102
 71 696 71 696 99 707 c 128,-1,103
 127 718 127 718 164.5 724.5 c 128,-1,104
 202 731 202 731 245 731 c 0,105,106
 289 731 289 731 326.5 724.5 c 128,-1,107
 364 718 364 718 391.5 707 c 128,-1,108
 419 696 419 696 435 680.5 c 128,-1,109
 451 665 451 665 451 648 c 256,110,111
 451 631 451 631 435 616 c 128,-1,112
 419 601 419 601 391.5 589.5 c 128,-1,113
 364 578 364 578 326.5 571.5 c 128,-1,114
 289 565 289 565 245 565 c 0,115,116
 202 565 202 565 164.5 571.5 c 128,-1,117
 127 578 127 578 99 589.5 c 128,-1,118
 71 601 71 601 55.5 616 c 128,-1,119
 40 631 40 631 40 648 c 256,100,101
120 648 m 0,120,121
 120 637 120 637 129.5 627.5 c 128,-1,122
 139 618 139 618 156 611 c 128,-1,123
 173 604 173 604 196 600 c 128,-1,124
 219 596 219 596 245 596 c 0,125,126
 272 596 272 596 294.5 600 c 128,-1,127
 317 604 317 604 334 611 c 128,-1,128
 351 618 351 618 360.5 627.5 c 128,-1,129
 370 637 370 637 370 648 c 0,130,131
 370 658 370 658 360.5 668 c 128,-1,132
 351 678 351 678 334 685 c 128,-1,133
 317 692 317 692 294.5 696 c 128,-1,134
 272 700 272 700 245 700 c 0,135,136
 219 700 219 700 196 696 c 128,-1,137
 173 692 173 692 156 685 c 128,-1,138
 139 678 139 678 129.5 668 c 128,-1,139
 120 658 120 658 120 648 c 0,120,121
EndSplineSet
EndChar

StartChar: uni0082
Encoding: 130 130 188
Width: 480
Flags: W
LayerCount: 2
Fore
SplineSet
40 85 m 0,0,1
 40 103 40 103 55.5 118 c 128,-1,2
 71 133 71 133 99 144.5 c 128,-1,3
 127 156 127 156 164.5 162.5 c 128,-1,4
 202 169 202 169 245 169 c 0,5,6
 289 169 289 169 326.5 162.5 c 128,-1,7
 364 156 364 156 391.5 144.5 c 128,-1,8
 419 133 419 133 435 118 c 128,-1,9
 451 103 451 103 451 85 c 0,10,11
 451 68 451 68 435 53 c 128,-1,12
 419 38 419 38 391.5 27 c 128,-1,13
 364 16 364 16 326.5 9.5 c 128,-1,14
 289 3 289 3 245 3 c 0,15,16
 202 3 202 3 164.5 9.5 c 128,-1,17
 127 16 127 16 99 27 c 128,-1,18
 71 38 71 38 55.5 53 c 128,-1,19
 40 68 40 68 40 85 c 0,0,1
120 85 m 256,20,21
 120 74 120 74 129.5 64.5 c 128,-1,22
 139 55 139 55 156 48.5 c 128,-1,23
 173 42 173 42 196 38 c 128,-1,24
 219 34 219 34 245 34 c 0,25,26
 272 34 272 34 294.5 38 c 128,-1,27
 317 42 317 42 334 48.5 c 128,-1,28
 351 55 351 55 360.5 64.5 c 128,-1,29
 370 74 370 74 370 85 c 256,30,31
 370 96 370 96 360.5 105.5 c 128,-1,32
 351 115 351 115 334 122 c 128,-1,33
 317 129 317 129 294.5 133 c 128,-1,34
 272 137 272 137 245 137 c 0,35,36
 219 137 219 137 196 133 c 128,-1,37
 173 129 173 129 156 122 c 128,-1,38
 139 115 139 115 129.5 105.5 c 128,-1,39
 120 96 120 96 120 85 c 256,20,21
40 272 m 0,40,41
 40 290 40 290 55.5 305 c 128,-1,42
 71 320 71 320 99 331.5 c 128,-1,43
 127 343 127 343 164.5 349 c 128,-1,44
 202 355 202 355 245 355 c 0,45,46
 289 355 289 355 326.5 349 c 128,-1,47
 364 343 364 343 391.5 331.5 c 128,-1,48
 419 320 419 320 435 305 c 128,-1,49
 451 290 451 290 451 272 c 0,50,51
 451 255 451 255 435 240 c 128,-1,52
 419 225 419 225 391.5 214 c 128,-1,53
 364 203 364 203 326.5 196 c 128,-1,54
 289 189 289 189 245 189 c 0,55,56
 202 189 202 189 164.5 196 c 128,-1,57
 127 203 127 203 99 214 c 128,-1,58
 71 225 71 225 55.5 240 c 128,-1,59
 40 255 40 255 40 272 c 0,40,41
40 461 m 256,60,61
 40 478 40 478 55.5 493.5 c 128,-1,62
 71 509 71 509 99 520 c 128,-1,63
 127 531 127 531 164.5 537.5 c 128,-1,64
 202 544 202 544 245 544 c 0,65,66
 289 544 289 544 326.5 537.5 c 128,-1,67
 364 531 364 531 391.5 520 c 128,-1,68
 419 509 419 509 435 493.5 c 128,-1,69
 451 478 451 478 451 461 c 256,70,71
 451 444 451 444 435 429 c 128,-1,72
 419 414 419 414 391.5 402.5 c 128,-1,73
 364 391 364 391 326.5 384.5 c 128,-1,74
 289 378 289 378 245 378 c 0,75,76
 202 378 202 378 164.5 384.5 c 128,-1,77
 127 391 127 391 99 402.5 c 128,-1,78
 71 414 71 414 55.5 429 c 128,-1,79
 40 444 40 444 40 461 c 256,60,61
120 461 m 256,80,81
 120 450 120 450 129.5 440.5 c 128,-1,82
 139 431 139 431 156 424 c 128,-1,83
 173 417 173 417 196 413 c 128,-1,84
 219 409 219 409 245 409 c 0,85,86
 272 409 272 409 294.5 413 c 128,-1,87
 317 417 317 417 334 424 c 128,-1,88
 351 431 351 431 360.5 440.5 c 128,-1,89
 370 450 370 450 370 461 c 256,90,91
 370 472 370 472 360.5 481.5 c 128,-1,92
 351 491 351 491 334 498 c 128,-1,93
 317 505 317 505 294.5 509 c 128,-1,94
 272 513 272 513 245 513 c 0,95,96
 219 513 219 513 196 509 c 128,-1,97
 173 505 173 505 156 498 c 128,-1,98
 139 491 139 491 129.5 481.5 c 128,-1,99
 120 472 120 472 120 461 c 256,80,81
40 648 m 256,100,101
 40 665 40 665 55.5 680.5 c 128,-1,102
 71 696 71 696 99 707 c 128,-1,103
 127 718 127 718 164.5 724.5 c 128,-1,104
 202 731 202 731 245 731 c 0,105,106
 289 731 289 731 326.5 724.5 c 128,-1,107
 364 718 364 718 391.5 707 c 128,-1,108
 419 696 419 696 435 680.5 c 128,-1,109
 451 665 451 665 451 648 c 256,110,111
 451 631 451 631 435 616 c 128,-1,112
 419 601 419 601 391.5 589.5 c 128,-1,113
 364 578 364 578 326.5 571.5 c 128,-1,114
 289 565 289 565 245 565 c 0,115,116
 202 565 202 565 164.5 571.5 c 128,-1,117
 127 578 127 578 99 589.5 c 128,-1,118
 71 601 71 601 55.5 616 c 128,-1,119
 40 631 40 631 40 648 c 256,100,101
120 648 m 0,120,121
 120 637 120 637 129.5 627.5 c 128,-1,122
 139 618 139 618 156 611 c 128,-1,123
 173 604 173 604 196 600 c 128,-1,124
 219 596 219 596 245 596 c 0,125,126
 272 596 272 596 294.5 600 c 128,-1,127
 317 604 317 604 334 611 c 128,-1,128
 351 618 351 618 360.5 627.5 c 128,-1,129
 370 637 370 637 370 648 c 0,130,131
 370 658 370 658 360.5 668 c 128,-1,132
 351 678 351 678 334 685 c 128,-1,133
 317 692 317 692 294.5 696 c 128,-1,134
 272 700 272 700 245 700 c 0,135,136
 219 700 219 700 196 696 c 128,-1,137
 173 692 173 692 156 685 c 128,-1,138
 139 678 139 678 129.5 668 c 128,-1,139
 120 658 120 658 120 648 c 0,120,121
EndSplineSet
EndChar

StartChar: uni0083
Encoding: 131 131 189
Width: 480
Flags: W
LayerCount: 2
Fore
SplineSet
40 85 m 0,0,1
 40 103 40 103 55.5 118 c 128,-1,2
 71 133 71 133 99 144.5 c 128,-1,3
 127 156 127 156 164.5 162.5 c 128,-1,4
 202 169 202 169 245 169 c 0,5,6
 289 169 289 169 326.5 162.5 c 128,-1,7
 364 156 364 156 391.5 144.5 c 128,-1,8
 419 133 419 133 435 118 c 128,-1,9
 451 103 451 103 451 85 c 0,10,11
 451 68 451 68 435 53 c 128,-1,12
 419 38 419 38 391.5 27 c 128,-1,13
 364 16 364 16 326.5 9.5 c 128,-1,14
 289 3 289 3 245 3 c 0,15,16
 202 3 202 3 164.5 9.5 c 128,-1,17
 127 16 127 16 99 27 c 128,-1,18
 71 38 71 38 55.5 53 c 128,-1,19
 40 68 40 68 40 85 c 0,0,1
40 272 m 0,20,21
 40 290 40 290 55.5 305 c 128,-1,22
 71 320 71 320 99 331.5 c 128,-1,23
 127 343 127 343 164.5 349 c 128,-1,24
 202 355 202 355 245 355 c 0,25,26
 289 355 289 355 326.5 349 c 128,-1,27
 364 343 364 343 391.5 331.5 c 128,-1,28
 419 320 419 320 435 305 c 128,-1,29
 451 290 451 290 451 272 c 0,30,31
 451 255 451 255 435 240 c 128,-1,32
 419 225 419 225 391.5 214 c 128,-1,33
 364 203 364 203 326.5 196 c 128,-1,34
 289 189 289 189 245 189 c 0,35,36
 202 189 202 189 164.5 196 c 128,-1,37
 127 203 127 203 99 214 c 128,-1,38
 71 225 71 225 55.5 240 c 128,-1,39
 40 255 40 255 40 272 c 0,20,21
40 461 m 256,40,41
 40 478 40 478 55.5 493.5 c 128,-1,42
 71 509 71 509 99 520 c 128,-1,43
 127 531 127 531 164.5 537.5 c 128,-1,44
 202 544 202 544 245 544 c 0,45,46
 289 544 289 544 326.5 537.5 c 128,-1,47
 364 531 364 531 391.5 520 c 128,-1,48
 419 509 419 509 435 493.5 c 128,-1,49
 451 478 451 478 451 461 c 256,50,51
 451 444 451 444 435 429 c 128,-1,52
 419 414 419 414 391.5 402.5 c 128,-1,53
 364 391 364 391 326.5 384.5 c 128,-1,54
 289 378 289 378 245 378 c 0,55,56
 202 378 202 378 164.5 384.5 c 128,-1,57
 127 391 127 391 99 402.5 c 128,-1,58
 71 414 71 414 55.5 429 c 128,-1,59
 40 444 40 444 40 461 c 256,40,41
120 461 m 256,60,61
 120 450 120 450 129.5 440.5 c 128,-1,62
 139 431 139 431 156 424 c 128,-1,63
 173 417 173 417 196 413 c 128,-1,64
 219 409 219 409 245 409 c 0,65,66
 272 409 272 409 294.5 413 c 128,-1,67
 317 417 317 417 334 424 c 128,-1,68
 351 431 351 431 360.5 440.5 c 128,-1,69
 370 450 370 450 370 461 c 256,70,71
 370 472 370 472 360.5 481.5 c 128,-1,72
 351 491 351 491 334 498 c 128,-1,73
 317 505 317 505 294.5 509 c 128,-1,74
 272 513 272 513 245 513 c 0,75,76
 219 513 219 513 196 509 c 128,-1,77
 173 505 173 505 156 498 c 128,-1,78
 139 491 139 491 129.5 481.5 c 128,-1,79
 120 472 120 472 120 461 c 256,60,61
40 648 m 256,80,81
 40 665 40 665 55.5 680.5 c 128,-1,82
 71 696 71 696 99 707 c 128,-1,83
 127 718 127 718 164.5 724.5 c 128,-1,84
 202 731 202 731 245 731 c 0,85,86
 289 731 289 731 326.5 724.5 c 128,-1,87
 364 718 364 718 391.5 707 c 128,-1,88
 419 696 419 696 435 680.5 c 128,-1,89
 451 665 451 665 451 648 c 256,90,91
 451 631 451 631 435 616 c 128,-1,92
 419 601 419 601 391.5 589.5 c 128,-1,93
 364 578 364 578 326.5 571.5 c 128,-1,94
 289 565 289 565 245 565 c 0,95,96
 202 565 202 565 164.5 571.5 c 128,-1,97
 127 578 127 578 99 589.5 c 128,-1,98
 71 601 71 601 55.5 616 c 128,-1,99
 40 631 40 631 40 648 c 256,80,81
120 648 m 0,100,101
 120 637 120 637 129.5 627.5 c 128,-1,102
 139 618 139 618 156 611 c 128,-1,103
 173 604 173 604 196 600 c 128,-1,104
 219 596 219 596 245 596 c 0,105,106
 272 596 272 596 294.5 600 c 128,-1,107
 317 604 317 604 334 611 c 128,-1,108
 351 618 351 618 360.5 627.5 c 128,-1,109
 370 637 370 637 370 648 c 0,110,111
 370 658 370 658 360.5 668 c 128,-1,112
 351 678 351 678 334 685 c 128,-1,113
 317 692 317 692 294.5 696 c 128,-1,114
 272 700 272 700 245 700 c 0,115,116
 219 700 219 700 196 696 c 128,-1,117
 173 692 173 692 156 685 c 128,-1,118
 139 678 139 678 129.5 668 c 128,-1,119
 120 658 120 658 120 648 c 0,100,101
EndSplineSet
EndChar

StartChar: uni0084
Encoding: 132 132 190
Width: 480
Flags: W
LayerCount: 2
Fore
SplineSet
40 85 m 0,0,1
 40 103 40 103 55.5 118 c 128,-1,2
 71 133 71 133 99 144.5 c 128,-1,3
 127 156 127 156 164.5 162.5 c 128,-1,4
 202 169 202 169 245 169 c 0,5,6
 289 169 289 169 326.5 162.5 c 128,-1,7
 364 156 364 156 391.5 144.5 c 128,-1,8
 419 133 419 133 435 118 c 128,-1,9
 451 103 451 103 451 85 c 0,10,11
 451 68 451 68 435 53 c 128,-1,12
 419 38 419 38 391.5 27 c 128,-1,13
 364 16 364 16 326.5 9.5 c 128,-1,14
 289 3 289 3 245 3 c 0,15,16
 202 3 202 3 164.5 9.5 c 128,-1,17
 127 16 127 16 99 27 c 128,-1,18
 71 38 71 38 55.5 53 c 128,-1,19
 40 68 40 68 40 85 c 0,0,1
120 85 m 256,20,21
 120 74 120 74 129.5 64.5 c 128,-1,22
 139 55 139 55 156 48.5 c 128,-1,23
 173 42 173 42 196 38 c 128,-1,24
 219 34 219 34 245 34 c 0,25,26
 272 34 272 34 294.5 38 c 128,-1,27
 317 42 317 42 334 48.5 c 128,-1,28
 351 55 351 55 360.5 64.5 c 128,-1,29
 370 74 370 74 370 85 c 256,30,31
 370 96 370 96 360.5 105.5 c 128,-1,32
 351 115 351 115 334 122 c 128,-1,33
 317 129 317 129 294.5 133 c 128,-1,34
 272 137 272 137 245 137 c 0,35,36
 219 137 219 137 196 133 c 128,-1,37
 173 129 173 129 156 122 c 128,-1,38
 139 115 139 115 129.5 105.5 c 128,-1,39
 120 96 120 96 120 85 c 256,20,21
40 272 m 0,40,41
 40 290 40 290 55.5 305 c 128,-1,42
 71 320 71 320 99 331.5 c 128,-1,43
 127 343 127 343 164.5 349 c 128,-1,44
 202 355 202 355 245 355 c 0,45,46
 289 355 289 355 326.5 349 c 128,-1,47
 364 343 364 343 391.5 331.5 c 128,-1,48
 419 320 419 320 435 305 c 128,-1,49
 451 290 451 290 451 272 c 0,50,51
 451 255 451 255 435 240 c 128,-1,52
 419 225 419 225 391.5 214 c 128,-1,53
 364 203 364 203 326.5 196 c 128,-1,54
 289 189 289 189 245 189 c 0,55,56
 202 189 202 189 164.5 196 c 128,-1,57
 127 203 127 203 99 214 c 128,-1,58
 71 225 71 225 55.5 240 c 128,-1,59
 40 255 40 255 40 272 c 0,40,41
120 272 m 256,60,61
 120 261 120 261 129.5 251.5 c 128,-1,62
 139 242 139 242 156 235 c 128,-1,63
 173 228 173 228 196 224 c 128,-1,64
 219 220 219 220 245 220 c 0,65,66
 272 220 272 220 294.5 224 c 128,-1,67
 317 228 317 228 334 235 c 128,-1,68
 351 242 351 242 360.5 251.5 c 128,-1,69
 370 261 370 261 370 272 c 256,70,71
 370 283 370 283 360.5 292.5 c 128,-1,72
 351 302 351 302 334 309 c 128,-1,73
 317 316 317 316 294.5 320 c 128,-1,74
 272 324 272 324 245 324 c 0,75,76
 219 324 219 324 196 320 c 128,-1,77
 173 316 173 316 156 309 c 128,-1,78
 139 302 139 302 129.5 292.5 c 128,-1,79
 120 283 120 283 120 272 c 256,60,61
40 461 m 256,80,81
 40 478 40 478 55.5 493.5 c 128,-1,82
 71 509 71 509 99 520 c 128,-1,83
 127 531 127 531 164.5 537.5 c 128,-1,84
 202 544 202 544 245 544 c 0,85,86
 289 544 289 544 326.5 537.5 c 128,-1,87
 364 531 364 531 391.5 520 c 128,-1,88
 419 509 419 509 435 493.5 c 128,-1,89
 451 478 451 478 451 461 c 256,90,91
 451 444 451 444 435 429 c 128,-1,92
 419 414 419 414 391.5 402.5 c 128,-1,93
 364 391 364 391 326.5 384.5 c 128,-1,94
 289 378 289 378 245 378 c 0,95,96
 202 378 202 378 164.5 384.5 c 128,-1,97
 127 391 127 391 99 402.5 c 128,-1,98
 71 414 71 414 55.5 429 c 128,-1,99
 40 444 40 444 40 461 c 256,80,81
40 648 m 256,100,101
 40 665 40 665 55.5 680.5 c 128,-1,102
 71 696 71 696 99 707 c 128,-1,103
 127 718 127 718 164.5 724.5 c 128,-1,104
 202 731 202 731 245 731 c 0,105,106
 289 731 289 731 326.5 724.5 c 128,-1,107
 364 718 364 718 391.5 707 c 128,-1,108
 419 696 419 696 435 680.5 c 128,-1,109
 451 665 451 665 451 648 c 256,110,111
 451 631 451 631 435 616 c 128,-1,112
 419 601 419 601 391.5 589.5 c 128,-1,113
 364 578 364 578 326.5 571.5 c 128,-1,114
 289 565 289 565 245 565 c 0,115,116
 202 565 202 565 164.5 571.5 c 128,-1,117
 127 578 127 578 99 589.5 c 128,-1,118
 71 601 71 601 55.5 616 c 128,-1,119
 40 631 40 631 40 648 c 256,100,101
120 648 m 0,120,121
 120 637 120 637 129.5 627.5 c 128,-1,122
 139 618 139 618 156 611 c 128,-1,123
 173 604 173 604 196 600 c 128,-1,124
 219 596 219 596 245 596 c 0,125,126
 272 596 272 596 294.5 600 c 128,-1,127
 317 604 317 604 334 611 c 128,-1,128
 351 618 351 618 360.5 627.5 c 128,-1,129
 370 637 370 637 370 648 c 0,130,131
 370 658 370 658 360.5 668 c 128,-1,132
 351 678 351 678 334 685 c 128,-1,133
 317 692 317 692 294.5 696 c 128,-1,134
 272 700 272 700 245 700 c 0,135,136
 219 700 219 700 196 696 c 128,-1,137
 173 692 173 692 156 685 c 128,-1,138
 139 678 139 678 129.5 668 c 128,-1,139
 120 658 120 658 120 648 c 0,120,121
EndSplineSet
EndChar

StartChar: uni0085
Encoding: 133 133 191
Width: 480
Flags: W
LayerCount: 2
Fore
SplineSet
40 85 m 0,0,1
 40 103 40 103 55.5 118 c 128,-1,2
 71 133 71 133 99 144.5 c 128,-1,3
 127 156 127 156 164.5 162.5 c 128,-1,4
 202 169 202 169 245 169 c 0,5,6
 289 169 289 169 326.5 162.5 c 128,-1,7
 364 156 364 156 391.5 144.5 c 128,-1,8
 419 133 419 133 435 118 c 128,-1,9
 451 103 451 103 451 85 c 0,10,11
 451 68 451 68 435 53 c 128,-1,12
 419 38 419 38 391.5 27 c 128,-1,13
 364 16 364 16 326.5 9.5 c 128,-1,14
 289 3 289 3 245 3 c 0,15,16
 202 3 202 3 164.5 9.5 c 128,-1,17
 127 16 127 16 99 27 c 128,-1,18
 71 38 71 38 55.5 53 c 128,-1,19
 40 68 40 68 40 85 c 0,0,1
40 272 m 0,20,21
 40 290 40 290 55.5 305 c 128,-1,22
 71 320 71 320 99 331.5 c 128,-1,23
 127 343 127 343 164.5 349 c 128,-1,24
 202 355 202 355 245 355 c 0,25,26
 289 355 289 355 326.5 349 c 128,-1,27
 364 343 364 343 391.5 331.5 c 128,-1,28
 419 320 419 320 435 305 c 128,-1,29
 451 290 451 290 451 272 c 0,30,31
 451 255 451 255 435 240 c 128,-1,32
 419 225 419 225 391.5 214 c 128,-1,33
 364 203 364 203 326.5 196 c 128,-1,34
 289 189 289 189 245 189 c 0,35,36
 202 189 202 189 164.5 196 c 128,-1,37
 127 203 127 203 99 214 c 128,-1,38
 71 225 71 225 55.5 240 c 128,-1,39
 40 255 40 255 40 272 c 0,20,21
120 272 m 256,40,41
 120 261 120 261 129.5 251.5 c 128,-1,42
 139 242 139 242 156 235 c 128,-1,43
 173 228 173 228 196 224 c 128,-1,44
 219 220 219 220 245 220 c 0,45,46
 272 220 272 220 294.5 224 c 128,-1,47
 317 228 317 228 334 235 c 128,-1,48
 351 242 351 242 360.5 251.5 c 128,-1,49
 370 261 370 261 370 272 c 256,50,51
 370 283 370 283 360.5 292.5 c 128,-1,52
 351 302 351 302 334 309 c 128,-1,53
 317 316 317 316 294.5 320 c 128,-1,54
 272 324 272 324 245 324 c 0,55,56
 219 324 219 324 196 320 c 128,-1,57
 173 316 173 316 156 309 c 128,-1,58
 139 302 139 302 129.5 292.5 c 128,-1,59
 120 283 120 283 120 272 c 256,40,41
40 461 m 256,60,61
 40 478 40 478 55.5 493.5 c 128,-1,62
 71 509 71 509 99 520 c 128,-1,63
 127 531 127 531 164.5 537.5 c 128,-1,64
 202 544 202 544 245 544 c 0,65,66
 289 544 289 544 326.5 537.5 c 128,-1,67
 364 531 364 531 391.5 520 c 128,-1,68
 419 509 419 509 435 493.5 c 128,-1,69
 451 478 451 478 451 461 c 256,70,71
 451 444 451 444 435 429 c 128,-1,72
 419 414 419 414 391.5 402.5 c 128,-1,73
 364 391 364 391 326.5 384.5 c 128,-1,74
 289 378 289 378 245 378 c 0,75,76
 202 378 202 378 164.5 384.5 c 128,-1,77
 127 391 127 391 99 402.5 c 128,-1,78
 71 414 71 414 55.5 429 c 128,-1,79
 40 444 40 444 40 461 c 256,60,61
40 648 m 256,80,81
 40 665 40 665 55.5 680.5 c 128,-1,82
 71 696 71 696 99 707 c 128,-1,83
 127 718 127 718 164.5 724.5 c 128,-1,84
 202 731 202 731 245 731 c 0,85,86
 289 731 289 731 326.5 724.5 c 128,-1,87
 364 718 364 718 391.5 707 c 128,-1,88
 419 696 419 696 435 680.5 c 128,-1,89
 451 665 451 665 451 648 c 256,90,91
 451 631 451 631 435 616 c 128,-1,92
 419 601 419 601 391.5 589.5 c 128,-1,93
 364 578 364 578 326.5 571.5 c 128,-1,94
 289 565 289 565 245 565 c 0,95,96
 202 565 202 565 164.5 571.5 c 128,-1,97
 127 578 127 578 99 589.5 c 128,-1,98
 71 601 71 601 55.5 616 c 128,-1,99
 40 631 40 631 40 648 c 256,80,81
120 648 m 0,100,101
 120 637 120 637 129.5 627.5 c 128,-1,102
 139 618 139 618 156 611 c 128,-1,103
 173 604 173 604 196 600 c 128,-1,104
 219 596 219 596 245 596 c 0,105,106
 272 596 272 596 294.5 600 c 128,-1,107
 317 604 317 604 334 611 c 128,-1,108
 351 618 351 618 360.5 627.5 c 128,-1,109
 370 637 370 637 370 648 c 0,110,111
 370 658 370 658 360.5 668 c 128,-1,112
 351 678 351 678 334 685 c 128,-1,113
 317 692 317 692 294.5 696 c 128,-1,114
 272 700 272 700 245 700 c 0,115,116
 219 700 219 700 196 696 c 128,-1,117
 173 692 173 692 156 685 c 128,-1,118
 139 678 139 678 129.5 668 c 128,-1,119
 120 658 120 658 120 648 c 0,100,101
EndSplineSet
EndChar

StartChar: uni0086
Encoding: 134 134 192
Width: 480
Flags: W
LayerCount: 2
Fore
SplineSet
40 85 m 0,0,1
 40 103 40 103 55.5 118 c 128,-1,2
 71 133 71 133 99 144.5 c 128,-1,3
 127 156 127 156 164.5 162.5 c 128,-1,4
 202 169 202 169 245 169 c 0,5,6
 289 169 289 169 326.5 162.5 c 128,-1,7
 364 156 364 156 391.5 144.5 c 128,-1,8
 419 133 419 133 435 118 c 128,-1,9
 451 103 451 103 451 85 c 0,10,11
 451 68 451 68 435 53 c 128,-1,12
 419 38 419 38 391.5 27 c 128,-1,13
 364 16 364 16 326.5 9.5 c 128,-1,14
 289 3 289 3 245 3 c 0,15,16
 202 3 202 3 164.5 9.5 c 128,-1,17
 127 16 127 16 99 27 c 128,-1,18
 71 38 71 38 55.5 53 c 128,-1,19
 40 68 40 68 40 85 c 0,0,1
120 85 m 256,20,21
 120 74 120 74 129.5 64.5 c 128,-1,22
 139 55 139 55 156 48.5 c 128,-1,23
 173 42 173 42 196 38 c 128,-1,24
 219 34 219 34 245 34 c 0,25,26
 272 34 272 34 294.5 38 c 128,-1,27
 317 42 317 42 334 48.5 c 128,-1,28
 351 55 351 55 360.5 64.5 c 128,-1,29
 370 74 370 74 370 85 c 256,30,31
 370 96 370 96 360.5 105.5 c 128,-1,32
 351 115 351 115 334 122 c 128,-1,33
 317 129 317 129 294.5 133 c 128,-1,34
 272 137 272 137 245 137 c 0,35,36
 219 137 219 137 196 133 c 128,-1,37
 173 129 173 129 156 122 c 128,-1,38
 139 115 139 115 129.5 105.5 c 128,-1,39
 120 96 120 96 120 85 c 256,20,21
40 272 m 0,40,41
 40 290 40 290 55.5 305 c 128,-1,42
 71 320 71 320 99 331.5 c 128,-1,43
 127 343 127 343 164.5 349 c 128,-1,44
 202 355 202 355 245 355 c 0,45,46
 289 355 289 355 326.5 349 c 128,-1,47
 364 343 364 343 391.5 331.5 c 128,-1,48
 419 320 419 320 435 305 c 128,-1,49
 451 290 451 290 451 272 c 0,50,51
 451 255 451 255 435 240 c 128,-1,52
 419 225 419 225 391.5 214 c 128,-1,53
 364 203 364 203 326.5 196 c 128,-1,54
 289 189 289 189 245 189 c 0,55,56
 202 189 202 189 164.5 196 c 128,-1,57
 127 203 127 203 99 214 c 128,-1,58
 71 225 71 225 55.5 240 c 128,-1,59
 40 255 40 255 40 272 c 0,40,41
40 461 m 256,60,61
 40 478 40 478 55.5 493.5 c 128,-1,62
 71 509 71 509 99 520 c 128,-1,63
 127 531 127 531 164.5 537.5 c 128,-1,64
 202 544 202 544 245 544 c 0,65,66
 289 544 289 544 326.5 537.5 c 128,-1,67
 364 531 364 531 391.5 520 c 128,-1,68
 419 509 419 509 435 493.5 c 128,-1,69
 451 478 451 478 451 461 c 256,70,71
 451 444 451 444 435 429 c 128,-1,72
 419 414 419 414 391.5 402.5 c 128,-1,73
 364 391 364 391 326.5 384.5 c 128,-1,74
 289 378 289 378 245 378 c 0,75,76
 202 378 202 378 164.5 384.5 c 128,-1,77
 127 391 127 391 99 402.5 c 128,-1,78
 71 414 71 414 55.5 429 c 128,-1,79
 40 444 40 444 40 461 c 256,60,61
40 648 m 256,80,81
 40 665 40 665 55.5 680.5 c 128,-1,82
 71 696 71 696 99 707 c 128,-1,83
 127 718 127 718 164.5 724.5 c 128,-1,84
 202 731 202 731 245 731 c 0,85,86
 289 731 289 731 326.5 724.5 c 128,-1,87
 364 718 364 718 391.5 707 c 128,-1,88
 419 696 419 696 435 680.5 c 128,-1,89
 451 665 451 665 451 648 c 256,90,91
 451 631 451 631 435 616 c 128,-1,92
 419 601 419 601 391.5 589.5 c 128,-1,93
 364 578 364 578 326.5 571.5 c 128,-1,94
 289 565 289 565 245 565 c 0,95,96
 202 565 202 565 164.5 571.5 c 128,-1,97
 127 578 127 578 99 589.5 c 128,-1,98
 71 601 71 601 55.5 616 c 128,-1,99
 40 631 40 631 40 648 c 256,80,81
120 648 m 0,100,101
 120 637 120 637 129.5 627.5 c 128,-1,102
 139 618 139 618 156 611 c 128,-1,103
 173 604 173 604 196 600 c 128,-1,104
 219 596 219 596 245 596 c 0,105,106
 272 596 272 596 294.5 600 c 128,-1,107
 317 604 317 604 334 611 c 128,-1,108
 351 618 351 618 360.5 627.5 c 128,-1,109
 370 637 370 637 370 648 c 0,110,111
 370 658 370 658 360.5 668 c 128,-1,112
 351 678 351 678 334 685 c 128,-1,113
 317 692 317 692 294.5 696 c 128,-1,114
 272 700 272 700 245 700 c 0,115,116
 219 700 219 700 196 696 c 128,-1,117
 173 692 173 692 156 685 c 128,-1,118
 139 678 139 678 129.5 668 c 128,-1,119
 120 658 120 658 120 648 c 0,100,101
EndSplineSet
EndChar

StartChar: uni0087
Encoding: 135 135 193
Width: 480
Flags: W
LayerCount: 2
Fore
SplineSet
40 85 m 0,0,1
 40 103 40 103 55.5 118 c 128,-1,2
 71 133 71 133 99 144.5 c 128,-1,3
 127 156 127 156 164.5 162.5 c 128,-1,4
 202 169 202 169 245 169 c 0,5,6
 289 169 289 169 326.5 162.5 c 128,-1,7
 364 156 364 156 391.5 144.5 c 128,-1,8
 419 133 419 133 435 118 c 128,-1,9
 451 103 451 103 451 85 c 0,10,11
 451 68 451 68 435 53 c 128,-1,12
 419 38 419 38 391.5 27 c 128,-1,13
 364 16 364 16 326.5 9.5 c 128,-1,14
 289 3 289 3 245 3 c 0,15,16
 202 3 202 3 164.5 9.5 c 128,-1,17
 127 16 127 16 99 27 c 128,-1,18
 71 38 71 38 55.5 53 c 128,-1,19
 40 68 40 68 40 85 c 0,0,1
40 272 m 0,20,21
 40 290 40 290 55.5 305 c 128,-1,22
 71 320 71 320 99 331.5 c 128,-1,23
 127 343 127 343 164.5 349 c 128,-1,24
 202 355 202 355 245 355 c 0,25,26
 289 355 289 355 326.5 349 c 128,-1,27
 364 343 364 343 391.5 331.5 c 128,-1,28
 419 320 419 320 435 305 c 128,-1,29
 451 290 451 290 451 272 c 0,30,31
 451 255 451 255 435 240 c 128,-1,32
 419 225 419 225 391.5 214 c 128,-1,33
 364 203 364 203 326.5 196 c 128,-1,34
 289 189 289 189 245 189 c 0,35,36
 202 189 202 189 164.5 196 c 128,-1,37
 127 203 127 203 99 214 c 128,-1,38
 71 225 71 225 55.5 240 c 128,-1,39
 40 255 40 255 40 272 c 0,20,21
40 461 m 256,40,41
 40 478 40 478 55.5 493.5 c 128,-1,42
 71 509 71 509 99 520 c 128,-1,43
 127 531 127 531 164.5 537.5 c 128,-1,44
 202 544 202 544 245 544 c 0,45,46
 289 544 289 544 326.5 537.5 c 128,-1,47
 364 531 364 531 391.5 520 c 128,-1,48
 419 509 419 509 435 493.5 c 128,-1,49
 451 478 451 478 451 461 c 256,50,51
 451 444 451 444 435 429 c 128,-1,52
 419 414 419 414 391.5 402.5 c 128,-1,53
 364 391 364 391 326.5 384.5 c 128,-1,54
 289 378 289 378 245 378 c 0,55,56
 202 378 202 378 164.5 384.5 c 128,-1,57
 127 391 127 391 99 402.5 c 128,-1,58
 71 414 71 414 55.5 429 c 128,-1,59
 40 444 40 444 40 461 c 256,40,41
40 648 m 256,60,61
 40 665 40 665 55.5 680.5 c 128,-1,62
 71 696 71 696 99 707 c 128,-1,63
 127 718 127 718 164.5 724.5 c 128,-1,64
 202 731 202 731 245 731 c 0,65,66
 289 731 289 731 326.5 724.5 c 128,-1,67
 364 718 364 718 391.5 707 c 128,-1,68
 419 696 419 696 435 680.5 c 128,-1,69
 451 665 451 665 451 648 c 256,70,71
 451 631 451 631 435 616 c 128,-1,72
 419 601 419 601 391.5 589.5 c 128,-1,73
 364 578 364 578 326.5 571.5 c 128,-1,74
 289 565 289 565 245 565 c 0,75,76
 202 565 202 565 164.5 571.5 c 128,-1,77
 127 578 127 578 99 589.5 c 128,-1,78
 71 601 71 601 55.5 616 c 128,-1,79
 40 631 40 631 40 648 c 256,60,61
120 648 m 0,80,81
 120 637 120 637 129.5 627.5 c 128,-1,82
 139 618 139 618 156 611 c 128,-1,83
 173 604 173 604 196 600 c 128,-1,84
 219 596 219 596 245 596 c 0,85,86
 272 596 272 596 294.5 600 c 128,-1,87
 317 604 317 604 334 611 c 128,-1,88
 351 618 351 618 360.5 627.5 c 128,-1,89
 370 637 370 637 370 648 c 0,90,91
 370 658 370 658 360.5 668 c 128,-1,92
 351 678 351 678 334 685 c 128,-1,93
 317 692 317 692 294.5 696 c 128,-1,94
 272 700 272 700 245 700 c 0,95,96
 219 700 219 700 196 696 c 128,-1,97
 173 692 173 692 156 685 c 128,-1,98
 139 678 139 678 129.5 668 c 128,-1,99
 120 658 120 658 120 648 c 0,80,81
EndSplineSet
EndChar

StartChar: uni0088
Encoding: 136 136 194
Width: 480
Flags: W
LayerCount: 2
Fore
SplineSet
40 85 m 0,0,1
 40 103 40 103 55.5 118 c 128,-1,2
 71 133 71 133 99 144.5 c 128,-1,3
 127 156 127 156 164.5 162.5 c 128,-1,4
 202 169 202 169 245 169 c 0,5,6
 289 169 289 169 326.5 162.5 c 128,-1,7
 364 156 364 156 391.5 144.5 c 128,-1,8
 419 133 419 133 435 118 c 128,-1,9
 451 103 451 103 451 85 c 0,10,11
 451 68 451 68 435 53 c 128,-1,12
 419 38 419 38 391.5 27 c 128,-1,13
 364 16 364 16 326.5 9.5 c 128,-1,14
 289 3 289 3 245 3 c 0,15,16
 202 3 202 3 164.5 9.5 c 128,-1,17
 127 16 127 16 99 27 c 128,-1,18
 71 38 71 38 55.5 53 c 128,-1,19
 40 68 40 68 40 85 c 0,0,1
120 85 m 256,20,21
 120 74 120 74 129.5 64.5 c 128,-1,22
 139 55 139 55 156 48.5 c 128,-1,23
 173 42 173 42 196 38 c 128,-1,24
 219 34 219 34 245 34 c 0,25,26
 272 34 272 34 294.5 38 c 128,-1,27
 317 42 317 42 334 48.5 c 128,-1,28
 351 55 351 55 360.5 64.5 c 128,-1,29
 370 74 370 74 370 85 c 256,30,31
 370 96 370 96 360.5 105.5 c 128,-1,32
 351 115 351 115 334 122 c 128,-1,33
 317 129 317 129 294.5 133 c 128,-1,34
 272 137 272 137 245 137 c 0,35,36
 219 137 219 137 196 133 c 128,-1,37
 173 129 173 129 156 122 c 128,-1,38
 139 115 139 115 129.5 105.5 c 128,-1,39
 120 96 120 96 120 85 c 256,20,21
40 272 m 0,40,41
 40 290 40 290 55.5 305 c 128,-1,42
 71 320 71 320 99 331.5 c 128,-1,43
 127 343 127 343 164.5 349 c 128,-1,44
 202 355 202 355 245 355 c 0,45,46
 289 355 289 355 326.5 349 c 128,-1,47
 364 343 364 343 391.5 331.5 c 128,-1,48
 419 320 419 320 435 305 c 128,-1,49
 451 290 451 290 451 272 c 0,50,51
 451 255 451 255 435 240 c 128,-1,52
 419 225 419 225 391.5 214 c 128,-1,53
 364 203 364 203 326.5 196 c 128,-1,54
 289 189 289 189 245 189 c 0,55,56
 202 189 202 189 164.5 196 c 128,-1,57
 127 203 127 203 99 214 c 128,-1,58
 71 225 71 225 55.5 240 c 128,-1,59
 40 255 40 255 40 272 c 0,40,41
120 272 m 256,60,61
 120 261 120 261 129.5 251.5 c 128,-1,62
 139 242 139 242 156 235 c 128,-1,63
 173 228 173 228 196 224 c 128,-1,64
 219 220 219 220 245 220 c 0,65,66
 272 220 272 220 294.5 224 c 128,-1,67
 317 228 317 228 334 235 c 128,-1,68
 351 242 351 242 360.5 251.5 c 128,-1,69
 370 261 370 261 370 272 c 256,70,71
 370 283 370 283 360.5 292.5 c 128,-1,72
 351 302 351 302 334 309 c 128,-1,73
 317 316 317 316 294.5 320 c 128,-1,74
 272 324 272 324 245 324 c 0,75,76
 219 324 219 324 196 320 c 128,-1,77
 173 316 173 316 156 309 c 128,-1,78
 139 302 139 302 129.5 292.5 c 128,-1,79
 120 283 120 283 120 272 c 256,60,61
40 461 m 256,80,81
 40 478 40 478 55.5 493.5 c 128,-1,82
 71 509 71 509 99 520 c 128,-1,83
 127 531 127 531 164.5 537.5 c 128,-1,84
 202 544 202 544 245 544 c 0,85,86
 289 544 289 544 326.5 537.5 c 128,-1,87
 364 531 364 531 391.5 520 c 128,-1,88
 419 509 419 509 435 493.5 c 128,-1,89
 451 478 451 478 451 461 c 256,90,91
 451 444 451 444 435 429 c 128,-1,92
 419 414 419 414 391.5 402.5 c 128,-1,93
 364 391 364 391 326.5 384.5 c 128,-1,94
 289 378 289 378 245 378 c 0,95,96
 202 378 202 378 164.5 384.5 c 128,-1,97
 127 391 127 391 99 402.5 c 128,-1,98
 71 414 71 414 55.5 429 c 128,-1,99
 40 444 40 444 40 461 c 256,80,81
120 461 m 256,100,101
 120 450 120 450 129.5 440.5 c 128,-1,102
 139 431 139 431 156 424 c 128,-1,103
 173 417 173 417 196 413 c 128,-1,104
 219 409 219 409 245 409 c 0,105,106
 272 409 272 409 294.5 413 c 128,-1,107
 317 417 317 417 334 424 c 128,-1,108
 351 431 351 431 360.5 440.5 c 128,-1,109
 370 450 370 450 370 461 c 256,110,111
 370 472 370 472 360.5 481.5 c 128,-1,112
 351 491 351 491 334 498 c 128,-1,113
 317 505 317 505 294.5 509 c 128,-1,114
 272 513 272 513 245 513 c 0,115,116
 219 513 219 513 196 509 c 128,-1,117
 173 505 173 505 156 498 c 128,-1,118
 139 491 139 491 129.5 481.5 c 128,-1,119
 120 472 120 472 120 461 c 256,100,101
40 648 m 256,120,121
 40 665 40 665 55.5 680.5 c 128,-1,122
 71 696 71 696 99 707 c 128,-1,123
 127 718 127 718 164.5 724.5 c 128,-1,124
 202 731 202 731 245 731 c 0,125,126
 289 731 289 731 326.5 724.5 c 128,-1,127
 364 718 364 718 391.5 707 c 128,-1,128
 419 696 419 696 435 680.5 c 128,-1,129
 451 665 451 665 451 648 c 256,130,131
 451 631 451 631 435 616 c 128,-1,132
 419 601 419 601 391.5 589.5 c 128,-1,133
 364 578 364 578 326.5 571.5 c 128,-1,134
 289 565 289 565 245 565 c 0,135,136
 202 565 202 565 164.5 571.5 c 128,-1,137
 127 578 127 578 99 589.5 c 128,-1,138
 71 601 71 601 55.5 616 c 128,-1,139
 40 631 40 631 40 648 c 256,120,121
EndSplineSet
EndChar

StartChar: uni0089
Encoding: 137 137 195
Width: 480
Flags: W
LayerCount: 2
Fore
SplineSet
40 85 m 0,0,1
 40 103 40 103 55.5 118 c 128,-1,2
 71 133 71 133 99 144.5 c 128,-1,3
 127 156 127 156 164.5 162.5 c 128,-1,4
 202 169 202 169 245 169 c 0,5,6
 289 169 289 169 326.5 162.5 c 128,-1,7
 364 156 364 156 391.5 144.5 c 128,-1,8
 419 133 419 133 435 118 c 128,-1,9
 451 103 451 103 451 85 c 0,10,11
 451 68 451 68 435 53 c 128,-1,12
 419 38 419 38 391.5 27 c 128,-1,13
 364 16 364 16 326.5 9.5 c 128,-1,14
 289 3 289 3 245 3 c 0,15,16
 202 3 202 3 164.5 9.5 c 128,-1,17
 127 16 127 16 99 27 c 128,-1,18
 71 38 71 38 55.5 53 c 128,-1,19
 40 68 40 68 40 85 c 0,0,1
40 272 m 0,20,21
 40 290 40 290 55.5 305 c 128,-1,22
 71 320 71 320 99 331.5 c 128,-1,23
 127 343 127 343 164.5 349 c 128,-1,24
 202 355 202 355 245 355 c 0,25,26
 289 355 289 355 326.5 349 c 128,-1,27
 364 343 364 343 391.5 331.5 c 128,-1,28
 419 320 419 320 435 305 c 128,-1,29
 451 290 451 290 451 272 c 0,30,31
 451 255 451 255 435 240 c 128,-1,32
 419 225 419 225 391.5 214 c 128,-1,33
 364 203 364 203 326.5 196 c 128,-1,34
 289 189 289 189 245 189 c 0,35,36
 202 189 202 189 164.5 196 c 128,-1,37
 127 203 127 203 99 214 c 128,-1,38
 71 225 71 225 55.5 240 c 128,-1,39
 40 255 40 255 40 272 c 0,20,21
120 272 m 256,40,41
 120 261 120 261 129.5 251.5 c 128,-1,42
 139 242 139 242 156 235 c 128,-1,43
 173 228 173 228 196 224 c 128,-1,44
 219 220 219 220 245 220 c 0,45,46
 272 220 272 220 294.5 224 c 128,-1,47
 317 228 317 228 334 235 c 128,-1,48
 351 242 351 242 360.5 251.5 c 128,-1,49
 370 261 370 261 370 272 c 256,50,51
 370 283 370 283 360.5 292.5 c 128,-1,52
 351 302 351 302 334 309 c 128,-1,53
 317 316 317 316 294.5 320 c 128,-1,54
 272 324 272 324 245 324 c 0,55,56
 219 324 219 324 196 320 c 128,-1,57
 173 316 173 316 156 309 c 128,-1,58
 139 302 139 302 129.5 292.5 c 128,-1,59
 120 283 120 283 120 272 c 256,40,41
40 461 m 256,60,61
 40 478 40 478 55.5 493.5 c 128,-1,62
 71 509 71 509 99 520 c 128,-1,63
 127 531 127 531 164.5 537.5 c 128,-1,64
 202 544 202 544 245 544 c 0,65,66
 289 544 289 544 326.5 537.5 c 128,-1,67
 364 531 364 531 391.5 520 c 128,-1,68
 419 509 419 509 435 493.5 c 128,-1,69
 451 478 451 478 451 461 c 256,70,71
 451 444 451 444 435 429 c 128,-1,72
 419 414 419 414 391.5 402.5 c 128,-1,73
 364 391 364 391 326.5 384.5 c 128,-1,74
 289 378 289 378 245 378 c 0,75,76
 202 378 202 378 164.5 384.5 c 128,-1,77
 127 391 127 391 99 402.5 c 128,-1,78
 71 414 71 414 55.5 429 c 128,-1,79
 40 444 40 444 40 461 c 256,60,61
120 461 m 256,80,81
 120 450 120 450 129.5 440.5 c 128,-1,82
 139 431 139 431 156 424 c 128,-1,83
 173 417 173 417 196 413 c 128,-1,84
 219 409 219 409 245 409 c 0,85,86
 272 409 272 409 294.5 413 c 128,-1,87
 317 417 317 417 334 424 c 128,-1,88
 351 431 351 431 360.5 440.5 c 128,-1,89
 370 450 370 450 370 461 c 256,90,91
 370 472 370 472 360.5 481.5 c 128,-1,92
 351 491 351 491 334 498 c 128,-1,93
 317 505 317 505 294.5 509 c 128,-1,94
 272 513 272 513 245 513 c 0,95,96
 219 513 219 513 196 509 c 128,-1,97
 173 505 173 505 156 498 c 128,-1,98
 139 491 139 491 129.5 481.5 c 128,-1,99
 120 472 120 472 120 461 c 256,80,81
40 648 m 256,100,101
 40 665 40 665 55.5 680.5 c 128,-1,102
 71 696 71 696 99 707 c 128,-1,103
 127 718 127 718 164.5 724.5 c 128,-1,104
 202 731 202 731 245 731 c 0,105,106
 289 731 289 731 326.5 724.5 c 128,-1,107
 364 718 364 718 391.5 707 c 128,-1,108
 419 696 419 696 435 680.5 c 128,-1,109
 451 665 451 665 451 648 c 256,110,111
 451 631 451 631 435 616 c 128,-1,112
 419 601 419 601 391.5 589.5 c 128,-1,113
 364 578 364 578 326.5 571.5 c 128,-1,114
 289 565 289 565 245 565 c 0,115,116
 202 565 202 565 164.5 571.5 c 128,-1,117
 127 578 127 578 99 589.5 c 128,-1,118
 71 601 71 601 55.5 616 c 128,-1,119
 40 631 40 631 40 648 c 256,100,101
EndSplineSet
EndChar

StartChar: uni008A
Encoding: 138 138 196
Width: 480
Flags: W
LayerCount: 2
Fore
SplineSet
40 85 m 0,0,1
 40 103 40 103 55.5 118 c 128,-1,2
 71 133 71 133 99 144.5 c 128,-1,3
 127 156 127 156 164.5 162.5 c 128,-1,4
 202 169 202 169 245 169 c 0,5,6
 289 169 289 169 326.5 162.5 c 128,-1,7
 364 156 364 156 391.5 144.5 c 128,-1,8
 419 133 419 133 435 118 c 128,-1,9
 451 103 451 103 451 85 c 0,10,11
 451 68 451 68 435 53 c 128,-1,12
 419 38 419 38 391.5 27 c 128,-1,13
 364 16 364 16 326.5 9.5 c 128,-1,14
 289 3 289 3 245 3 c 0,15,16
 202 3 202 3 164.5 9.5 c 128,-1,17
 127 16 127 16 99 27 c 128,-1,18
 71 38 71 38 55.5 53 c 128,-1,19
 40 68 40 68 40 85 c 0,0,1
120 85 m 256,20,21
 120 74 120 74 129.5 64.5 c 128,-1,22
 139 55 139 55 156 48.5 c 128,-1,23
 173 42 173 42 196 38 c 128,-1,24
 219 34 219 34 245 34 c 0,25,26
 272 34 272 34 294.5 38 c 128,-1,27
 317 42 317 42 334 48.5 c 128,-1,28
 351 55 351 55 360.5 64.5 c 128,-1,29
 370 74 370 74 370 85 c 256,30,31
 370 96 370 96 360.5 105.5 c 128,-1,32
 351 115 351 115 334 122 c 128,-1,33
 317 129 317 129 294.5 133 c 128,-1,34
 272 137 272 137 245 137 c 0,35,36
 219 137 219 137 196 133 c 128,-1,37
 173 129 173 129 156 122 c 128,-1,38
 139 115 139 115 129.5 105.5 c 128,-1,39
 120 96 120 96 120 85 c 256,20,21
40 272 m 0,40,41
 40 290 40 290 55.5 305 c 128,-1,42
 71 320 71 320 99 331.5 c 128,-1,43
 127 343 127 343 164.5 349 c 128,-1,44
 202 355 202 355 245 355 c 0,45,46
 289 355 289 355 326.5 349 c 128,-1,47
 364 343 364 343 391.5 331.5 c 128,-1,48
 419 320 419 320 435 305 c 128,-1,49
 451 290 451 290 451 272 c 0,50,51
 451 255 451 255 435 240 c 128,-1,52
 419 225 419 225 391.5 214 c 128,-1,53
 364 203 364 203 326.5 196 c 128,-1,54
 289 189 289 189 245 189 c 0,55,56
 202 189 202 189 164.5 196 c 128,-1,57
 127 203 127 203 99 214 c 128,-1,58
 71 225 71 225 55.5 240 c 128,-1,59
 40 255 40 255 40 272 c 0,40,41
40 461 m 256,60,61
 40 478 40 478 55.5 493.5 c 128,-1,62
 71 509 71 509 99 520 c 128,-1,63
 127 531 127 531 164.5 537.5 c 128,-1,64
 202 544 202 544 245 544 c 0,65,66
 289 544 289 544 326.5 537.5 c 128,-1,67
 364 531 364 531 391.5 520 c 128,-1,68
 419 509 419 509 435 493.5 c 128,-1,69
 451 478 451 478 451 461 c 256,70,71
 451 444 451 444 435 429 c 128,-1,72
 419 414 419 414 391.5 402.5 c 128,-1,73
 364 391 364 391 326.5 384.5 c 128,-1,74
 289 378 289 378 245 378 c 0,75,76
 202 378 202 378 164.5 384.5 c 128,-1,77
 127 391 127 391 99 402.5 c 128,-1,78
 71 414 71 414 55.5 429 c 128,-1,79
 40 444 40 444 40 461 c 256,60,61
120 461 m 256,80,81
 120 450 120 450 129.5 440.5 c 128,-1,82
 139 431 139 431 156 424 c 128,-1,83
 173 417 173 417 196 413 c 128,-1,84
 219 409 219 409 245 409 c 0,85,86
 272 409 272 409 294.5 413 c 128,-1,87
 317 417 317 417 334 424 c 128,-1,88
 351 431 351 431 360.5 440.5 c 128,-1,89
 370 450 370 450 370 461 c 256,90,91
 370 472 370 472 360.5 481.5 c 128,-1,92
 351 491 351 491 334 498 c 128,-1,93
 317 505 317 505 294.5 509 c 128,-1,94
 272 513 272 513 245 513 c 0,95,96
 219 513 219 513 196 509 c 128,-1,97
 173 505 173 505 156 498 c 128,-1,98
 139 491 139 491 129.5 481.5 c 128,-1,99
 120 472 120 472 120 461 c 256,80,81
40 648 m 256,100,101
 40 665 40 665 55.5 680.5 c 128,-1,102
 71 696 71 696 99 707 c 128,-1,103
 127 718 127 718 164.5 724.5 c 128,-1,104
 202 731 202 731 245 731 c 0,105,106
 289 731 289 731 326.5 724.5 c 128,-1,107
 364 718 364 718 391.5 707 c 128,-1,108
 419 696 419 696 435 680.5 c 128,-1,109
 451 665 451 665 451 648 c 256,110,111
 451 631 451 631 435 616 c 128,-1,112
 419 601 419 601 391.5 589.5 c 128,-1,113
 364 578 364 578 326.5 571.5 c 128,-1,114
 289 565 289 565 245 565 c 0,115,116
 202 565 202 565 164.5 571.5 c 128,-1,117
 127 578 127 578 99 589.5 c 128,-1,118
 71 601 71 601 55.5 616 c 128,-1,119
 40 631 40 631 40 648 c 256,100,101
EndSplineSet
EndChar

StartChar: uni008B
Encoding: 139 139 197
Width: 480
Flags: W
LayerCount: 2
Fore
SplineSet
40 85 m 0,0,1
 40 103 40 103 55.5 118 c 128,-1,2
 71 133 71 133 99 144.5 c 128,-1,3
 127 156 127 156 164.5 162.5 c 128,-1,4
 202 169 202 169 245 169 c 0,5,6
 289 169 289 169 326.5 162.5 c 128,-1,7
 364 156 364 156 391.5 144.5 c 128,-1,8
 419 133 419 133 435 118 c 128,-1,9
 451 103 451 103 451 85 c 0,10,11
 451 68 451 68 435 53 c 128,-1,12
 419 38 419 38 391.5 27 c 128,-1,13
 364 16 364 16 326.5 9.5 c 128,-1,14
 289 3 289 3 245 3 c 0,15,16
 202 3 202 3 164.5 9.5 c 128,-1,17
 127 16 127 16 99 27 c 128,-1,18
 71 38 71 38 55.5 53 c 128,-1,19
 40 68 40 68 40 85 c 0,0,1
40 272 m 0,20,21
 40 290 40 290 55.5 305 c 128,-1,22
 71 320 71 320 99 331.5 c 128,-1,23
 127 343 127 343 164.5 349 c 128,-1,24
 202 355 202 355 245 355 c 0,25,26
 289 355 289 355 326.5 349 c 128,-1,27
 364 343 364 343 391.5 331.5 c 128,-1,28
 419 320 419 320 435 305 c 128,-1,29
 451 290 451 290 451 272 c 0,30,31
 451 255 451 255 435 240 c 128,-1,32
 419 225 419 225 391.5 214 c 128,-1,33
 364 203 364 203 326.5 196 c 128,-1,34
 289 189 289 189 245 189 c 0,35,36
 202 189 202 189 164.5 196 c 128,-1,37
 127 203 127 203 99 214 c 128,-1,38
 71 225 71 225 55.5 240 c 128,-1,39
 40 255 40 255 40 272 c 0,20,21
40 461 m 256,40,41
 40 478 40 478 55.5 493.5 c 128,-1,42
 71 509 71 509 99 520 c 128,-1,43
 127 531 127 531 164.5 537.5 c 128,-1,44
 202 544 202 544 245 544 c 0,45,46
 289 544 289 544 326.5 537.5 c 128,-1,47
 364 531 364 531 391.5 520 c 128,-1,48
 419 509 419 509 435 493.5 c 128,-1,49
 451 478 451 478 451 461 c 256,50,51
 451 444 451 444 435 429 c 128,-1,52
 419 414 419 414 391.5 402.5 c 128,-1,53
 364 391 364 391 326.5 384.5 c 128,-1,54
 289 378 289 378 245 378 c 0,55,56
 202 378 202 378 164.5 384.5 c 128,-1,57
 127 391 127 391 99 402.5 c 128,-1,58
 71 414 71 414 55.5 429 c 128,-1,59
 40 444 40 444 40 461 c 256,40,41
120 461 m 256,60,61
 120 450 120 450 129.5 440.5 c 128,-1,62
 139 431 139 431 156 424 c 128,-1,63
 173 417 173 417 196 413 c 128,-1,64
 219 409 219 409 245 409 c 0,65,66
 272 409 272 409 294.5 413 c 128,-1,67
 317 417 317 417 334 424 c 128,-1,68
 351 431 351 431 360.5 440.5 c 128,-1,69
 370 450 370 450 370 461 c 256,70,71
 370 472 370 472 360.5 481.5 c 128,-1,72
 351 491 351 491 334 498 c 128,-1,73
 317 505 317 505 294.5 509 c 128,-1,74
 272 513 272 513 245 513 c 0,75,76
 219 513 219 513 196 509 c 128,-1,77
 173 505 173 505 156 498 c 128,-1,78
 139 491 139 491 129.5 481.5 c 128,-1,79
 120 472 120 472 120 461 c 256,60,61
40 648 m 256,80,81
 40 665 40 665 55.5 680.5 c 128,-1,82
 71 696 71 696 99 707 c 128,-1,83
 127 718 127 718 164.5 724.5 c 128,-1,84
 202 731 202 731 245 731 c 0,85,86
 289 731 289 731 326.5 724.5 c 128,-1,87
 364 718 364 718 391.5 707 c 128,-1,88
 419 696 419 696 435 680.5 c 128,-1,89
 451 665 451 665 451 648 c 256,90,91
 451 631 451 631 435 616 c 128,-1,92
 419 601 419 601 391.5 589.5 c 128,-1,93
 364 578 364 578 326.5 571.5 c 128,-1,94
 289 565 289 565 245 565 c 0,95,96
 202 565 202 565 164.5 571.5 c 128,-1,97
 127 578 127 578 99 589.5 c 128,-1,98
 71 601 71 601 55.5 616 c 128,-1,99
 40 631 40 631 40 648 c 256,80,81
EndSplineSet
EndChar

StartChar: uni008C
Encoding: 140 140 198
Width: 480
Flags: W
LayerCount: 2
Fore
SplineSet
40 85 m 0,0,1
 40 103 40 103 55.5 118 c 128,-1,2
 71 133 71 133 99 144.5 c 128,-1,3
 127 156 127 156 164.5 162.5 c 128,-1,4
 202 169 202 169 245 169 c 0,5,6
 289 169 289 169 326.5 162.5 c 128,-1,7
 364 156 364 156 391.5 144.5 c 128,-1,8
 419 133 419 133 435 118 c 128,-1,9
 451 103 451 103 451 85 c 0,10,11
 451 68 451 68 435 53 c 128,-1,12
 419 38 419 38 391.5 27 c 128,-1,13
 364 16 364 16 326.5 9.5 c 128,-1,14
 289 3 289 3 245 3 c 0,15,16
 202 3 202 3 164.5 9.5 c 128,-1,17
 127 16 127 16 99 27 c 128,-1,18
 71 38 71 38 55.5 53 c 128,-1,19
 40 68 40 68 40 85 c 0,0,1
120 85 m 256,20,21
 120 74 120 74 129.5 64.5 c 128,-1,22
 139 55 139 55 156 48.5 c 128,-1,23
 173 42 173 42 196 38 c 128,-1,24
 219 34 219 34 245 34 c 0,25,26
 272 34 272 34 294.5 38 c 128,-1,27
 317 42 317 42 334 48.5 c 128,-1,28
 351 55 351 55 360.5 64.5 c 128,-1,29
 370 74 370 74 370 85 c 256,30,31
 370 96 370 96 360.5 105.5 c 128,-1,32
 351 115 351 115 334 122 c 128,-1,33
 317 129 317 129 294.5 133 c 128,-1,34
 272 137 272 137 245 137 c 0,35,36
 219 137 219 137 196 133 c 128,-1,37
 173 129 173 129 156 122 c 128,-1,38
 139 115 139 115 129.5 105.5 c 128,-1,39
 120 96 120 96 120 85 c 256,20,21
40 272 m 0,40,41
 40 290 40 290 55.5 305 c 128,-1,42
 71 320 71 320 99 331.5 c 128,-1,43
 127 343 127 343 164.5 349 c 128,-1,44
 202 355 202 355 245 355 c 0,45,46
 289 355 289 355 326.5 349 c 128,-1,47
 364 343 364 343 391.5 331.5 c 128,-1,48
 419 320 419 320 435 305 c 128,-1,49
 451 290 451 290 451 272 c 0,50,51
 451 255 451 255 435 240 c 128,-1,52
 419 225 419 225 391.5 214 c 128,-1,53
 364 203 364 203 326.5 196 c 128,-1,54
 289 189 289 189 245 189 c 0,55,56
 202 189 202 189 164.5 196 c 128,-1,57
 127 203 127 203 99 214 c 128,-1,58
 71 225 71 225 55.5 240 c 128,-1,59
 40 255 40 255 40 272 c 0,40,41
120 272 m 256,60,61
 120 261 120 261 129.5 251.5 c 128,-1,62
 139 242 139 242 156 235 c 128,-1,63
 173 228 173 228 196 224 c 128,-1,64
 219 220 219 220 245 220 c 0,65,66
 272 220 272 220 294.5 224 c 128,-1,67
 317 228 317 228 334 235 c 128,-1,68
 351 242 351 242 360.5 251.5 c 128,-1,69
 370 261 370 261 370 272 c 256,70,71
 370 283 370 283 360.5 292.5 c 128,-1,72
 351 302 351 302 334 309 c 128,-1,73
 317 316 317 316 294.5 320 c 128,-1,74
 272 324 272 324 245 324 c 0,75,76
 219 324 219 324 196 320 c 128,-1,77
 173 316 173 316 156 309 c 128,-1,78
 139 302 139 302 129.5 292.5 c 128,-1,79
 120 283 120 283 120 272 c 256,60,61
40 461 m 256,80,81
 40 478 40 478 55.5 493.5 c 128,-1,82
 71 509 71 509 99 520 c 128,-1,83
 127 531 127 531 164.5 537.5 c 128,-1,84
 202 544 202 544 245 544 c 0,85,86
 289 544 289 544 326.5 537.5 c 128,-1,87
 364 531 364 531 391.5 520 c 128,-1,88
 419 509 419 509 435 493.5 c 128,-1,89
 451 478 451 478 451 461 c 256,90,91
 451 444 451 444 435 429 c 128,-1,92
 419 414 419 414 391.5 402.5 c 128,-1,93
 364 391 364 391 326.5 384.5 c 128,-1,94
 289 378 289 378 245 378 c 0,95,96
 202 378 202 378 164.5 384.5 c 128,-1,97
 127 391 127 391 99 402.5 c 128,-1,98
 71 414 71 414 55.5 429 c 128,-1,99
 40 444 40 444 40 461 c 256,80,81
40 648 m 256,100,101
 40 665 40 665 55.5 680.5 c 128,-1,102
 71 696 71 696 99 707 c 128,-1,103
 127 718 127 718 164.5 724.5 c 128,-1,104
 202 731 202 731 245 731 c 0,105,106
 289 731 289 731 326.5 724.5 c 128,-1,107
 364 718 364 718 391.5 707 c 128,-1,108
 419 696 419 696 435 680.5 c 128,-1,109
 451 665 451 665 451 648 c 256,110,111
 451 631 451 631 435 616 c 128,-1,112
 419 601 419 601 391.5 589.5 c 128,-1,113
 364 578 364 578 326.5 571.5 c 128,-1,114
 289 565 289 565 245 565 c 0,115,116
 202 565 202 565 164.5 571.5 c 128,-1,117
 127 578 127 578 99 589.5 c 128,-1,118
 71 601 71 601 55.5 616 c 128,-1,119
 40 631 40 631 40 648 c 256,100,101
EndSplineSet
EndChar

StartChar: uni008D
Encoding: 141 141 199
Width: 480
Flags: W
LayerCount: 2
Fore
SplineSet
40 85 m 0,0,1
 40 103 40 103 55.5 118 c 128,-1,2
 71 133 71 133 99 144.5 c 128,-1,3
 127 156 127 156 164.5 162.5 c 128,-1,4
 202 169 202 169 245 169 c 0,5,6
 289 169 289 169 326.5 162.5 c 128,-1,7
 364 156 364 156 391.5 144.5 c 128,-1,8
 419 133 419 133 435 118 c 128,-1,9
 451 103 451 103 451 85 c 0,10,11
 451 68 451 68 435 53 c 128,-1,12
 419 38 419 38 391.5 27 c 128,-1,13
 364 16 364 16 326.5 9.5 c 128,-1,14
 289 3 289 3 245 3 c 0,15,16
 202 3 202 3 164.5 9.5 c 128,-1,17
 127 16 127 16 99 27 c 128,-1,18
 71 38 71 38 55.5 53 c 128,-1,19
 40 68 40 68 40 85 c 0,0,1
40 272 m 0,20,21
 40 290 40 290 55.5 305 c 128,-1,22
 71 320 71 320 99 331.5 c 128,-1,23
 127 343 127 343 164.5 349 c 128,-1,24
 202 355 202 355 245 355 c 0,25,26
 289 355 289 355 326.5 349 c 128,-1,27
 364 343 364 343 391.5 331.5 c 128,-1,28
 419 320 419 320 435 305 c 128,-1,29
 451 290 451 290 451 272 c 0,30,31
 451 255 451 255 435 240 c 128,-1,32
 419 225 419 225 391.5 214 c 128,-1,33
 364 203 364 203 326.5 196 c 128,-1,34
 289 189 289 189 245 189 c 0,35,36
 202 189 202 189 164.5 196 c 128,-1,37
 127 203 127 203 99 214 c 128,-1,38
 71 225 71 225 55.5 240 c 128,-1,39
 40 255 40 255 40 272 c 0,20,21
120 272 m 256,40,41
 120 261 120 261 129.5 251.5 c 128,-1,42
 139 242 139 242 156 235 c 128,-1,43
 173 228 173 228 196 224 c 128,-1,44
 219 220 219 220 245 220 c 0,45,46
 272 220 272 220 294.5 224 c 128,-1,47
 317 228 317 228 334 235 c 128,-1,48
 351 242 351 242 360.5 251.5 c 128,-1,49
 370 261 370 261 370 272 c 256,50,51
 370 283 370 283 360.5 292.5 c 128,-1,52
 351 302 351 302 334 309 c 128,-1,53
 317 316 317 316 294.5 320 c 128,-1,54
 272 324 272 324 245 324 c 0,55,56
 219 324 219 324 196 320 c 128,-1,57
 173 316 173 316 156 309 c 128,-1,58
 139 302 139 302 129.5 292.5 c 128,-1,59
 120 283 120 283 120 272 c 256,40,41
40 461 m 256,60,61
 40 478 40 478 55.5 493.5 c 128,-1,62
 71 509 71 509 99 520 c 128,-1,63
 127 531 127 531 164.5 537.5 c 128,-1,64
 202 544 202 544 245 544 c 0,65,66
 289 544 289 544 326.5 537.5 c 128,-1,67
 364 531 364 531 391.5 520 c 128,-1,68
 419 509 419 509 435 493.5 c 128,-1,69
 451 478 451 478 451 461 c 256,70,71
 451 444 451 444 435 429 c 128,-1,72
 419 414 419 414 391.5 402.5 c 128,-1,73
 364 391 364 391 326.5 384.5 c 128,-1,74
 289 378 289 378 245 378 c 0,75,76
 202 378 202 378 164.5 384.5 c 128,-1,77
 127 391 127 391 99 402.5 c 128,-1,78
 71 414 71 414 55.5 429 c 128,-1,79
 40 444 40 444 40 461 c 256,60,61
40 648 m 256,80,81
 40 665 40 665 55.5 680.5 c 128,-1,82
 71 696 71 696 99 707 c 128,-1,83
 127 718 127 718 164.5 724.5 c 128,-1,84
 202 731 202 731 245 731 c 0,85,86
 289 731 289 731 326.5 724.5 c 128,-1,87
 364 718 364 718 391.5 707 c 128,-1,88
 419 696 419 696 435 680.5 c 128,-1,89
 451 665 451 665 451 648 c 256,90,91
 451 631 451 631 435 616 c 128,-1,92
 419 601 419 601 391.5 589.5 c 128,-1,93
 364 578 364 578 326.5 571.5 c 128,-1,94
 289 565 289 565 245 565 c 0,95,96
 202 565 202 565 164.5 571.5 c 128,-1,97
 127 578 127 578 99 589.5 c 128,-1,98
 71 601 71 601 55.5 616 c 128,-1,99
 40 631 40 631 40 648 c 256,80,81
EndSplineSet
EndChar

StartChar: uni008E
Encoding: 142 142 200
Width: 480
Flags: W
LayerCount: 2
Fore
SplineSet
40 85 m 0,0,1
 40 103 40 103 55.5 118 c 128,-1,2
 71 133 71 133 99 144.5 c 128,-1,3
 127 156 127 156 164.5 162.5 c 128,-1,4
 202 169 202 169 245 169 c 0,5,6
 289 169 289 169 326.5 162.5 c 128,-1,7
 364 156 364 156 391.5 144.5 c 128,-1,8
 419 133 419 133 435 118 c 128,-1,9
 451 103 451 103 451 85 c 0,10,11
 451 68 451 68 435 53 c 128,-1,12
 419 38 419 38 391.5 27 c 128,-1,13
 364 16 364 16 326.5 9.5 c 128,-1,14
 289 3 289 3 245 3 c 0,15,16
 202 3 202 3 164.5 9.5 c 128,-1,17
 127 16 127 16 99 27 c 128,-1,18
 71 38 71 38 55.5 53 c 128,-1,19
 40 68 40 68 40 85 c 0,0,1
120 85 m 256,20,21
 120 74 120 74 129.5 64.5 c 128,-1,22
 139 55 139 55 156 48.5 c 128,-1,23
 173 42 173 42 196 38 c 128,-1,24
 219 34 219 34 245 34 c 0,25,26
 272 34 272 34 294.5 38 c 128,-1,27
 317 42 317 42 334 48.5 c 128,-1,28
 351 55 351 55 360.5 64.5 c 128,-1,29
 370 74 370 74 370 85 c 256,30,31
 370 96 370 96 360.5 105.5 c 128,-1,32
 351 115 351 115 334 122 c 128,-1,33
 317 129 317 129 294.5 133 c 128,-1,34
 272 137 272 137 245 137 c 0,35,36
 219 137 219 137 196 133 c 128,-1,37
 173 129 173 129 156 122 c 128,-1,38
 139 115 139 115 129.5 105.5 c 128,-1,39
 120 96 120 96 120 85 c 256,20,21
40 272 m 0,40,41
 40 290 40 290 55.5 305 c 128,-1,42
 71 320 71 320 99 331.5 c 128,-1,43
 127 343 127 343 164.5 349 c 128,-1,44
 202 355 202 355 245 355 c 0,45,46
 289 355 289 355 326.5 349 c 128,-1,47
 364 343 364 343 391.5 331.5 c 128,-1,48
 419 320 419 320 435 305 c 128,-1,49
 451 290 451 290 451 272 c 0,50,51
 451 255 451 255 435 240 c 128,-1,52
 419 225 419 225 391.5 214 c 128,-1,53
 364 203 364 203 326.5 196 c 128,-1,54
 289 189 289 189 245 189 c 0,55,56
 202 189 202 189 164.5 196 c 128,-1,57
 127 203 127 203 99 214 c 128,-1,58
 71 225 71 225 55.5 240 c 128,-1,59
 40 255 40 255 40 272 c 0,40,41
40 461 m 256,60,61
 40 478 40 478 55.5 493.5 c 128,-1,62
 71 509 71 509 99 520 c 128,-1,63
 127 531 127 531 164.5 537.5 c 128,-1,64
 202 544 202 544 245 544 c 0,65,66
 289 544 289 544 326.5 537.5 c 128,-1,67
 364 531 364 531 391.5 520 c 128,-1,68
 419 509 419 509 435 493.5 c 128,-1,69
 451 478 451 478 451 461 c 256,70,71
 451 444 451 444 435 429 c 128,-1,72
 419 414 419 414 391.5 402.5 c 128,-1,73
 364 391 364 391 326.5 384.5 c 128,-1,74
 289 378 289 378 245 378 c 0,75,76
 202 378 202 378 164.5 384.5 c 128,-1,77
 127 391 127 391 99 402.5 c 128,-1,78
 71 414 71 414 55.5 429 c 128,-1,79
 40 444 40 444 40 461 c 256,60,61
40 648 m 256,80,81
 40 665 40 665 55.5 680.5 c 128,-1,82
 71 696 71 696 99 707 c 128,-1,83
 127 718 127 718 164.5 724.5 c 128,-1,84
 202 731 202 731 245 731 c 0,85,86
 289 731 289 731 326.5 724.5 c 128,-1,87
 364 718 364 718 391.5 707 c 128,-1,88
 419 696 419 696 435 680.5 c 128,-1,89
 451 665 451 665 451 648 c 256,90,91
 451 631 451 631 435 616 c 128,-1,92
 419 601 419 601 391.5 589.5 c 128,-1,93
 364 578 364 578 326.5 571.5 c 128,-1,94
 289 565 289 565 245 565 c 0,95,96
 202 565 202 565 164.5 571.5 c 128,-1,97
 127 578 127 578 99 589.5 c 128,-1,98
 71 601 71 601 55.5 616 c 128,-1,99
 40 631 40 631 40 648 c 256,80,81
EndSplineSet
EndChar

StartChar: uni008F
Encoding: 143 143 201
Width: 480
Flags: W
LayerCount: 2
Fore
SplineSet
40 85 m 0,0,1
 40 103 40 103 55.5 118 c 128,-1,2
 71 133 71 133 99 144.5 c 128,-1,3
 127 156 127 156 164.5 162.5 c 128,-1,4
 202 169 202 169 245 169 c 0,5,6
 289 169 289 169 326.5 162.5 c 128,-1,7
 364 156 364 156 391.5 144.5 c 128,-1,8
 419 133 419 133 435 118 c 128,-1,9
 451 103 451 103 451 85 c 0,10,11
 451 68 451 68 435 53 c 128,-1,12
 419 38 419 38 391.5 27 c 128,-1,13
 364 16 364 16 326.5 9.5 c 128,-1,14
 289 3 289 3 245 3 c 0,15,16
 202 3 202 3 164.5 9.5 c 128,-1,17
 127 16 127 16 99 27 c 128,-1,18
 71 38 71 38 55.5 53 c 128,-1,19
 40 68 40 68 40 85 c 0,0,1
40 272 m 0,20,21
 40 290 40 290 55.5 305 c 128,-1,22
 71 320 71 320 99 331.5 c 128,-1,23
 127 343 127 343 164.5 349 c 128,-1,24
 202 355 202 355 245 355 c 0,25,26
 289 355 289 355 326.5 349 c 128,-1,27
 364 343 364 343 391.5 331.5 c 128,-1,28
 419 320 419 320 435 305 c 128,-1,29
 451 290 451 290 451 272 c 0,30,31
 451 255 451 255 435 240 c 128,-1,32
 419 225 419 225 391.5 214 c 128,-1,33
 364 203 364 203 326.5 196 c 128,-1,34
 289 189 289 189 245 189 c 0,35,36
 202 189 202 189 164.5 196 c 128,-1,37
 127 203 127 203 99 214 c 128,-1,38
 71 225 71 225 55.5 240 c 128,-1,39
 40 255 40 255 40 272 c 0,20,21
40 461 m 256,40,41
 40 478 40 478 55.5 493.5 c 128,-1,42
 71 509 71 509 99 520 c 128,-1,43
 127 531 127 531 164.5 537.5 c 128,-1,44
 202 544 202 544 245 544 c 0,45,46
 289 544 289 544 326.5 537.5 c 128,-1,47
 364 531 364 531 391.5 520 c 128,-1,48
 419 509 419 509 435 493.5 c 128,-1,49
 451 478 451 478 451 461 c 256,50,51
 451 444 451 444 435 429 c 128,-1,52
 419 414 419 414 391.5 402.5 c 128,-1,53
 364 391 364 391 326.5 384.5 c 128,-1,54
 289 378 289 378 245 378 c 0,55,56
 202 378 202 378 164.5 384.5 c 128,-1,57
 127 391 127 391 99 402.5 c 128,-1,58
 71 414 71 414 55.5 429 c 128,-1,59
 40 444 40 444 40 461 c 256,40,41
40 648 m 256,60,61
 40 665 40 665 55.5 680.5 c 128,-1,62
 71 696 71 696 99 707 c 128,-1,63
 127 718 127 718 164.5 724.5 c 128,-1,64
 202 731 202 731 245 731 c 0,65,66
 289 731 289 731 326.5 724.5 c 128,-1,67
 364 718 364 718 391.5 707 c 128,-1,68
 419 696 419 696 435 680.5 c 128,-1,69
 451 665 451 665 451 648 c 256,70,71
 451 631 451 631 435 616 c 128,-1,72
 419 601 419 601 391.5 589.5 c 128,-1,73
 364 578 364 578 326.5 571.5 c 128,-1,74
 289 565 289 565 245 565 c 0,75,76
 202 565 202 565 164.5 571.5 c 128,-1,77
 127 578 127 578 99 589.5 c 128,-1,78
 71 601 71 601 55.5 616 c 128,-1,79
 40 631 40 631 40 648 c 256,60,61
EndSplineSet
EndChar

